# Generated from the Unity FBX import by robot-human-interface
o foot_ll.obj
v 0.109568745 0.0502652377 -0.0139827756
v 0.105509818 0.0460391864 -0.01409879
v 0.109602034 0.0503894724 -0.0209827758
v 0.105509818 0.0460391864 -0.01409879
v 0.105674 0.04619587 -0.021034997
v 0.109602034 0.0503894724 -0.0209827758
v -0.112807915 0.05026524 -0.0209827758
v -0.108919658 0.04636495 -0.0210949127
v -0.112841204 0.0503894761 -0.0139827756
v -0.108919658 0.04636495 -0.0210949127
v -0.108754605 0.0458542071 -0.0140490886
v -0.112841204 0.0503894761 -0.0139827756
v -0.108173139 0.0297499951 0.009427717
v -0.104158781 0.0297499951 0.0136566991
v -0.107979171 0.03675 0.009909598
v -0.104158781 0.0297499951 0.0136566991
v -0.104192071 0.03675 0.0135324644
v -0.107979171 0.03675 0.009909598
v -0.107979171 0.03675 0.009909598
v -0.1085 0.0379361548 -0.0116554461
v -0.108173139 0.0297499951 0.009427717
v -0.1085 0.0379361548 -0.0116554461
v -0.1085 0.0301143453 -0.0106220627
v -0.108173139 0.0297499951 0.009427717
v 0.100952908 0.0297499951 0.0135324644
v 0.10474 0.0297499951 0.009909601
v 0.100919619 0.03675 0.0136566991
v 0.10474 0.0297499951 0.009909601
v 0.10493397 0.03675 0.009427724
v 0.100919619 0.03675 0.0136566991
v 0.10474 0.0297499951 0.009909601
v 0.105260834 0.0303315446 -0.0113489628
v 0.10493397 0.03675 0.009427724
v 0.105260834 0.0303315446 -0.0113489628
v 0.105260834 0.0375166349 -0.010984689
v 0.10493397 0.03675 0.009427724
v 0.105260834 0.0375166349 -0.010984689
v -0.1085 0.0379361548 -0.0116554461
v -0.107979171 0.03675 0.009909598
v 0.10493397 0.03675 0.009427724
v -0.107979171 0.03675 0.009909598
v -0.104192071 0.03675 0.0135324644
v 0.100919619 0.03675 0.0136566991
v -0.1085 0.0379361548 -0.0116554461
v -0.1085 0.0354199037 -0.01851789
v -0.1085 0.0301143453 -0.0106220627
v -0.1085 0.0301143453 -0.0106220627
v -0.1085 0.0354199037 -0.01851789
v 0.105260834 0.0303315446 -0.0113489628
v -0.1085 0.0354199037 -0.01851789
v 0.105260834 0.03628075 -0.0190930869
v 0.105260834 0.0303315446 -0.0113489628
v 0.105260834 0.0303315446 -0.0113489628
v 0.105260834 0.03628075 -0.0190930869
v 0.105260834 0.0375166349 -0.010984689
v 0.105260834 0.0375166349 -0.010984689
v 0.105509818 0.0460391864 -0.01409879
v -0.1085 0.0379361548 -0.0116554461
v 0.105509818 0.0460391864 -0.01409879
v -0.108754605 0.0458542071 -0.0140490886
v -0.1085 0.0379361548 -0.0116554461
v 0.0240542758 0.191541821 -0.0209827758
v 0.0301383957 0.189810976 -0.0210690256
v 0.0301898252 0.0902370661 -0.0211035516
v 0.0301898252 0.0902370661 -0.0211035516
v 0.02354184 0.08794573 -0.0209827758
v -0.101330526 0.173496246 -0.0211580209
v -0.09903356 0.1815833 -0.0209827758
v 0.0218459833 0.198383287 -0.0209827758
v -0.103415526 0.107207872 -0.02106171
v -0.09903356 0.102833293 -0.0209827758
v -0.101414353 0.0945361257 -0.0209827758
v 0.02203355 0.0809167 -0.0209827758
v -0.108919658 0.04636495 -0.0210949127
v 0.0261829328 0.07660975 -0.0209827758
v 0.105674 0.04619587 -0.021034997
v 0.03932194 0.07615399 -0.0209827758
v 0.109602034 0.0503894724 -0.0209827758
v 0.141375989 0.103002682 -0.0209827758
v -0.103182919 0.185890242 -0.0209827758
v 0.189723343 0.05075 -0.0208436511
v 0.154780567 0.112466715 -0.0209827758
v 0.163669139 0.127675876 -0.0209827758
v 0.165253282 0.1452205 -0.0209827758
v 0.189309865 0.279999971 -0.0208602753
v 0.161561176 0.157101676 -0.0209827758
v 0.153675482 0.168677583 -0.0209827758
v 0.141516909 0.1768253 -0.0209827758
v 0.109568782 0.280484766 -0.0209827758
v 0.0394189358 0.203833625 -0.0209827758
v 0.0262162127 0.203514487 -0.0209827758
v 0.105687819 0.284364939 -0.0211284123
v -0.108915433 0.284546345 -0.021050211
v 0.0262162127 0.203514487 -0.0209827758
v -0.112841226 0.28036052 -0.0209827758
v -0.112821572 0.186345652 -0.0209827758
v -0.246041164 0.279999971 -0.020826688
v -0.204511434 0.16201435 -0.0209827758
v -0.214353964 0.153093219 -0.0209827758
v -0.218095824 0.139344946 -0.0209827758
v -0.245592937 0.05075 -0.020860279
v -0.218095824 0.139344946 -0.0209827758
v -0.213631064 0.1258141 -0.0209827758
v -0.20460403 0.118155107 -0.0209827758
v -0.112919204 0.09366688 -0.0209827758
v -0.112807915 0.05026524 -0.0209827758
v 0.100952908 0.294 0.0135324644
v 0.10474 0.294 0.009909601
v 0.100919619 0.300999969 0.0136566991
v 0.10474 0.294 0.009909601
v 0.10493397 0.300999969 0.009427724
v 0.100919619 0.300999969 0.0136566991
v 0.105171651 0.2891163 -0.0137253208
v 0.105687819 0.284364939 -0.0211284123
v 0.105260834 0.2953301 -0.0185178816
v 0.0394190066 0.0761664 -0.0139827756
v 0.03932194 0.07615399 -0.0209827758
v 0.0244143568 0.07703613 -0.0139827756
v 0.03932194 0.07615399 -0.0209827758
v 0.0261829328 0.07660975 -0.0209827758
v 0.0244143568 0.07703613 -0.0139827756
v 0.03932194 0.07615399 -0.0209827758
v 0.0394190066 0.0761664 -0.0139827756
v 0.141375989 0.103002682 -0.0209827758
v 0.0394190066 0.0761664 -0.0139827756
v 0.141516924 0.103174686 -0.0139827756
v 0.141375989 0.103002682 -0.0209827758
v 0.141516924 0.103174686 -0.0139827756
v 0.153675467 0.1113224 -0.0139827756
v 0.141375989 0.103002682 -0.0209827758
v 0.153675467 0.1113224 -0.0139827756
v 0.154780567 0.112466715 -0.0209827758
v 0.141375989 0.103002682 -0.0209827758
v 0.153675467 0.1113224 -0.0139827756
v 0.161561176 0.122898318 -0.0139827756
v 0.154780567 0.112466715 -0.0209827758
v 0.161561176 0.122898318 -0.0139827756
v 0.163669139 0.127675876 -0.0209827758
v 0.154780567 0.112466715 -0.0209827758
v 0.161561176 0.122898318 -0.0139827756
v 0.165253282 0.1347795 -0.0139827756
v 0.163669139 0.127675876 -0.0209827758
v 0.165253282 0.1347795 -0.0139827756
v 0.165253282 0.1452205 -0.0209827758
v 0.163669139 0.127675876 -0.0209827758
v 0.165253282 0.1347795 -0.0139827756
v 0.163669124 0.152324155 -0.0139827756
v 0.165253282 0.1452205 -0.0209827758
v 0.163669124 0.152324155 -0.0139827756
v 0.161561176 0.157101676 -0.0209827758
v 0.165253282 0.1452205 -0.0209827758
v 0.163669124 0.152324155 -0.0139827756
v 0.154780567 0.167533278 -0.0139827756
v 0.161561176 0.157101676 -0.0209827758
v 0.154780567 0.167533278 -0.0139827756
v 0.153675482 0.168677583 -0.0209827758
v 0.161561176 0.157101676 -0.0209827758
v 0.154780567 0.167533278 -0.0139827756
v 0.141375989 0.1769973 -0.0139827756
v 0.153675482 0.168677583 -0.0209827758
v 0.141375989 0.1769973 -0.0139827756
v 0.141516909 0.1768253 -0.0209827758
v 0.153675482 0.168677583 -0.0209827758
v 0.109568782 0.280484766 -0.0209827758
v 0.105687819 0.284364939 -0.0211284123
v 0.107800186 0.280911118 -0.0139827756
v 0.105687819 0.284364939 -0.0211284123
v 0.105171651 0.2891163 -0.0137253208
v 0.107800186 0.280911118 -0.0139827756
v 0.188581064 0.279999971 -0.0138561325
v 0.189309865 0.279999971 -0.0208602753
v 0.107800186 0.280911118 -0.0139827756
v 0.189309865 0.279999971 -0.0208602753
v 0.109568782 0.280484766 -0.0209827758
v 0.107800186 0.280911118 -0.0139827756
v 0.199419439 0.05075 -0.013033607
v 0.189723343 0.05075 -0.0208436511
v 0.1989592 0.279999971 -0.0140586132
v 0.189723343 0.05075 -0.0208436511
v 0.189309865 0.279999971 -0.0208602753
v 0.1989592 0.279999971 -0.0140586132
v 0.1932631 0.279515266 0.0097092865
v 0.1932631 0.055057928 0.0135324644
v 0.1932631 0.2756588 0.0136566991
v 0.19290255 0.05075 -0.009641589
v 0.1932631 0.0511105172 0.00967599452
v 0.192778349 0.279999971 -0.00967488
v 0.1932631 0.279515266 0.0097092865
v 0.1932631 0.0511105172 0.00967599452
v 0.1932631 0.055057928 0.0135324644
v 0.2002631 0.275692075 0.0135324644
v 0.2002631 0.0550912134 0.0136566991
v 0.2002631 0.279639482 0.00967599452
v 0.2002631 0.0550912134 0.0136566991
v 0.2002631 0.05123476 0.009709286
v 0.2002631 0.279639482 0.00967599452
v 0.1932631 0.279515266 0.0097092865
v 0.2002631 0.279639482 0.00967599452
v 0.192778349 0.279999971 -0.00967488
v 0.2002631 0.279639482 0.00967599452
v 0.1989592 0.279999971 -0.0140586132
v 0.192778349 0.279999971 -0.00967488
v 0.0301383957 0.189810976 -0.0210690256
v 0.0242023189 0.191061154 -0.0139827756
v 0.03503377 0.189874977 -0.0136222541
v 0.0398442633 0.189874977 -0.0190930832
v 0.0460702926 0.189874977 -0.0107820667
v 0.0407051 0.0901249945 -0.01851789
v 0.0460702926 0.189874977 -0.0107820667
v 0.04601064 0.0901249945 -0.010622073
v 0.0407051 0.0901249945 -0.01851789
v 0.0301383957 0.189810976 -0.0210690256
v 0.03503377 0.189874977 -0.0136222541
v 0.0398442633 0.189874977 -0.0190930832
v 0.03503377 0.189874977 -0.0136222541
v 0.0393459462 0.190114573 -0.008246995
v 0.0398442633 0.189874977 -0.0190930832
v 0.0393459462 0.190114573 -0.008246995
v 0.0460702926 0.189874977 -0.0107820667
v 0.0398442633 0.189874977 -0.0190930832
v 0.03390843 0.09026586 -0.0139061771
v 0.03901447 0.0901249945 -0.009641562
v 0.03503377 0.189874977 -0.0136222541
v 0.03901447 0.0901249945 -0.009641562
v 0.0393459462 0.190114573 -0.008246995
v 0.03503377 0.189874977 -0.0136222541
v 0.0301898252 0.0902370661 -0.0211035516
v 0.0407051 0.0901249945 -0.01851789
v 0.03390843 0.09026586 -0.0139061771
v 0.046375 0.135640085 0.08433191
v 0.046375 0.139552817 0.08836554
v 0.046375 0.136593983 0.0928173661
v 0.046375 0.135640085 0.08433191
v 0.046375 0.124020725 0.08911141
v 0.046375 0.136409238 0.07049307
v 0.046375 0.114351489 0.08262558
v 0.046375 0.127594113 0.064295955
v 0.046375 0.105797365 0.0698729157
v 0.046375 0.12529999 0.05601722
v 0.046375 0.12705943 0.0486020446
v 0.046375 0.0901249945 0.00176722347
v 0.046375 0.135432348 0.0418193378
v 0.046375 0.147098735 0.06913406
v 0.046375 0.138933018 0.0797781944
v 0.04601064 0.0901249945 -0.010622073
v 0.0460702926 0.189874977 -0.0107820667
v 0.046375 0.146189526 0.0424476452
v 0.046375 0.152498186 0.04827867
v 0.046375 0.189874977 0.00176722347
v 0.046375 0.174043342 0.070008494
v 0.046375 0.154905885 0.05550938
v 0.046375 0.152498186 0.06375577
v 0.046375 0.1667005 0.0815698
v 0.046375 0.1529339 0.09063753
v 0.046375 0.139552817 0.08836554
v 0.046375 0.143217385 0.08671693
v 0.046375 0.143989369 0.08223035
v 0.046375 0.147098735 0.06913406
v 0.046375 0.138933018 0.0797781944
v 0.046375 0.146189526 0.0424476452
v 0.0460702926 0.189874977 -0.0107820667
v 0.046375 0.189874977 0.00176722347
v 0.046375 0.135432348 0.0418193378
v 0.046375 0.0901249945 0.00176722347
v 0.04601064 0.0901249945 -0.010622073
v 0.046375 0.135640085 0.08433191
v 0.046375 0.136409238 0.07049307
v 0.046375 0.138933018 0.0797781944
v 0.0393459462 0.190114573 -0.008246995
v 0.046375 0.189874977 0.00176722347
v 0.0460702926 0.189874977 -0.0107820667
v 0.03901447 0.0901249945 -0.009641562
v 0.03937499 0.0901249945 0.00176722347
v 0.03937499 0.136409283 0.0415413752
v 0.03937499 0.146189526 0.0695868
v 0.03937499 0.138643652 0.07065451
v 0.03937499 0.139552832 0.0796689
v 0.03937499 0.146189526 0.0695868
v 0.03937499 0.144204617 0.08282176
v 0.03937499 0.151527449 0.09113087
v 0.03937499 0.138643652 0.07065451
v 0.03937499 0.130611941 0.06760635
v 0.03937499 0.139552832 0.0796689
v 0.03937499 0.127066135 0.0906375349
v 0.03937499 0.113299489 0.0815697759
v 0.03937499 0.105956644 0.0700084344
v 0.03937499 0.1252546 0.058256954
v 0.03937499 0.127594128 0.0477384776
v 0.03937499 0.0901249945 0.00176722347
v 0.03937499 0.136409283 0.0415413752
v 0.03937499 0.138933018 0.0882562548
v 0.03937499 0.135640085 0.08370254
v 0.03937499 0.139999986 0.0927672163
v 0.03937499 0.151527449 0.09113087
v 0.03937499 0.143217385 0.08671693
v 0.03937499 0.144204617 0.08282176
v 0.03937499 0.146189526 0.0695868
v 0.03937499 0.1656485 0.08262558
v 0.03937499 0.152498186 0.06375577
v 0.03937499 0.174202621 0.06987295
v 0.03937499 0.154905885 0.0565250851
v 0.03937499 0.152498186 0.04827867
v 0.0393459462 0.190114573 -0.008246995
v 0.03901447 0.0901249945 -0.009641562
v 0.03937499 0.147098735 0.0429003872
v 0.03937499 0.0901249945 0.00176722347
v 0.03901447 0.0901249945 -0.009641562
v 0.046375 0.0901249945 0.00176722347
v 0.03901447 0.0901249945 -0.009641562
v 0.04601064 0.0901249945 -0.010622073
v 0.046375 0.0901249945 0.00176722347
v 0.046375 0.143989369 0.08223035
v 0.046375 0.143217385 0.08671693
v 0.03937499 0.144204617 0.08282176
v 0.046375 0.143217385 0.08671693
v 0.03937499 0.143217385 0.08671693
v 0.03937499 0.144204617 0.08282176
v 0.046375 0.143217385 0.08671693
v 0.046375 0.139552817 0.08836554
v 0.03937499 0.143217385 0.08671693
v 0.046375 0.139552817 0.08836554
v 0.03937499 0.138933018 0.0882562548
v 0.03937499 0.143217385 0.08671693
v 0.046375 0.139552817 0.08836554
v 0.046375 0.135640085 0.08433191
v 0.03937499 0.138933018 0.0882562548
v 0.046375 0.135640085 0.08433191
v 0.03937499 0.135640085 0.08370254
v 0.03937499 0.138933018 0.0882562548
v 0.046375 0.135640085 0.08433191
v 0.046375 0.138933018 0.0797781944
v 0.03937499 0.135640085 0.08370254
v 0.046375 0.138933018 0.0797781944
v 0.03937499 0.139552832 0.0796689
v 0.03937499 0.135640085 0.08370254
v 0.046375 0.138933018 0.0797781944
v 0.046375 0.143989369 0.08223035
v 0.03937499 0.139552832 0.0796689
v 0.046375 0.143989369 0.08223035
v 0.03937499 0.144204617 0.08282176
v 0.03937499 0.139552832 0.0796689
v 0.03937499 0.127594128 0.0477384776
v 0.03937499 0.1252546 0.058256954
v 0.046375 0.12705943 0.0486020446
v 0.03937499 0.1252546 0.058256954
v 0.046375 0.12529999 0.05601722
v 0.046375 0.12705943 0.0486020446
v 0.03937499 0.1252546 0.058256954
v 0.046375 0.127594113 0.064295955
v 0.046375 0.12529999 0.05601722
v 0.03937499 0.1252546 0.058256954
v 0.03937499 0.130611941 0.06760635
v 0.046375 0.127594113 0.064295955
v 0.03937499 0.130611941 0.06760635
v 0.046375 0.136409238 0.07049307
v 0.046375 0.127594113 0.064295955
v 0.03937499 0.130611941 0.06760635
v 0.03937499 0.138643652 0.07065451
v 0.046375 0.136409238 0.07049307
v 0.03937499 0.146189526 0.0695868
v 0.03937499 0.152498186 0.06375577
v 0.046375 0.147098735 0.06913406
v 0.03937499 0.152498186 0.06375577
v 0.046375 0.152498186 0.06375577
v 0.046375 0.147098735 0.06913406
v 0.03937499 0.152498186 0.06375577
v 0.03937499 0.154905885 0.0565250851
v 0.046375 0.152498186 0.06375577
v 0.03937499 0.154905885 0.0565250851
v 0.046375 0.154905885 0.05550938
v 0.046375 0.152498186 0.06375577
v 0.03937499 0.154905885 0.0565250851
v 0.03937499 0.152498186 0.04827867
v 0.046375 0.154905885 0.05550938
v 0.03937499 0.152498186 0.04827867
v 0.046375 0.152498186 0.04827867
v 0.046375 0.154905885 0.05550938
v 0.03937499 0.152498186 0.04827867
v 0.03937499 0.147098735 0.0429003872
v 0.046375 0.152498186 0.04827867
v 0.03937499 0.147098735 0.0429003872
v 0.046375 0.146189526 0.0424476452
v 0.046375 0.152498186 0.04827867
v 0.03937499 0.147098735 0.0429003872
v 0.03937499 0.136409283 0.0415413752
v 0.046375 0.146189526 0.0424476452
v 0.03937499 0.136409283 0.0415413752
v 0.046375 0.135432348 0.0418193378
v 0.046375 0.146189526 0.0424476452
v 0.03937499 0.136409283 0.0415413752
v 0.03937499 0.127594128 0.0477384776
v 0.046375 0.135432348 0.0418193378
v 0.03937499 0.127594128 0.0477384776
v 0.046375 0.12705943 0.0486020446
v 0.046375 0.135432348 0.0418193378
v 0.03937499 0.174202621 0.06987295
v 0.046375 0.1667005 0.0815698
v 0.046375 0.174043342 0.070008494
v 0.03937499 0.174202621 0.06987295
v 0.03937499 0.1656485 0.08262558
v 0.03937499 0.1656485 0.08262558
v 0.046375 0.1529339 0.09063753
v 0.046375 0.1667005 0.0815698
v 0.03937499 0.1656485 0.08262558
v 0.03937499 0.151527449 0.09113087
v 0.046375 0.1529339 0.09063753
v 0.03937499 0.139999986 0.0927672163
v 0.03937499 0.127066135 0.0906375349
v 0.046375 0.136593983 0.0928173661
v 0.03937499 0.127066135 0.0906375349
v 0.046375 0.124020725 0.08911141
v 0.046375 0.136593983 0.0928173661
v 0.03937499 0.113299489 0.0815697759
v 0.046375 0.105797365 0.0698729157
v 0.046375 0.114351489 0.08262558
v 0.03937499 0.105956644 0.0700084344
v 0.046375 0.105797365 0.0698729157
v 0.0393459462 0.190114573 -0.008246995
v 0.03937499 0.174202621 0.06987295
v 0.046375 0.189874977 0.00176722347
v 0.03937499 0.174202621 0.06987295
v 0.046375 0.174043342 0.070008494
v 0.046375 0.189874977 0.00176722347
v 0.105171651 0.2891163 -0.0137253208
v 0.105260834 0.293479174 -0.009875164
v -0.10832049 0.28946504 -0.0136177754
v 0.105260834 0.293479174 -0.009875164
v -0.1085 0.293673158 -0.009393302
v -0.10832049 0.28946504 -0.0136177754
v 0.105509818 0.0460391864 -0.01409879
v 0.0394190066 0.0761664 -0.0139827756
v 0.0244143568 0.07703613 -0.0139827756
v 0.025375 0.08918718 -0.0139827756
v -0.103552915 0.107366085 -0.0141518759
v -0.09981281 0.104124993 -0.0139827756
v -0.217613921 0.136432946 -0.0139827756
v -0.216859087 0.147748992 -0.0139827756
v -0.2448642 0.05075 -0.0138561325
v -0.214353949 0.126906753 -0.0139827756
v -0.2448642 0.05075 -0.0138561325
v -0.204511434 0.117985636 -0.0139827756
v -0.112821616 0.0936543345 -0.0139827756
v -0.112841204 0.0503894761 -0.0139827756
v -0.103182934 0.09410975 -0.0139827756
v -0.112841204 0.0503894761 -0.0139827756
v -0.108754605 0.0458542071 -0.0140490886
v -0.216859087 0.147748992 -0.0139827756
v -0.244595543 0.279999971 -0.0138584366
v -0.20749332 0.160502583 -0.0139827756
v -0.20749332 0.160502583 -0.0139827756
v -0.112919144 0.18633312 -0.0139827756
v -0.111254975 0.281022757 -0.0139827756
v -0.103216209 0.186014473 -0.0139827756
v 0.0261829179 0.203390256 -0.0139827756
v 0.02203355 0.1990833 -0.0139827756
v -0.09884599 0.180883288 -0.0139827756
v 0.0242023189 0.191061154 -0.0139827756
v -0.101054274 0.174041823 -0.0139827756
v 0.025375 0.08918718 -0.0139827756
v -0.103552915 0.107366085 -0.0141518759
v 0.03390843 0.09026586 -0.0139061771
v 0.107800186 0.280911118 -0.0139827756
v 0.0393219329 0.203846008 -0.0139827756
v 0.141375989 0.1769973 -0.0139827756
v 0.105171651 0.2891163 -0.0137253208
v -0.10832049 0.28946504 -0.0136177754
v 0.188581064 0.279999971 -0.0138561325
v 0.154780567 0.167533278 -0.0139827756
v 0.163669124 0.152324155 -0.0139827756
v -0.09981281 0.104124993 -0.0139827756
v -0.09903356 0.0984167 -0.0139827756
v 0.02203355 0.0853333 -0.0139827756
v -0.103182934 0.09410975 -0.0139827756
v 0.0244143568 0.07703613 -0.0139827756
v -0.108754605 0.0458542071 -0.0140490886
v 0.105509818 0.0460391864 -0.01409879
v 0.165253282 0.1347795 -0.0139827756
v 0.188581064 0.279999971 -0.0138561325
v 0.188287988 0.05075 -0.0138721438
v 0.161561176 0.122898318 -0.0139827756
v 0.153675467 0.1113224 -0.0139827756
v 0.141516924 0.103174686 -0.0139827756
v 0.109568745 0.0502652377 -0.0139827756
v 0.0394190066 0.0761664 -0.0139827756
v 0.03390843 0.09026586 -0.0139061771
v 0.03503377 0.189874977 -0.0136222541
v 0.0242023189 0.191061154 -0.0139827756
v -0.108181313 0.172277808 -0.0136101805
v -0.103552915 0.107366085 -0.0141518759
v -0.101054274 0.174041823 -0.0139827756
v 0.0301383957 0.189810976 -0.0210690256
v 0.0240542758 0.191541821 -0.0209827758
v 0.0242023189 0.191061154 -0.0139827756
v 0.0240542758 0.191541821 -0.0209827758
v 0.0218459833 0.198383287 -0.0209827758
v 0.0242023189 0.191061154 -0.0139827756
v 0.0218459833 0.198383287 -0.0209827758
v 0.02203355 0.1990833 -0.0139827756
v 0.0242023189 0.191061154 -0.0139827756
v 0.0218459833 0.198383287 -0.0209827758
v 0.0262162127 0.203514487 -0.0209827758
v 0.02203355 0.1990833 -0.0139827756
v 0.0262162127 0.203514487 -0.0209827758
v 0.0261829179 0.203390256 -0.0139827756
v 0.02203355 0.1990833 -0.0139827756
v 0.105260834 0.300635666 -0.0106220813
v 0.105260834 0.2953301 -0.0185178816
v -0.1085 0.300418466 -0.0113489591
v 0.105260834 0.2953301 -0.0185178816
v -0.1085 0.294469267 -0.0190930832
v -0.1085 0.300418466 -0.0113489591
v -0.108173139 0.294 0.009427717
v -0.104158781 0.294 0.0136566991
v -0.107979171 0.300999969 0.009909598
v -0.104158781 0.294 0.0136566991
v -0.104192071 0.300999969 0.0135324644
v -0.107979171 0.300999969 0.009909598
v -0.107979171 0.300999969 0.009909598
v -0.1085 0.300418466 -0.0113489591
v -0.108173139 0.294 0.009427717
v -0.1085 0.300418466 -0.0113489591
v -0.1085 0.293673158 -0.009393302
v -0.108173139 0.294 0.009427717
v -0.1085 0.294469267 -0.0190930832
v -0.108915433 0.284546345 -0.021050211
v -0.10832049 0.28946504 -0.0136177754
v -0.249219358 0.05075 -0.00939328
v -0.2448642 0.05075 -0.0138561325
v -0.2490254 0.279999971 -0.009875151
v -0.2448642 0.05075 -0.0138561325
v -0.244595543 0.279999971 -0.0138584366
v -0.2490254 0.279999971 -0.009875151
v -0.246041164 0.279999971 -0.020826688
v -0.244595543 0.279999971 -0.0138584366
v -0.112841226 0.28036052 -0.0209827758
v -0.244595543 0.279999971 -0.0138584366
v -0.111254975 0.281022757 -0.0139827756
v -0.112841226 0.28036052 -0.0209827758
v -0.111254975 0.281022757 -0.0139827756
v -0.108915433 0.284546345 -0.021050211
v -0.112841226 0.28036052 -0.0209827758
v -0.111254975 0.281022757 -0.0139827756
v -0.10832049 0.28946504 -0.0136177754
v -0.108915433 0.284546345 -0.021050211
v 0.0261829328 0.07660975 -0.0209827758
v 0.02203355 0.0809167 -0.0209827758
v 0.0244143568 0.07703613 -0.0139827756
v 0.02203355 0.0809167 -0.0209827758
v 0.02203355 0.0853333 -0.0139827756
v 0.0244143568 0.07703613 -0.0139827756
v 0.02203355 0.0809167 -0.0209827758
v 0.02354184 0.08794573 -0.0209827758
v 0.02203355 0.0853333 -0.0139827756
v 0.02354184 0.08794573 -0.0209827758
v 0.025375 0.08918718 -0.0139827756
v 0.02203355 0.0853333 -0.0139827756
v 0.02354184 0.08794573 -0.0209827758
v 0.0301898252 0.0902370661 -0.0211035516
v 0.025375 0.08918718 -0.0139827756
v 0.0301898252 0.0902370661 -0.0211035516
v 0.03390843 0.09026586 -0.0139061771
v 0.025375 0.08918718 -0.0139827756
v -0.112108365 0.107625 -0.0109846937
v -0.108181313 0.172277808 -0.0136101805
v -0.112354174 0.172375 -0.009875147
v -0.112108365 0.107625 -0.0109846937
v -0.103552915 0.107366085 -0.0141518759
v -0.108181313 0.172277808 -0.0136101805
v -0.103182919 0.185890242 -0.0209827758
v -0.09903356 0.1815833 -0.0209827758
v -0.103216209 0.186014473 -0.0139827756
v -0.09903356 0.1815833 -0.0209827758
v -0.09884599 0.180883288 -0.0139827756
v -0.103216209 0.186014473 -0.0139827756
v -0.09903356 0.1815833 -0.0209827758
v -0.101330526 0.173496246 -0.0211580209
v -0.09884599 0.180883288 -0.0139827756
v -0.101330526 0.173496246 -0.0211580209
v -0.101054274 0.174041823 -0.0139827756
v -0.09884599 0.180883288 -0.0139827756
v -0.101330526 0.173496246 -0.0211580209
v -0.108181313 0.172277808 -0.0136101805
v -0.101054274 0.174041823 -0.0139827756
v -0.112821572 0.186345652 -0.0209827758
v -0.112919144 0.18633312 -0.0139827756
v -0.204511434 0.16201435 -0.0209827758
v -0.112919144 0.18633312 -0.0139827756
v -0.20749332 0.160502583 -0.0139827756
v -0.204511434 0.16201435 -0.0209827758
v -0.20749332 0.160502583 -0.0139827756
v -0.214353964 0.153093219 -0.0209827758
v -0.204511434 0.16201435 -0.0209827758
v -0.20749332 0.160502583 -0.0139827756
v -0.216859087 0.147748992 -0.0139827756
v -0.214353964 0.153093219 -0.0209827758
v -0.216859087 0.147748992 -0.0139827756
v -0.218095824 0.139344946 -0.0209827758
v -0.214353964 0.153093219 -0.0209827758
v -0.216859087 0.147748992 -0.0139827756
v -0.217613921 0.136432946 -0.0139827756
v -0.218095824 0.139344946 -0.0209827758
v -0.214353949 0.126906753 -0.0139827756
v -0.204511434 0.117985636 -0.0139827756
v -0.213631064 0.1258141 -0.0209827758
v -0.204511434 0.117985636 -0.0139827756
v -0.20460403 0.118155107 -0.0209827758
v -0.213631064 0.1258141 -0.0209827758
v -0.112919204 0.09366688 -0.0209827758
v -0.112821616 0.0936543345 -0.0139827756
v -0.101414353 0.0945361257 -0.0209827758
v -0.112821616 0.0936543345 -0.0139827756
v -0.103182934 0.09410975 -0.0139827756
v -0.101414353 0.0945361257 -0.0209827758
v -0.103415526 0.107207872 -0.02106171
v -0.09903356 0.102833293 -0.0209827758
v -0.103552915 0.107366085 -0.0141518759
v -0.09903356 0.102833293 -0.0209827758
v -0.09981281 0.104124993 -0.0139827756
v -0.103552915 0.107366085 -0.0141518759
v -0.09903356 0.102833293 -0.0209827758
v -0.09903356 0.0984167 -0.0139827756
v -0.09981281 0.104124993 -0.0139827756
v -0.09903356 0.102833293 -0.0209827758
v -0.101414353 0.0945361257 -0.0209827758
v -0.09903356 0.0984167 -0.0139827756
v -0.101414353 0.0945361257 -0.0209827758
v -0.103182934 0.09410975 -0.0139827756
v -0.09903356 0.0984167 -0.0139827756
v -0.119849414 0.172635421 -0.008921714
v -0.114205115 0.172375 -0.01851788
v -0.119293444 0.107625 -0.011348973
v -0.114205115 0.172375 -0.01851788
v -0.113344274 0.107625 -0.0190930776
v -0.119293444 0.107625 -0.011348973
v -0.249546215 0.279639482 0.009675997
v -0.249546215 0.275692075 0.0135324644
v -0.249546215 0.0550912134 0.0136566991
v -0.112875 0.107625 0.00176722347
v -0.112875 0.141396523 0.0500437133
v -0.112875 0.136783183 0.0510117635
v -0.112875 0.133888528 0.05548505
v -0.112875 0.136977151 0.0613553338
v -0.112875 0.12737757 0.07306641
v -0.112875 0.143599957 0.060984455
v -0.112875 0.146013826 0.05480604
v -0.112875 0.1516591 0.0737391338
v -0.112875 0.172375 0.00176722347
v -0.112875 0.107625 0.00176722347
v -0.112108365 0.107625 -0.0109846937
v -0.112354174 0.172375 -0.009875147
v -0.112875 0.172375 0.00176722347
v -0.112875 0.146013826 0.05480604
v -0.112875 0.141396523 0.0500437133
v -0.112875 0.107625 0.00176722347
v -0.112875 0.146013826 0.05480604
v -0.112875 0.159062743 0.06506698
v -0.112875 0.1516591 0.0737391338
v -0.112875 0.136783183 0.0510117635
v -0.112875 0.133888528 0.05548505
v -0.112875 0.120577335 0.06427351
v -0.112875 0.12737757 0.07306641
v -0.112875 0.143599957 0.060984455
v -0.112875 0.1394125 0.0772223
v -0.112875 0.136977151 0.0613553338
v -0.112354174 0.172375 -0.009875147
v -0.114205115 0.172375 -0.01851788
v -0.119849414 0.172635421 -0.008921714
v -0.112354174 0.172375 -0.009875147
v -0.108181313 0.172277808 -0.0136101805
v -0.114205115 0.172375 -0.01851788
v -0.108181313 0.172277808 -0.0136101805
v -0.101330526 0.173496246 -0.0211580209
v -0.114205115 0.172375 -0.01851788
v -0.119293444 0.107625 -0.011348973
v -0.113344274 0.107625 -0.0190930776
v -0.112108365 0.107625 -0.0109846937
v -0.119849414 0.172635421 -0.008921714
v -0.119875 0.1386035 0.0500437133
v -0.119875 0.1432168 0.0510117635
v -0.119875 0.14302285 0.0613553375
v -0.119875 0.13832368 0.0617262125
v -0.119875 0.140587479 0.0772223
v -0.2565462 0.055057928 0.0135324644
v -0.2565462 0.279515266 0.009709288
v -0.2565462 0.0511105172 0.00967599452
v -0.2565462 0.055057928 0.0135324644
v -0.2565462 0.2756588 0.0136566991
v -0.2565462 0.279515266 0.009709288
v -0.2555569 0.05075 -0.01368422
v -0.2565462 0.0511105172 0.00967599452
v -0.2565462 0.279515266 0.009709288
v -0.255409718 0.279999971 -0.0134432027
v -0.249546215 0.05123476 0.009709286
v -0.2565462 0.0511105172 0.00967599452
v -0.249219358 0.05075 -0.00939328
v -0.2565462 0.0511105172 0.00967599452
v -0.2555569 0.05075 -0.01368422
v -0.249219358 0.05075 -0.00939328
v -0.119875 0.1432168 0.0510117635
v -0.119875 0.1386035 0.0500437133
v -0.112875 0.141396523 0.0500437133
v -0.119875 0.1386035 0.0500437133
v -0.112875 0.136783183 0.0510117635
v -0.112875 0.141396523 0.0500437133
v -0.119875 0.1386035 0.0500437133
v -0.119875 0.134587675 0.0535455
v -0.112875 0.136783183 0.0510117635
v -0.119875 0.134587675 0.0535455
v -0.112875 0.133888528 0.05548505
v -0.112875 0.136783183 0.0510117635
v -0.119875 0.134587675 0.0535455
v -0.119875 0.134286016 0.0582496151
v -0.112875 0.133888528 0.05548505
v -0.119875 0.134286016 0.0582496151
v -0.112875 0.136977151 0.0613553338
v -0.112875 0.133888528 0.05548505
v -0.119875 0.134286016 0.0582496151
v -0.119875 0.13832368 0.0617262125
v -0.112875 0.136977151 0.0613553338
v -0.119875 0.13832368 0.0617262125
v -0.119875 0.14302285 0.0613553375
v -0.112875 0.136977151 0.0613553338
v -0.112875 0.143599957 0.060984455
v -0.112875 0.136977151 0.0613553338
v -0.119875 0.14302285 0.0613553375
v -0.119875 0.146111459 0.0554850549
v -0.112875 0.143599957 0.060984455
v -0.119875 0.146111459 0.0554850549
v -0.112875 0.146013826 0.05480604
v -0.112875 0.143599957 0.060984455
v -0.119875 0.146111459 0.0554850549
v -0.119875 0.1432168 0.0510117635
v -0.112875 0.146013826 0.05480604
v -0.119875 0.1432168 0.0510117635
v -0.112875 0.141396523 0.0500437133
v -0.112875 0.146013826 0.05480604
v -0.119875 0.159422666 0.06427352
v -0.119875 0.152622432 0.07306641
v -0.112875 0.159062743 0.06506698
v -0.119875 0.152622432 0.07306641
v -0.112875 0.1516591 0.0737391338
v -0.112875 0.159062743 0.06506698
v -0.119875 0.152622432 0.07306641
v -0.119875 0.140587479 0.0772223
v -0.112875 0.1516591 0.0737391338
v -0.119875 0.140587479 0.0772223
v -0.112875 0.1394125 0.0772223
v -0.112875 0.1516591 0.0737391338
v -0.119875 0.140587479 0.0772223
v -0.119875 0.1283409 0.07373914
v -0.112875 0.1394125 0.0772223
v -0.119875 0.1283409 0.07373914
v -0.112875 0.12737757 0.07306641
v -0.112875 0.1394125 0.0772223
v -0.119875 0.1283409 0.07373914
v -0.119875 0.120937265 0.06506698
v -0.112875 0.12737757 0.07306641
v -0.119875 0.120937265 0.06506698
v -0.112875 0.120577335 0.06427351
v -0.112875 0.12737757 0.07306641
v -0.119849414 0.172635421 -0.008921714
v -0.119875 0.159422666 0.06427352
v -0.112875 0.172375 0.00176722347
v -0.119875 0.159422666 0.06427352
v -0.112875 0.159062743 0.06506698
v -0.112875 0.172375 0.00176722347
v -0.119849414 0.172635421 -0.008921714
v -0.112875 0.172375 0.00176722347
v -0.112354174 0.172375 -0.009875147
v -0.119875 0.107625 0.00176722347
v -0.119293444 0.107625 -0.011348973
v -0.112875 0.107625 0.00176722347
v -0.119293444 0.107625 -0.011348973
v -0.112108365 0.107625 -0.0109846937
v -0.112875 0.107625 0.00176722347
v -0.119875 0.120937265 0.06506698
v -0.119875 0.107625 0.00176722347
v -0.112875 0.120577335 0.06427351
v -0.119875 0.107625 0.00176722347
v -0.112875 0.107625 0.00176722347
v -0.112875 0.120577335 0.06427351
v -0.1085 0.0301143453 -0.0106220627
v 0.105260834 0.0303315446 -0.0113489628
v 0.10474 0.0297499951 0.009909601
v -0.108173139 0.0297499951 0.009427717
v 0.100952908 0.0297499951 0.0135324644
v -0.104158781 0.0297499951 0.0136566991
v -0.104192071 0.03675 0.0135324644
v -0.104158781 0.0297499951 0.0136566991
v 0.100919619 0.03675 0.0136566991
v 0.100952908 0.0297499951 0.0135324644
v -0.1085 0.0379361548 -0.0116554461
v -0.108754605 0.0458542071 -0.0140490886
v -0.1085 0.0354199037 -0.01851789
v -0.108919658 0.04636495 -0.0210949127
v -0.1085 0.0354199037 -0.01851789
v -0.108919658 0.04636495 -0.0210949127
v 0.105260834 0.03628075 -0.0190930869
v 0.105674 0.04619587 -0.021034997
v 0.105260834 0.03628075 -0.0190930869
v 0.105509818 0.0460391864 -0.01409879
v 0.105260834 0.0375166349 -0.010984689
v 0.105674 0.04619587 -0.021034997
v -0.112919204 0.09366688 -0.0209827758
v -0.101414353 0.0945361257 -0.0209827758
v -0.112807915 0.05026524 -0.0209827758
v -0.108919658 0.04636495 -0.0210949127
v -0.112807915 0.05026524 -0.0209827758
v -0.112841204 0.0503894761 -0.0139827756
v -0.245592937 0.05075 -0.020860279
v -0.2448642 0.05075 -0.0138561325
v 0.0394189358 0.203833625 -0.0209827758
v 0.0393219329 0.203846008 -0.0139827756
v 0.0262162127 0.203514487 -0.0209827758
v 0.0261829179 0.203390256 -0.0139827756
v 0.10474 0.294 0.009909601
v 0.105260834 0.293479174 -0.009875164
v 0.10493397 0.300999969 0.009427724
v 0.105260834 0.300635666 -0.0106220813
v 0.105260834 0.293479174 -0.009875164
v 0.105260834 0.2953301 -0.0185178816
v 0.105260834 0.300635666 -0.0106220813
v 0.105171651 0.2891163 -0.0137253208
v 0.0393219329 0.203846008 -0.0139827756
v 0.0394189358 0.203833625 -0.0209827758
v 0.141375989 0.1769973 -0.0139827756
v 0.141516909 0.1768253 -0.0209827758
v 0.192778349 0.279999971 -0.00967488
v 0.188581064 0.279999971 -0.0138561325
v 0.19290255 0.05075 -0.009641589
v 0.188287988 0.05075 -0.0138721438
v 0.1989592 0.279999971 -0.0140586132
v 0.188581064 0.279999971 -0.0138561325
v 0.192778349 0.279999971 -0.00967488
v 0.189309865 0.279999971 -0.0208602753
v 0.19290255 0.05075 -0.009641589
v 0.188287988 0.05075 -0.0138721438
v 0.199419439 0.05075 -0.013033607
v 0.189723343 0.05075 -0.0208436511
v 0.2002631 0.05123476 0.009709286
v 0.199419439 0.05075 -0.013033607
v 0.2002631 0.279639482 0.00967599452
v 0.1989592 0.279999971 -0.0140586132
v 0.1932631 0.279515266 0.0097092865
v 0.1932631 0.2756588 0.0136566991
v 0.2002631 0.279639482 0.00967599452
v 0.2002631 0.275692075 0.0135324644
v 0.2002631 0.275692075 0.0135324644
v 0.1932631 0.2756588 0.0136566991
v 0.2002631 0.0550912134 0.0136566991
v 0.1932631 0.055057928 0.0135324644
v 0.1932631 0.055057928 0.0135324644
v 0.1932631 0.0511105172 0.00967599452
v 0.2002631 0.0550912134 0.0136566991
v 0.2002631 0.05123476 0.009709286
v 0.2002631 0.05123476 0.009709286
v 0.1932631 0.0511105172 0.00967599452
v 0.199419439 0.05075 -0.013033607
v 0.19290255 0.05075 -0.009641589
v 0.0301383957 0.189810976 -0.0210690256
v 0.0398442633 0.189874977 -0.0190930832
v 0.0301898252 0.0902370661 -0.0211035516
v 0.0407051 0.0901249945 -0.01851789
v 0.0407051 0.0901249945 -0.01851789
v 0.03901447 0.0901249945 -0.009641562
v 0.03390843 0.09026586 -0.0139061771
v 0.04601064 0.0901249945 -0.010622073
v 0.03937499 0.130611941 0.06760635
v 0.03937499 0.135640085 0.08370254
v 0.03937499 0.139552832 0.0796689
v 0.03937499 0.127066135 0.0906375349
v 0.03937499 0.138643652 0.07065451
v 0.03937499 0.146189526 0.0695868
v 0.046375 0.136409238 0.07049307
v 0.046375 0.147098735 0.06913406
v 0.03937499 0.105956644 0.0700084344
v 0.03937499 0.0901249945 0.00176722347
v 0.046375 0.105797365 0.0698729157
v 0.046375 0.0901249945 0.00176722347
v 0.03937499 0.151527449 0.09113087
v 0.046375 0.136593983 0.0928173661
v 0.046375 0.1529339 0.09063753
v 0.03937499 0.139999986 0.0927672163
v 0.03937499 0.127066135 0.0906375349
v 0.046375 0.114351489 0.08262558
v 0.046375 0.124020725 0.08911141
v 0.03937499 0.113299489 0.0815697759
v 0.100952908 0.294 0.0135324644
v 0.100919619 0.300999969 0.0136566991
v -0.104158781 0.294 0.0136566991
v -0.104192071 0.300999969 0.0135324644
v 0.105260834 0.293479174 -0.009875164
v 0.10474 0.294 0.009909601
v -0.1085 0.293673158 -0.009393302
v -0.108173139 0.294 0.009427717
v 0.100952908 0.294 0.0135324644
v -0.104158781 0.294 0.0136566991
v 0.105260834 0.2953301 -0.0185178816
v 0.105687819 0.284364939 -0.0211284123
v -0.1085 0.294469267 -0.0190930832
v -0.108915433 0.284546345 -0.021050211
v 0.10493397 0.300999969 0.009427724
v -0.104192071 0.300999969 0.0135324644
v 0.100919619 0.300999969 0.0136566991
v -0.107979171 0.300999969 0.009909598
v 0.105260834 0.300635666 -0.0106220813
v -0.1085 0.300418466 -0.0113489591
v -0.1085 0.300418466 -0.0113489591
v -0.1085 0.294469267 -0.0190930832
v -0.1085 0.293673158 -0.009393302
v -0.10832049 0.28946504 -0.0136177754
v 0.109568745 0.0502652377 -0.0139827756
v 0.109602034 0.0503894724 -0.0209827758
v 0.188287988 0.05075 -0.0138721438
v 0.189723343 0.05075 -0.0208436511
v -0.112919144 0.18633312 -0.0139827756
v -0.112821572 0.186345652 -0.0209827758
v -0.103216209 0.186014473 -0.0139827756
v -0.103182919 0.185890242 -0.0209827758
v -0.217613921 0.136432946 -0.0139827756
v -0.214353949 0.126906753 -0.0139827756
v -0.218095824 0.139344946 -0.0209827758
v -0.213631064 0.1258141 -0.0209827758
v -0.112821616 0.0936543345 -0.0139827756
v -0.112919204 0.09366688 -0.0209827758
v -0.204511434 0.117985636 -0.0139827756
v -0.20460403 0.118155107 -0.0209827758
v -0.114205115 0.172375 -0.01851788
v -0.101330526 0.173496246 -0.0211580209
v -0.113344274 0.107625 -0.0190930776
v -0.103415526 0.107207872 -0.02106171
v -0.255409718 0.279999971 -0.0134432027
v -0.246041164 0.279999971 -0.020826688
v -0.2555569 0.05075 -0.01368422
v -0.245592937 0.05075 -0.020860279
v -0.2555569 0.05075 -0.01368422
v -0.2448642 0.05075 -0.0138561325
v -0.249219358 0.05075 -0.00939328
v -0.245592937 0.05075 -0.020860279
v -0.249546215 0.279639482 0.009675997
v -0.249546215 0.0550912134 0.0136566991
v -0.249546215 0.05123476 0.009709286
v -0.249219358 0.05075 -0.00939328
v -0.2490254 0.279999971 -0.009875151
v -0.2490254 0.279999971 -0.009875151
v -0.244595543 0.279999971 -0.0138584366
v -0.255409718 0.279999971 -0.0134432027
v -0.246041164 0.279999971 -0.020826688
v -0.113344274 0.107625 -0.0190930776
v -0.103552915 0.107366085 -0.0141518759
v -0.112108365 0.107625 -0.0109846937
v -0.103415526 0.107207872 -0.02106171
v -0.119849414 0.172635421 -0.008921714
v -0.119875 0.1432168 0.0510117635
v -0.119875 0.146111459 0.0554850549
v -0.119875 0.159422666 0.06427352
v -0.119875 0.152622432 0.07306641
v -0.119875 0.14302285 0.0613553375
v -0.119875 0.14302285 0.0613553375
v -0.119875 0.140587479 0.0772223
v -0.119293444 0.107625 -0.011348973
v -0.119875 0.107625 0.00176722347
v -0.119875 0.1386035 0.0500437133
v -0.119875 0.107625 0.00176722347
v -0.119875 0.134587675 0.0535455
v -0.119875 0.13832368 0.0617262125
v -0.119875 0.1283409 0.07373914
v -0.119875 0.134286016 0.0582496151
v -0.119875 0.134587675 0.0535455
v -0.119875 0.120937265 0.06506698
v -0.119875 0.134286016 0.0582496151
v -0.249546215 0.05123476 0.009709286
v -0.249546215 0.0550912134 0.0136566991
v -0.2565462 0.0511105172 0.00967599452
v -0.2565462 0.055057928 0.0135324644
v -0.2565462 0.055057928 0.0135324644
v -0.249546215 0.0550912134 0.0136566991
v -0.2565462 0.2756588 0.0136566991
v -0.249546215 0.275692075 0.0135324644
v -0.249546215 0.275692075 0.0135324644
v -0.249546215 0.279639482 0.009675997
v -0.2565462 0.2756588 0.0136566991
v -0.2565462 0.279515266 0.009709288
v -0.2565462 0.279515266 0.009709288
v -0.249546215 0.279639482 0.009675997
v -0.255409718 0.279999971 -0.0134432027
v -0.2490254 0.279999971 -0.009875151
vn 0.517496169 -0.8555761 -0.0136829279
vn 0.875984251 -0.482327521 -0.00343646365
vn 0.520582855 -0.851783931 -0.0588022172
vn 0.8783483 -0.475094616 0.05281507
vn 0.8818814 -0.471453249 0.004122279
vn 0.5280398 -0.849219441 -0.0005818404
vn -0.501226664 -0.865308642 0.003584292
vn -0.866599262 -0.498804837 0.014121592
vn -0.503167748 -0.8627652 0.04958229
vn -0.888067961 -0.454875618 -0.0665094554
vn -0.890697062 -0.45378226 -0.0272124484
vn -0.544218838 -0.8383005 -0.0328346081
vn -0.8785281 -0.0144696236 0.4774714
vn -0.5236498 0.0009182953 0.8519331
vn -0.8784958 -0.0255668312 0.477065474
vn -0.480886549 0.024410205 0.876443
vn -0.4806561 0.0119106136 0.8768283
vn -0.853831947 -0.0181366429 0.5202327
vn -0.9993369 0.02593108 0.0255617257
vn -0.9993369 0.02593108 0.0255617257
vn -0.9993369 0.02593108 0.0255617257
vn -0.9998642 0.002159846 0.0163392667
vn -0.9998642 0.002159846 0.0163392667
vn -0.9998642 0.002159846 0.0163392667
vn 0.480656624 -0.0119093675 0.8768281
vn 0.8538263 0.0182219781 0.5202391
vn 0.4808868 -0.02440895 0.87644285
vn 0.8784959 0.0255668666 0.4770653
vn 0.8785283 0.0144697847 0.477471173
vn 0.52365005 -0.000918172242 0.851932943
vn 0.9993778 -0.0260567423 0.0237715635
vn 0.9993778 -0.0260567423 0.0237715635
vn 0.9993778 -0.0260567423 0.0237715635
vn 0.999871969 -0.0008089187 0.015980158
vn 0.999871969 -0.0008089187 0.015980158
vn 0.999871969 -0.0008089187 0.015980158
vn 8.49445059E-05 0.9992954 0.03753242
vn 0.00178740232 0.9984915 0.0548775643
vn 0.00178740232 0.9984915 0.0548775643
vn 0 1 0
vn 0 1 0
vn 0 1 0
vn 0 1 -6.46103558E-07
vn -1 1.66071652E-06 0
vn -1 1.66071652E-06 0
vn -1 1.66071652E-06 0
vn -0.0005828023 -0.922884 -0.385077715
vn 0.0009810369 -0.7052699 -0.7089383
vn -0.00130622182 -0.9228835 -0.38507697
vn 0.00162161607 -0.6589172 -0.7522138
vn 0.0009184048 -0.6589185 -0.7522138
vn -0.000487507117 -0.896621644 -0.442797273
vn 1 0 0
vn 1 0 0
vn 1 0 0
vn 0.00490327133 0.5745644 0.818444669
vn -0.009295477 0.08856437 0.9960271
vn -0.006376297 0.574615359 0.8183988
vn 0.00441086246 0.0318059325 0.99948436
vn 0.007935459 0.0318868 0.999460042
vn -0.007989104 0.5271298 0.8497472
vn 0.00139865978 -6.91836249E-06 -0.999999046
vn -0.014077534 0.000339440565 -0.9999009
vn -0.014077534 0.000339440565 -0.9999009
vn -0.0181957278 9.000213E-05 -0.9998344
vn 0 0 -1
vn 0.000399395358 -0.00146546471 -0.999998868
vn -0.00179398584 0.0221739784 -0.9997525
vn 0 0 -1
vn -0.002494616 -0.02053856 -0.99978596
vn 0 0 -1
vn 0.000252490077 0.00228854385 -0.9999974
vn 0.0006827218 0.000657779165 -0.9999995
vn 0.0002811462 0.002451798 -0.99999696
vn 0.0002811462 0.002451798 -0.99999696
vn 0.0002811462 0.002451798 -0.99999696
vn 0.00339802937 0.009269052 -0.999951243
vn 0.00339802937 0.009269052 -0.999951243
vn 0 0 -1
vn 0 0 -1
vn 0.00174113177 -0.0010515016 -0.999998
vn 0.00113702915 -0.00161045848 -0.9999981
vn 0.00195949734 -0.00114498171 -0.999997437
vn 0.004215699 -0.000380663521 -0.999991059
vn 0.005443344 -6.269778E-05 -0.9999852
vn 0.001858124 0.000577301136 -0.9999981
vn 0.0010989008 0.000748627 -0.999999166
vn 0.000607201539 0.000906047761 -0.9999994
vn 0.0015390754 0.000474354223 -0.9999987
vn 0 0 -1
vn 0 0 -1
vn 0.0180111881 -0.019504996 -0.9996475
vn -0.000365626853 -0.00144192937 -0.9999989
vn -0.005863244 -0.0106100133 -0.999926567
vn -0.005863244 -0.0106100133 -0.999926567
vn 0 0 -1
vn -0.00117180508 -2.44886422E-07 -0.9999993
vn -0.000321105326 0.001209915 -0.9999992
vn -0.0009088699 0.00100294652 -0.9999991
vn -0.00235673273 0.0006414616 -0.999997
vn -0.00489614 0.000136941278 -0.999988
vn -0.00215893518 -0.0007124983 -0.999997437
vn -0.00215893518 -0.0007124983 -0.999997437
vn -0.00101747725 -0.00119881541 -0.9999988
vn -0.0004175649 -0.00156340923 -0.9999987
vn -0.000922546256 -2.36517121E-06 -0.9999996
vn 0.4806551 -0.0119093563 0.876828849
vn 0.8538312 0.0181377847 0.5202339
vn 0.4808853 -0.0244088639 0.8764437
vn 0.878495753 0.0255669113 0.477065533
vn 0.8785281 0.01446978 0.4774714
vn 0.5236498 -0.0009181703 0.8519331
vn 0.998262942 0.0263257343 0.052706752
vn 0.998262942 0.0263257343 0.052706752
vn 0.998262942 0.0263257343 0.052706752
vn 0.05786648 0.998321 -0.00257259374
vn 0.05786648 0.998321 -0.00257259374
vn 0.05786648 0.998321 -0.00257259374
vn 0.03462005 0.9980445 -0.0520456955
vn 0.03462005 0.9980445 -0.0520456955
vn 0.03462005 0.9980445 -0.0520456955
vn -0.2544252 0.9670908 0.00181381532
vn -0.2544252 0.9670908 0.00181381532
vn -0.2544252 0.9670908 0.00181381532
vn -0.255692244 0.966579258 -0.0186016634
vn -0.255692244 0.966579258 -0.0186016634
vn -0.255692244 0.966579258 -0.0186016634
vn -0.462384552 0.8866323 -0.009146868
vn -0.6442517 0.7647589 -0.009146871
vn -0.4641865 0.8851772 -0.0314996727
vn -0.660385549 0.7484333 0.0611436628
vn -0.6622027 0.748135865 0.04219337
vn -0.483359277 0.874404669 0.0421933569
vn -0.7592267 0.64970547 -0.0381801724
vn -0.8825355 0.468693227 -0.03818017
vn -0.759221256 0.6488852 -0.05031024
vn -0.909842253 0.405102372 0.0898843
vn -0.9103942 0.40521276 0.08357704
vn -0.799881935 0.5943095 0.0835770443
vn -0.913298547 0.398488343 -0.08421925
vn -0.978294551 0.189332888 -0.08421925
vn -0.915199339 0.397516131 -0.06626496
vn -0.9938492 -0.0177582223 0.109308548
vn -0.99101907 -0.02047471 0.132143751
vn -0.9713232 0.197659537 0.132143766
vn -0.99101907 0.020473415 -0.132143915
vn -0.971322954 -0.197660878 -0.132143915
vn -0.9938492 0.0177568775 -0.109308906
vn -0.915199459 -0.397516131 0.06626412
vn -0.913298666 -0.3984883 0.0842181742
vn -0.9782946 -0.189332858 0.0842181742
vn -0.91039443 -0.405212432 -0.0835757256
vn -0.7998823 -0.5943093 -0.0835757554
vn -0.909842551 -0.405102 -0.08988303
vn -0.7592213 -0.64888525 0.05030837
vn -0.759226739 -0.64970547 0.03817826
vn -0.882535636 -0.4686932 0.03817828
vn -0.6622386 -0.7481039 -0.0421963632
vn -0.483359277 -0.8744045 -0.0421965756
vn -0.6604208 -0.748401344 -0.06115501
vn -0.464185745 -0.8851775 0.0315033719
vn -0.462384135 -0.8866325 0.009150479
vn -0.6442878 -0.7647284 0.009150433
vn 0.491440564 0.862303138 0.122145541
vn 0.8573628 0.4964538 0.135877281
vn 0.491337836 0.8622321 0.123057015
vn 0.9932515 0.051433485 -0.103952296
vn 0.9897452 0.04938397 -0.134036392
vn 0.831899464 0.542109847 -0.118575931
vn 0.0112764612 0.999935746 0.00117318577
vn 0.0112764612 0.999935746 0.00117318577
vn 0.0112764612 0.999935746 0.00117318577
vn 0.00615944248 0.9982246 -0.059242662
vn 0.00615944248 0.9982246 -0.059242662
vn 0.00615944248 0.9982246 -0.059242662
vn 0.7671779 -0.0016025342 -0.641432464
vn 0.463330865 0.00120039331 -0.8861846
vn 0.767176032 -0.00281619653 -0.641430438
vn 0.405607045 0.002015841 -0.914045334
vn 0.4056055 0.000754494 -0.914047956
vn 0.7245077 -0.00242454861 -0.6892625
vn -0.9998259 -2.710839E-06 0.0186607428
vn -1 -1.94422014E-07 0
vn -1 -1.94422014E-07 0
vn -0.9998259 -2.710839E-06 0.0186607428
vn -0.9998259 -2.710839E-06 0.0186607428
vn -0.9996877 -0.0005380713 0.0249869879
vn -1 2.12239442E-07 0
vn -1 2.12239442E-07 0
vn -1 2.12239442E-07 0
vn 1 0 0
vn 1 0 0
vn 1 0 0
vn 1 0 0
vn 1 0 0
vn 1 0 0
vn -0.01761657 0.999521136 0.0254394636
vn -0.01761657 0.999521136 0.0254394636
vn -0.01761657 0.999521136 0.0254394636
vn 0.0103672994 0.9998394 0.0146160489
vn 0.0103672994 0.9998394 0.0146160489
vn 0.0103672994 0.9998394 0.0146160489
vn 0.111180045 0.9904441 -0.08160553
vn 0.111180045 0.9904441 -0.08160553
vn 0.111180045 0.9904441 -0.08160553
vn 0.6679855 0.002100763 -0.7441713
vn 0.9018957 -0.00167342531 -0.4319507
vn 0.6679784 0.00387944654 -0.744170547
vn 0.9228771 -0.00314549939 -0.385081828
vn 0.9228838 -0.00122507871 -0.385076672
vn 0.7053055 0.00375653082 -0.7088935
vn -0.00559439557 0.9999722 -0.00492036063
vn -0.00559439557 0.9999722 -0.00492036063
vn -0.00559439557 0.9999722 -0.00492036063
vn -0.0264895409 0.9993777 -0.0232898947
vn -0.0264895409 0.9993777 -0.0232898947
vn -0.0264895409 0.9993777 -0.0232898947
vn 0.0277654734 0.999398 -0.0208025724
vn 0.0277654734 0.999398 -0.0208025724
vn 0.0277654734 0.999398 -0.0208025724
vn -0.420509338 -0.0005977682 0.907288
vn -0.817702055 0.0103599029 0.5755485
vn -0.42045188 0.00809181 0.9072788
vn -0.91527015 -0.008968292 0.402740777
vn -0.915155 -0.0149272066 0.402825773
vn -0.5914464 0.00305757415 0.806338549
vn -0.013333994 -0.9998518 0.0108867111
vn -0.013333994 -0.9998518 0.0108867111
vn -0.013333994 -0.9998518 0.0108867111
vn 1 -1.59196634E-06 0
vn 1 -1.59196634E-06 0
vn 1 4.530085E-07 0
vn 1 -8.922358E-07 0
vn 1 3.58944476E-07 0
vn 1 0 0
vn 1 0 0
vn 1 0 0
vn 1 0 0
vn 1 0 0
vn 1 0 0
vn 1 0 0
vn 1 -5.8170815E-07 0
vn 1 5.35677771E-07 0
vn 1 0 0
vn 0.9999792 -0.000608297938 -0.00642211828
vn 0.999985039 0.0003189795 -0.00546230935
vn 1 0 0
vn 1 0 0
vn 1 0 0
vn 1 0 0
vn 1 0 0
vn 1 0 0
vn 1 5.35677771E-07 0
vn 1 0 0
vn 1 0 0
vn 1 0 0
vn 1 0 0
vn 1 0 0
vn 1 1.26563862E-06 0
vn 0.9994501 -0.02259849 -0.0242668968
vn 0.9994501 -0.02259849 -0.0242668968
vn 0.9994501 -0.02259849 -0.0242668968
vn 0.9992305 0.025978433 -0.029386159
vn 0.9992305 0.025978433 -0.029386159
vn 0.9992305 0.025978433 -0.029386159
vn 1 2.221651E-06 0
vn 1 2.221651E-06 0
vn 1 2.221651E-06 0
vn 0.0352833159 0.999377 -0.000855095743
vn 0.0352833159 0.999377 -0.000855095743
vn 0.0352833159 0.999377 -0.000855095743
vn -0.9991331 -0.02713266 0.03157301
vn -0.9991331 -0.02713266 0.03157301
vn -0.9991331 -0.02713266 0.03157301
vn -1 0 0
vn -1 0 0
vn -1 1.37797133E-06 0
vn -1 -1.64817686E-06 0
vn -1 -1.64817686E-06 0
vn -1 -1.64817686E-06 0
vn -1 2.684495E-06 0
vn -1 2.684495E-06 0
vn -1 2.684495E-06 0
vn -1 7.551769E-07 0
vn -1 0 0
vn -1 0 0
vn -1 -1.06511982E-06 0
vn -1 0 0
vn -1 0 0
vn -1 2.93234E-07 0
vn -1 7.551769E-07 0
vn -1 7.551769E-07 0
vn -1 8.333939E-07 0
vn -1 0 0
vn -1 0 0
vn -1 0 0
vn -1 0 0
vn -1 5.679461E-07 0
vn -1 0 0
vn -0.9999999 -0.000307629176 0.0003091617
vn -1 1.471915E-06 0
vn -0.9999999 -0.00030790054 0.000309016934
vn -0.9999863 0.00325791771 0.004097599
vn -0.9999863 0.00325791771 0.004097599
vn -0.9999999 -6.54779942E-05 0.0005130344
vn 0 -1 0
vn 0 -1 0
vn 0 -1 0
vn 0 -1 -6.711395E-07
vn 0 -1 -6.711395E-07
vn 0 -1 -6.711395E-07
vn -0.0418979563 -0.9831562 0.177900076
vn -0.0418979675 -0.8671549 -0.49627313
vn -0.07203636 -0.9816046 0.1768144
vn 0.03595108 -0.8273169 -0.560583949
vn 0 -0.8268514 -0.5624205
vn 0 -0.9949175 0.100693107
vn 0 -0.697420359 -0.7166623
vn 0 -0.073646456 -0.9972844
vn -0.03594635 -0.6956928 -0.717439532
vn 0.0720356554 0.00367847085 -0.9973953
vn 0.0418972261 0.004478455 -0.9991119
vn 0.04189796 -0.639273465 -0.7678373
vn -0.0494378768 0.435404569 -0.898876369
vn -0.0494378246 0.911707163 -0.4078554
vn -0.109817021 0.436871737 -0.8927952
vn 0.1098179 0.9550925 -0.275206149
vn 0.0494387671 0.960826457 -0.272705466
vn 0.04943873 0.559972048 -0.8270351
vn -0.0494399145 0.960826457 0.272705376
vn -0.0494398326 0.5599723 0.8270349
vn -0.109819166 0.95509243 0.2752058
vn 0.109819233 0.436873466 0.892794132
vn 0.0494400151 0.435406476 0.898875356
vn 0.0494398773 0.9117078 0.4078537
vn -0.0494388 -0.101714112 0.993584454
vn -0.0494396538 -0.7171975 0.6951141
vn -0.10981781 -0.105172575 0.9883718
vn 0.109809719 -0.803342938 0.585305
vn 0.04943852 -0.80958575 0.584916055
vn 0.0494376421 -0.2433438 0.968679368
vn 0.0469110124 0.91853565 0.392545074
vn 0.0469110273 0.998326838 0.033807043
vn 0.08765279 0.9176308 0.387647659
vn 0.013064824 0.9983369 0.0561487749
vn 0.0662570745 0.9966652 0.0476284474
vn 0.06625713 0.911821544 0.405205429
vn -0.01468273 0.9052006 -0.424730927
vn -0.08975668 0.8942467 -0.438482165
vn -0.0897566453 0.992387652 -0.08432408
vn 0.135272324 0.9361189 -0.3246272
vn 0.135272354 0.7534048 -0.6434926
vn 0.09805882 0.938675 -0.33056587
vn -0.09805713 0.415766954 -0.9041696
vn -0.135270357 0.4096178 -0.902172446
vn -0.135270432 0.710264 -0.690816164
vn 0.08975852 0.51911974 -0.8499754
vn 0.0897585154 0.1755272 -0.9803742
vn 0.0146854306 0.5064379 -0.8621514
vn 0.03994171 -0.5317101 -0.8459841
vn 0.0399417356 -0.8015911 -0.596537
vn 0.06189277 -0.532072 -0.844433963
vn -0.02617568 -0.822559536 -0.568076253
vn 0 -0.8238872 -0.566753864
vn 0 -0.5635122 -0.82610774
vn 0 -0.874574244 -0.484891653
vn 0 -0.990680039 -0.1362098
vn 0.02617572 -0.875166237 -0.483113766
vn -0.06189261 -0.993071139 -0.09989532
vn -0.0399415 -0.994297445 -0.0988803357
vn -0.0399415232 -0.8912977 -0.451656
vn 0.0399417169 -0.994297564 0.09887912
vn 0.03994173 -0.891298234 0.451654851
vn 0.0618929639 -0.993071258 0.099894
vn -0.0261758752 -0.875166237 0.483113766
vn 0 -0.874574244 0.484891653
vn 0 -0.990680039 0.136209726
vn 0 -0.8238879 0.566752851
vn 0 -0.5635132 0.8261071
vn 0.0261757 -0.8225602 0.5680753
vn -0.0618927963 -0.532071948 0.844433963
vn -0.0399417169 -0.5317101 0.8459841
vn -0.03994174 -0.801591158 0.596537
vn 0.04691104 -0.306117415 0.950837255
vn 0.0469110422 0.05845275 0.9971874
vn 0.0876527056 -0.301324219 0.949484468
vn -0.0876523852 0.121726036 0.9886859
vn -0.0469107665 0.126189053 0.9908964
vn -0.0469107777 -0.240690425 0.96946764
vn 0.0469120666 0.4143515 0.9089071
vn 0.0469120629 0.7149978 0.697551
vn 0.08765354 0.416982144 0.9046782
vn -0.0876538157 0.7560299 0.6486414
vn -0.04691231 0.7608171 0.6472686
vn -0.0469123 0.475253433 0.8785974
vn 0.0187493153 0.898625 0.438316733
vn -0.006167018 0.779248238 0.626685
vn 0.0108673023 0.8989116 0.4379952
vn -0.0255967 0.8870089 0.461042345
vn -0.0251184162 0.7631371 0.6457483
vn 0.03533167 0.6397705 0.7677535
vn 0.0261554513 0.453822434 0.8907082
vn 0.0276674945 0.6392933 0.7684651
vn -0.0261576716 0.6076366 0.7937844
vn -0.027669454 0.41732043 0.9083381
vn -0.03533358 0.416472554 0.908461452
vn -0.111572377 -0.05285496 0.992349744
vn -0.0192866921 -0.2511751 0.967749536
vn -0.00549162831 -0.239558712 0.9708664
vn 0.00548956543 -0.206414461 0.9784492
vn 0.111570135 -0.383886784 0.916615
vn 0.0192847326 -0.194598675 0.9806934
vn 0.0318185873 -0.7625075 0.6461965
vn 0.025597591 -0.8870093 0.46104148
vn 0.025119191 -0.7631376 0.6457477
vn -0.0109013263 -0.8989117 0.4379942
vn -0.01875125 -0.8986257 0.438315243
vn -0.243522584 0.9503631 0.193666592
vn -0.243522584 0.9503631 0.193666592
vn -0.243522584 0.9503631 0.193666592
vn 0.01778542 0.973974764 0.225957692
vn 0.01778542 0.973974764 0.225957692
vn 0.01778542 0.973974764 0.225957692
vn 0.00328660733 -0.445093274 0.8954782
vn -0.00464510173 -0.8331555 0.5530193
vn -0.00226537185 -0.445072 0.8954919
vn 0.00245670741 -0.8669703 0.49835372
vn 0.00870380551 -0.8668867 0.498429239
vn -0.006872299 -0.501747966 0.8649866
vn -0.000255710125 -0.004411751 0.9999902
vn -0.000255710125 -0.004411751 0.9999902
vn -0.000255710125 -0.004411751 0.9999902
vn 0.00720627327 0.06039273 0.9981487
vn 0.00720627327 0.06039273 0.9981487
vn 0.00720627327 0.06039273 0.9981487
vn 0.00223817723 0.0007660892 0.999997258
vn 0.00588162756 -0.000392290676 0.999982655
vn 0.00588162756 -0.000392290676 0.999982655
vn 0.00110586954 0.00121995213 0.9999987
vn 0.000959270867 -4.34108472E-07 0.9999995
vn 0.000431162975 0.00162481144 0.999998569
vn 0 0 1
vn 0.000959270867 -4.34108472E-07 0.9999995
vn 0.0130303837 -0.00287857675 0.999910951
vn 0.0130303837 -0.00287857675 0.999910951
vn 0.0130303837 -0.00287857675 0.999910951
vn 0.00450548576 4.76989544E-06 0.999989867
vn 0.00450548576 4.76989544E-06 0.999989867
vn 0.0009958935 -0.0007313245 0.9999993
vn 0.000261983281 -0.0009591866 0.9999995
vn 0.000261983281 -0.0009591866 0.9999995
vn 0.000932624156 -1.63907025E-05 0.9999996
vn 0 0 1
vn 0 0 1
vn 0 0 1
vn 0 0 1
vn 0 0 1
vn 0 0 1
vn 0 0 1
vn -0.001660421 -0.00247391127 0.9999956
vn -0.008963051 -0.000103173115 0.9999598
vn 0 0 1
vn 0 0 1
vn 0 0 1
vn 0.000432473549 -0.043344602 0.9990601
vn 0.000432473549 -0.043344602 0.9990601
vn -0.00157349173 -0.000508412137 0.9999987
vn -0.000655846 -0.0009289446 0.9999994
vn -0.00127260387 -0.000743642333 0.9999989
vn 0 0 1
vn 0 0 1
vn 0 0 1
vn -0.000181078212 -0.00135326677 0.999999046
vn 0.000234683015 -0.00312879076 0.9999951
vn 0.000234683015 -0.00312879076 0.9999951
vn 0.000234683015 -0.00312879076 0.9999951
vn -0.0034750558 -0.000313799479 0.9999939
vn -0.0034750558 -0.000313799479 0.9999939
vn -0.005033958 -6.341099E-05 0.999987364
vn -0.00225100457 0.000699512544 0.999997258
vn -0.00145819469 0.0009932615 0.99999845
vn -0.000884970243 0.001320705 0.999998748
vn -0.0014106367 0.0008517822 0.9999987
vn 0 0 1
vn -0.03353635 -0.00246988027 0.9994345
vn -0.03353635 -0.00246988027 0.9994345
vn -0.03353635 -0.00246988027 0.9994345
vn 0.0533255376 -0.00453086244 0.9985669
vn 0.0533255376 -0.00453086244 0.9985669
vn 0.0533255376 -0.00453086244 0.9985669
vn 0.015678674 0.9979778 0.06159916
vn 0.5135002 0.856354356 0.0545420051
vn 0.0468706973 0.996896267 -0.063253656
vn 0.839728534 0.5430057 0.0009328388
vn 0.9987283 0.0504082441 0.0009328367
vn 0.8432449 0.5318701 0.07779655
vn 0.99282825 0.0100379884 -0.119127281
vn 0.998741031 0.00190615666 -0.0501271375
vn 0.863651931 0.5015901 -0.0501270778
vn 0.902448952 -0.428656727 0.04288724
vn 0.5668229 -0.8227227 0.0428872257
vn 0.8983531 -0.4303753 0.08797043
vn 0.519166768 -0.8526228 -0.0591634
vn 0.516026855 -0.8565295 -0.008582165
vn 0.875159144 -0.483759075 -0.008582168
vn 0.000582747569 0.92288357 -0.385078669
vn -0.0009810614 0.7052691 -0.7089391
vn 0.00130613812 0.922883153 -0.385078
vn -0.0016216035 0.658918 -0.752213061
vn -0.000918401 0.658919454 -0.752212942
vn 0.000487505458 0.8966221 -0.44279626
vn -0.878528655 -0.01446964 0.477470428
vn -0.523650765 0.0009183007 0.8519325
vn -0.8784963 -0.0255668089 0.47706458
vn -0.480885446 0.0244102329 0.876443565
vn -0.480655044 0.0119106071 0.8768289
vn -0.8538313 -0.0181366336 0.52023375
vn -0.9993778 0.0260567628 0.0237715449
vn -0.9993778 0.0260567628 0.0237715449
vn -0.9993778 0.0260567628 0.0237715449
vn -0.999838233 0.005007938 0.0172768552
vn -0.999838233 0.005007938 0.0172768552
vn -0.999838233 0.005007938 0.0172768552
vn -0.997746 0.0299256146 0.06006172
vn -0.997746 0.0299256146 0.06006172
vn -0.997746 0.0299256146 0.06006172
vn 0.8720626 0.000833060942 0.489393622
vn 0.5105452 0.000833074562 0.8598505
vn 0.872057736 0.00251849019 0.489396572
vn 0.453404337 -0.0025137784 0.8913014
vn 0.453400761 -0.0007494425 0.89130646
vn 0.8383012 -0.000749452563 0.545206964
vn -0.00270590628 0.9999962 0.0005540759
vn -0.00270590628 0.9999962 0.0005540759
vn -0.00270590628 0.9999962 0.0005540759
vn -0.007723519 0.995687544 -0.0924482942
vn -0.007723519 0.995687544 -0.0924482942
vn -0.007723519 0.995687544 -0.0924482942
vn -0.8748347 0.484088421 0.017961394
vn -0.8772918 0.469542682 0.09944285
vn -0.523216665 0.847070336 0.09336072
vn -0.8160845 0.5634531 -0.128556237
vn -0.9858914 0.0749321 -0.1496773
vn -0.815341055 0.5633591 -0.133587047
vn 0.5093654 0.8501112 0.133633792
vn 0.8684972 0.477341235 0.133633748
vn 0.5087162 0.8493462 0.140779078
vn 0.987751 0.01438813 -0.155373812
vn 0.986097336 0.013696908 -0.165603235
vn 0.843331158 0.511241853 -0.16560322
vn 0.990561962 0.0521483 0.126758009
vn 0.8819628 -0.453953922 0.126758009
vn 0.9955745 0.0469092764 0.08143096
vn 0.5609437 -0.826466262 -0.04791318
vn 0.5578405 -0.8262142 -0.0786393
vn 0.89692986 -0.4351239 -0.07863931
vn 0.559631467 -0.8253946 0.07440746
vn 0.07033315 -0.9940397 0.0832966641
vn 0.559006155 -0.8242398 0.09022657
vn -0.1353246 -0.9888524 -0.0621144325
vn -0.135327145 -0.988908 -0.06121721
vn 0.37818858 -0.9239962 -0.0566077381
vn 0.451494336 0.00281477277 0.892269552
vn 0.451234758 -0.005399034 0.89238894
vn 0.8368653 -0.0143802837 0.54722
vn 0.578344643 0.009039278 0.815742433
vn 0.093112275 0.0237237327 0.995372951
vn 0.578403831 0.0145981517 0.815619946
vn -0.516027153 -0.856529236 0.008582164
vn -0.8751593 -0.483758748 0.008582165
vn -0.519167066 -0.8526226 0.0591634065
vn -0.898353159 -0.430376053 -0.08796649
vn -0.9024492 -0.4286567 -0.042883426
vn -0.566822767 -0.8227229 -0.0428834
vn -0.998861134 0.0136102755 0.04573004
vn -0.8574648 0.5114293 0.05651765
vn -0.992671 0.0212331433 0.118968219
vn -0.8441401 0.5323579 -0.0634236
vn -0.839646637 0.5429815 0.0128297554
vn -0.9986475 0.0503842272 0.0128297536
vn -0.0141364494 0.9982318 0.0577361062
vn 0.0162565075 0.9970379 -0.07517481
vn -0.4855581 0.872833431 -0.0489403121
vn 0.2564876 -0.966545761 0.00185106182
vn 0.2564876 -0.966545761 0.00185106182
vn 0.2564876 -0.966545761 0.00185106182
vn 0.2622658 -0.960242152 -0.09566439
vn 0.2622658 -0.960242152 -0.09566439
vn 0.2622658 -0.960242152 -0.09566439
vn 0.7616567 -0.645113 0.0608960129
vn 0.7670799 -0.629505455 0.123739064
vn 0.551324069 -0.825063944 0.123739049
vn 0.7007984 -0.6952799 -0.159585476
vn 0.873156846 -0.460575342 -0.159585491
vn 0.7073757 -0.6953614 -0.12685506
vn 0.986416936 -0.121061236 0.1110216
vn 0.9829993 -0.11665038 0.141792208
vn 0.906526864 -0.397623032 0.141792178
vn 0.972906649 -0.210818082 -0.0949125141
vn 0.992287636 0.07972972 -0.09491251
vn 0.9803299 -0.195251644 -0.0288123749
vn 0.7715871 0.6344756 -0.04576197
vn 0.5558315 0.8300345 -0.04576197
vn 0.768854558 0.6352586 -0.0728645846
vn 0.531415164 0.846112251 0.0411335565
vn 0.5290141 0.8485565 0.009798372
vn 0.751056 0.6601658 0.009798377
vn -0.07533971 0.9971539 0.00283746258
vn -0.07533971 0.9971539 0.00283746258
vn -0.07533971 0.9971539 0.00283746258
vn -0.0471405461 0.9976926 0.0488597453
vn -0.0471405461 0.9976926 0.0488597453
vn -0.0471405461 0.9976926 0.0488597453
vn -0.4993072 -0.866408348 0.00538086053
vn -0.865601 -0.500732958 -0.00121730042
vn -0.5039956 -0.8615586 0.06087062
vn -0.8243873 -0.5660202 -0.00259372639
vn -0.82832 -0.557563365 0.0548547469
vn -0.437369168 -0.8963524 0.0725305751
vn -0.993810356 0.111061126 0.00253790244
vn -0.9885916 0.126255915 -0.08213478
vn -0.9185786 -0.386609823 -0.08213478
vn -0.986097336 0.0136968782 0.1656032
vn -0.843331158 0.511241853 0.165603191
vn -0.987751 0.0143880984 0.155373782
vn -0.5087164 0.8493463 -0.140778571
vn -0.5093654 0.850111246 -0.133633271
vn -0.868497252 0.477341264 -0.133633226
vn -0.9441749 0.008109708 -0.329344869
vn -0.746405542 0.00335734547 -0.665482938
vn -0.944174051 0.008513788 -0.32933706
vn -0.6589078 -0.005331341 -0.7522049
vn -0.658923 -0.003053599 -0.752204239
vn -0.8965777 0.00143233826 -0.442884117
vn 1 0 0
vn 1 0 0
vn 1 0 0
vn 1 -2.2870266E-07 0
vn 1 -2.2870266E-07 0
vn 1 -2.2870266E-07 0
vn 1 -2.020249E-06 0
vn 1 -2.020249E-06 0
vn 1 -2.020249E-06 0
vn 1 2.319661E-06 0
vn 1 2.319661E-06 0
vn 1 2.319661E-06 0
vn 0.998197734 0 0.060010694
vn 0.998197734 0 0.060010694
vn 0.9989963 0.0030269837 0.04468994
vn 0.9989963 0.0030269837 0.04468994
vn 1 -7.76739171E-07 0
vn 1 0 0
vn 1 0 0
vn 1 0 0
vn 1 -4.941566E-07 0
vn 1 -4.941566E-07 0
vn 1 -5.07183756E-07 0
vn 1 5.135573E-07 0
vn 1 0 0
vn 1 0 0
vn 1 1.05719425E-06 0
vn 1 0 0
vn 1 1.03363982E-06 0
vn 1 1.03363982E-06 0
vn 0.03380481 0.9994023 -0.00724000065
vn 0.03380481 0.9994023 -0.00724000065
vn 0.03380481 0.9994023 -0.00724000065
vn 0.0195395444 0.9998003 -0.004187414
vn 0.0195395444 0.9998003 -0.004187414
vn 0.0195395444 0.9998003 -0.004187414
vn -0.06585298 0.992756546 0.100488178
vn -0.06585298 0.992756546 0.100488178
vn -0.06585298 0.992756546 0.100488178
vn 0 -1 8.08348659E-07
vn 0 -1 8.08348659E-07
vn 0 -1 8.08348659E-07
vn -0.99999994 8.163204E-05 -0.000386971631
vn -0.99999994 8.163204E-05 -0.000386971631
vn -0.99999994 8.163204E-05 -0.000386971631
vn -1 0 0
vn -1 0 0
vn -1 0 0
vn -1 0 0
vn -1 0 0
vn -1 0 0
vn -1 0 0
vn -1 0 0
vn -1 0 0
vn -0.99910444 5.88024341E-06 -0.04231202
vn -0.99910444 5.88024341E-06 -0.04231202
vn -0.9987979 0.0006927797 -0.0490135625
vn -0.9987979 0.0006927797 -0.0490135625
vn 0.0176177137 -0.999515355 0.025665747
vn 0.0176177137 -0.999515355 0.025665747
vn 0.0176177137 -0.999515355 0.025665747
vn -0.0101563586 -0.9998359 0.0150004849
vn -0.0101563586 -0.9998359 0.0150004849
vn -0.0101563586 -0.9998359 0.0150004849
vn 0.0783591941 -0.472130924 0.8780389
vn 0.07835913 0.0793570951 0.9937617
vn 0.0464442372 -0.470881045 0.880973339
vn -0.0464445464 0.470882148 0.880972743
vn -0.07835959 0.47213167 0.8780384
vn -0.0783596039 -0.07935609 0.9937617
vn 0.06383448 0.4168468 0.906732559
vn 0.06383453 0.8415535 0.5363887
vn 0.0476888642 0.417904377 0.9072385
vn -0.0476913564 0.9574635 0.284585983
vn -0.06383429 0.956812441 0.283611029
vn -0.06383337 0.6506924 0.7566536
vn 0.07835978 0.9362936 0.342365324
vn 0.0783595443 0.9723525 -0.219978228
vn 0.04644378 0.9390205 0.340710163
vn -0.079319 0.7180405 -0.6914668
vn -0.127097115 0.7104556 -0.6921699
vn -0.127097115 0.972836137 -0.193484455
vn 0.08160958 0.8373006 -0.5406178
vn 0.08160974 0.410285622 -0.9082982
vn -0.00620154664 0.8314781 -0.5555229
vn -0.06504978 0.2055593 -0.976480365
vn -0.06504979 -0.3561925 -0.9321456
vn 0.00395335257 0.196596444 -0.9804765
vn -0.0462812856 -0.334893078 -0.941118836
vn -0.0462812781 0.227723911 -0.972625256
vn 0.04627965 -0.7169528 -0.6955838
vn 0.0462795943 -0.9793312 -0.196897358
vn 0.101383545 -0.7171376 -0.689518034
vn -0.101383604 -0.990728 -0.09043982
vn -0.0462796427 -0.9951913 -0.08632806
vn -0.04627961 -0.7901296 -0.6111902
vn 0.03929666 -0.9579212 0.2843285
vn 0.039296113 -0.6518012 0.757371068
vn 0.06733208 -0.956195354 0.2848803
vn -0.1033884 -0.489203 0.8660204
vn -0.0864177942 -0.4899459 0.86745894
vn -0.0864177346 -0.8821917 0.46289286
vn -0.0161441881 0.874394 0.4849479
vn -0.007975432 0.689976454 0.723787844
vn -0.0252676122 0.874468 0.4844246
vn 0.0342768952 0.6528469 0.756714046
vn 0.025493864 0.653576851 0.756430745
vn 0.0214256141 0.849386334 0.527336538
vn -0.0291966647 0.465200484 0.8847237
vn -0.0202292316 0.181146115 0.9832481
vn -0.04037088 0.465771347 0.883983731
vn 0.0403728932 0.124239244 0.9914306
vn 0.02919867 0.1251307 0.991710544
vn 0.0202313643 0.414429724 0.909856439
vn -0.0291986763 -0.125130147 0.9917106
vn -0.02023138 -0.414429218 0.9098567
vn -0.04037287 -0.124238715 0.9914307
vn 0.04037292 -0.4657723 0.883983135
vn 0.0291987546 -0.465201616 0.884723067
vn 0.0202314332 -0.181147292 0.9832479
vn -0.0254926216 -0.653576851 0.756430745
vn -0.0214244686 -0.8493864 0.5273365
vn -0.0342757 -0.6528469 0.756714046
vn 0.0252675563 -0.874468446 0.484423846
vn 0.016144095 -0.8743944 0.484947175
vn 0.007975412 -0.6899771 0.7237873
vn -0.229122311 0.9579297 0.17284
vn -0.229122311 0.9579297 0.17284
vn -0.229122311 0.9579297 0.17284
vn 0.0269797649 0.978237331 0.205727756
vn 0.0269797649 0.978237331 0.205727756
vn 0.0269797649 0.978237331 0.205727756
vn 0.03492401 0.999388754 0.00156239944
vn 0.03492401 0.999388754 0.00156239944
vn 0.03492401 0.999388754 0.00156239944
vn 0 -1 0
vn 0 -1 0
vn 0 -1 0
vn 0 -1 -3.81354141E-07
vn 0 -1 -3.81354141E-07
vn 0 -1 -3.81354141E-07
vn -0.0269793924 -0.978237152 0.2057285
vn -0.0269793924 -0.978237152 0.2057285
vn -0.0269793924 -0.978237152 0.2057285
vn 0 -0.9791982 0.202906013
vn 0 -0.9791982 0.202906013
vn 0 -0.9791982 0.202906013
vn 4.11238725E-05 -0.9998349 -0.0181702767
vn 0.000922786 -0.9996263 -0.027323341
vn 4.11238725E-05 -0.9998349 -0.0181702767
vn 4.11238725E-05 -0.9998349 -0.0181702767
vn 0 -1 -8.6147E-07
vn 0 -1 -8.6147E-07
vn -0.0006056079 0.0177423265 0.9998424
vn -0.0006056079 0.0177423265 0.9998424
vn -0.0006056079 0.0177423265 0.9998424
vn 0.0006055987 -0.0177421775 0.9998424
vn -0.99952507 -0.0289338361 0.0106087578
vn -0.99952507 -0.0289338361 0.0106087578
vn -0.99952507 -0.0289338361 0.0106087578
vn -0.999222636 -0.0333712623 0.0209890958
vn 0.00136185018 -0.414719075 -0.909948468
vn -0.00121606269 -0.03494044 -0.9993887
vn -0.00210411032 -0.4147401 -0.9099375
vn 0.00287621375 0.00292621576 -0.9999916
vn 0.999608457 -0.02766224 0.00421649544
vn 0.999608457 -0.02766224 0.00421649544
vn 0.999608457 -0.02766224 0.00421649544
vn 0.999048769 -0.03716626 0.0228083823
vn 0 0 -1
vn 0 0 -1
vn 0 0 -1
vn -0.0229162928 0.005897649 -0.99972
vn -0.003633742 -0.999836266 0.0177276339
vn -0.003633742 -0.999836266 0.0177276339
vn -0.003633742 -0.999836266 0.0177276339
vn -0.00273047038 -0.999996245 0.000282865018
vn 0.02416515 -0.9997058 0.00210281159
vn 0.02416515 -0.9997058 0.00210281159
vn 0.02416515 -0.9997058 0.00210281159
vn 0.03466172 -0.9992447 -0.0175677352
vn 0.9993019 -0.02583525 0.02698624
vn 0.9993019 -0.02583525 0.02698624
vn 0.9993019 -0.02583525 0.02698624
vn 0.999866247 0.001697887 0.0162691157
vn 1 -3.0911774E-06 0
vn 1 -3.0911774E-06 0
vn 1 -3.0911774E-06 0
vn 0.9998455 -0.0171889719 -0.00368095026
vn -0.2544252 -0.9670908 -0.00181381532
vn -0.2544252 -0.9670908 -0.00181381532
vn -0.2544252 -0.9670908 -0.00181381532
vn -0.255692363 -0.9665792 0.01860165
vn -0.865064144 -0.000269978947 0.501661241
vn -0.498350769 -0.000269990473 0.8669754
vn -0.865057766 -0.00235932926 0.5016668
vn -0.461972147 0.0007847757 0.8868941
vn 0 1 0
vn 0 1 0
vn 0 1 0
vn 0 1 0
vn 0 -1 0
vn 0 -1 0
vn 0 -1 0
vn 0 -1 0
vn 0.999312639 -5.321905E-06 -0.0370707028
vn 0.999312639 -5.321905E-06 -0.0370707028
vn 0.999312639 -5.321905E-06 -0.0370707028
vn 0.9984943 0.00175908918 -0.0548272952
vn -0.011764206 0.871731 0.4898435
vn 0.0222220551 0.5115282 0.8589791
vn -0.025985973 0.871258 0.490137
vn 0.0117675131 0.489846438 0.8717293
vn 0.0177423265 0.0005630784 0.9998424
vn 0.0177423265 0.0005630784 0.9998424
vn 0.0177423265 0.0005630784 0.9998424
vn -0.0177423339 -0.0005630783 0.9998424
vn -0.0117661627 -0.489846528 0.8717293
vn 0.0221302379 -0.85896343 0.511558533
vn -0.0259880256 -0.490139931 0.8712563
vn 0.0117663061 -0.871731043 0.489843458
vn 0.0176435765 -0.999631047 0.0206523016
vn 0.0176435765 -0.999631047 0.0206523016
vn 0.0176435765 -0.999631047 0.0206523016
vn 0.009618571 -0.999783 0.0184796769
vn 0.004480169 -5.21888178E-05 -0.99999
vn 0.3867613 -0.004785729 -0.9221675
vn 0.00449031638 0.00252186158 -0.999986768
vn 0.423611552 -0.00286586187 -0.905839443
vn -0.0237944759 -0.9997066 -0.004531764
vn -0.0237944759 -0.9997066 -0.004531764
vn -0.0237944759 -0.9997066 -0.004531764
vn 0 -1 1.54626071E-06
vn -1 0 0
vn -1 0 0
vn -1 0 0
vn -1 -5.40612461E-07 0
vn -0.0662545562 0.0445373841 -0.9968083
vn -0.06625454 -0.319342583 -0.9453204
vn -0.0130618885 0.0362075642 -0.999258935
vn -0.0469120219 -0.3061169 -0.9508374
vn -0.01778711 -0.9739749 0.2259572
vn -0.01778711 -0.9739749 0.2259572
vn -0.01778711 -0.9739749 0.2259572
vn 0 -0.97453 0.224257484
vn 0.0353329331 0.242301866 0.969557345
vn 0.0261570066 0.0213896986 0.999429
vn 0.0276687667 0.241562784 0.9699907
vn 0.0277619977 0.03350529 0.9990529
vn -0.01755808 -0.467998654 0.883554757
vn -0.07756704 -0.6440793 0.7610159
vn -0.02776303 -0.464572161 0.885099947
vn -0.02763762 -0.639290631 0.76846844
vn 0.0006055928 -0.0177420061 0.9998424
vn 0.0006055928 -0.0177420061 0.9998424
vn 0.0006055928 -0.0177420061 0.9998424
vn -0.0006056136 0.0177424923 0.9998424
vn -0.0008478318 -0.999653935 0.0262931176
vn -0.0008478318 -0.999653935 0.0262931176
vn -0.0008478318 -0.999653935 0.0262931176
vn -3.92995462E-05 -0.99984926 0.0173628367
vn 0 -1 0
vn 0 -1 -4.09198265E-06
vn -0.001409766 0.416979253 -0.9089149
vn 0.00122599571 0.03742455 -0.9992987
vn 0.00209840853 0.4170007 -0.9089038
vn -0.00296738325 -0.001595661 -0.999994338
vn 0 1 0
vn 0 1 0
vn 0 1 0
vn 0 1 5.318607E-06
vn -4.112109E-05 0.999834955 -0.0181681532
vn -0.0009228065 0.9996263 -0.0273226555
vn -1 0 0
vn -1 0 0
vn -1 0 0
vn -0.99921906 -0.03938115 -0.00323217758
vn 0.006181912 -0.999824 -0.0177147277
vn 0.006181912 -0.999824 -0.0177147277
vn 0.006181912 -0.999824 -0.0177147277
vn 0.00449809339 -0.9999895 0.0009254488
vn -0.0328223445 -0.99945873 -0.00224445085
vn -0.0328223445 -0.99945873 -0.00224445085
vn -0.0328223445 -0.99945873 -0.00224445085
vn -0.04718924 -0.998732746 0.0174947232
vn 0.980935633 0.181803912 0.06864849
vn 0.886653066 0.457311451 0.06864847
vn 0.981672764 0.188757434 0.0262527317
vn 0.892762 0.447902769 0.0485712178
vn 0.256487846 0.966545761 -0.00184205535
vn 0.256487846 0.966545761 -0.00184205535
vn 0.256487846 0.966545761 -0.00184205535
vn 0.257994145 0.96594 0.0199727472
vn -0.388483673 -0.00156030711 -0.9214543
vn -0.00654376624 -0.000965606538 -0.9999781
vn -0.38859275 0.008630191 -0.921369255
vn 0.000694215356 -0.00211992743 -0.9999975
vn -0.760320544 0.00117130845 -0.649547
vn -0.453892022 -0.0024316865 -0.8910534
vn -0.7603159 0.00254733954 -0.649548531
vn -0.41487 -0.0007772569 -0.90988034
vn 0 -1 0
vn 0 -1 0
vn 0 -1 0
vn 0 -1 0
vn 0.9998537 2.60286834E-06 0.0171080437
vn 1 -2.07289162E-07 0
vn 0.9998537 2.60286834E-06 0.0171080437
vn 0.9998537 2.60286834E-06 0.0171080437
vn 0.9996455 -0.000790035469 0.0266144853
vn 0 1 0
vn 0 1 0
vn 0 1 0
vn 0 1 0
vn -0.028634306 -0.999580443 0.004364774
vn -0.028634306 -0.999580443 0.004364774
vn -0.028634306 -0.999580443 0.004364774
vn -0.0375840738 -0.9990485 0.0221265145
vn -0.99999994 0.0002063868 -0.000312278047
vn -0.9999999 0.000375728268 -0.0002427161
vn -0.99999994 0.0002063868 -0.000312278047
vn -0.99999994 0.0002063868 -0.000312278047
vn -1 0 0
vn -1 0 0
vn -1 5.168194E-07 0
vn -1 5.168194E-07 0
vn -0.998994768 -0.00688971 -0.044293642
vn -1 0 0
vn -1 0 0
vn -1 0 0
vn -1 0 0
vn -1 -7.70746169E-07 0
vn -1 -7.70746169E-07 0
vn -1 0 0
vn -1 0 0
vn -1 0 0
vn -1 0 0
vn 0.0117663061 -0.871731043 0.489843458
vn -0.0221301876 -0.5115616 0.858961642
vn 0.0259881839 -0.871257961 0.490136921
vn -0.0117661627 -0.489846528 0.8717293
vn -0.0177423246 -0.0005630783 0.9998424
vn -0.0177423246 -0.0005630783 0.9998424
vn -0.0177423246 -0.0005630783 0.9998424
vn 0.0177422874 0.0005630784 0.9998424
vn 0.0117673678 0.4898465 0.8717293
vn -0.0222130585 0.858956635 0.511566341
vn 0.0259891227 0.4901399 0.871256232
vn -0.0117642218 0.8717292 0.489846677
vn -0.0176441111 0.999642968 0.0200656485
vn -0.0176441111 0.999642968 0.0200656485
vn -0.0176441111 0.999642968 0.0200656485
vn -0.0101520643 0.9997835 0.01816285
f 1//1 2//2 3//3
f 4//4 5//5 6//6
f 7//7 8//8 9//9
f 10//10 11//11 12//12
f 13//13 14//14 15//15
f 16//16 17//17 18//18
f 19//19 20//20 21//21
f 22//22 23//23 24//24
f 25//25 26//26 27//27
f 28//28 29//29 30//30
f 31//31 32//32 33//33
f 34//34 35//35 36//36
f 37//37 38//38 39//39
f 40//40 37//37 41//41
f 42//42 40//40 41//41
f 42//42 43//43 40//40
f 44//44 45//45 46//46
f 47//47 48//48 49//49
f 50//50 51//51 52//52
f 53//53 54//54 55//55
f 56//56 57//57 58//58
f 59//59 60//60 61//61
f 62//62 63//63 64//64
f 62//62 65//65 66//66
f 67//67 62//62 66//66
f 62//62 67//67 68//68
f 68//68 69//69 62//62
f 70//70 67//67 66//66
f 71//71 70//70 66//66
f 72//72 71//71 66//66
f 72//72 66//66 73//73
f 74//74 72//72 73//73
f 74//74 73//73 75//75
f 76//76 74//74 75//75
f 77//77 76//76 75//75
f 77//77 78//78 76//76
f 77//77 79//79 78//78
f 68//68 80//80 69//69
f 79//79 81//81 78//78
f 79//79 82//82 81//81
f 82//82 83//83 81//81
f 83//83 84//84 81//81
f 84//84 85//85 81//81
f 84//84 86//86 85//85
f 86//86 87//87 85//85
f 87//87 88//88 85//85
f 88//88 89//89 85//85
f 88//88 90//90 89//89
f 90//90 91//91 89//89
f 91//91 92//92 89//89
f 91//91 93//93 92//92
f 80//80 94//94 69//69
f 94//94 95//95 93//93
f 94//94 80//80 95//95
f 80//80 96//96 95//95
f 96//96 97//97 95//95
f 96//96 98//98 97//97
f 98//98 99//99 97//97
f 99//99 100//100 97//97
f 100//100 101//101 97//97
f 102//102 103//103 101//101
f 103//103 104//104 101//101
f 104//104 105//105 101//101
f 105//105 106//106 101//101
f 107//107 108//108 109//109
f 110//110 111//111 112//112
f 113//113 114//114 115//115
f 116//116 117//117 118//118
f 119//119 120//120 121//121
f 122//122 123//123 124//124
f 125//125 126//126 127//127
f 128//128 129//129 130//130
f 131//131 132//132 133//133
f 134//134 135//135 136//136
f 137//137 138//138 139//139
f 140//140 141//141 142//142
f 143//143 144//144 145//145
f 146//146 147//147 148//148
f 149//149 150//150 151//151
f 152//152 153//153 154//154
f 155//155 156//156 157//157
f 158//158 159//159 160//160
f 161//161 162//162 163//163
f 164//164 165//165 166//166
f 167//167 168//168 169//169
f 170//170 171//171 172//172
f 173//173 174//174 175//175
f 176//176 177//177 178//178
f 179//179 180//180 181//181
f 182//182 183//183 184//184
f 182//182 185//185 186//186
f 185//185 182//182 187//187
f 188//188 189//189 190//190
f 191//191 192//192 193//193
f 194//194 195//195 196//196
f 197//197 198//198 199//199
f 200//200 201//201 202//202
f 203//203 204//204 205//205
f 206//206 207//207 208//208
f 209//209 210//210 211//211
f 212//212 213//213 214//214
f 215//215 216//216 217//217
f 218//218 219//219 220//220
f 221//221 222//222 223//223
f 224//224 225//225 226//226
f 227//227 228//228 229//229
f 230//230 231//231 232//232
f 233//233 232//232 234//234
f 235//235 233//233 234//234
f 235//235 234//234 236//236
f 237//237 235//235 236//236
f 237//237 236//236 238//238
f 238//238 239//239 237//237
f 238//238 240//240 239//239
f 238//238 241//241 240//240
f 241//241 242//242 240//240
f 235//235 243//243 244//244
f 242//242 245//245 246//246
f 247//247 242//242 246//246
f 248//248 247//247 249//249
f 248//248 249//249 250//250
f 251//251 248//248 250//250
f 252//252 251//251 250//250
f 252//252 250//250 253//253
f 243//243 252//252 253//253
f 254//254 243//243 253//253
f 255//255 254//254 232//232
f 255//255 256//256 254//254
f 256//256 257//257 254//254
f 257//257 258//258 254//254
f 258//258 257//257 259//259
f 260//260 261//261 262//262
f 263//263 264//264 265//265
f 266//266 267//267 268//268
f 269//269 270//270 271//271
f 272//272 273//273 274//274
f 275//275 276//276 277//277
f 278//278 277//277 279//279
f 280//280 278//278 279//279
f 281//281 282//282 283//283
f 284//284 282//282 285//285
f 282//282 286//286 285//285
f 282//282 287//287 286//286
f 286//286 287//287 288//288
f 289//289 286//286 288//288
f 289//289 288//288 290//290
f 284//284 291//291 292//292
f 284//284 293//293 291//291
f 293//293 294//294 291//291
f 294//294 295//295 291//291
f 294//294 296//296 295//295
f 297//297 294//294 298//298
f 299//299 297//297 298//298
f 299//299 298//298 300//300
f 301//301 299//299 300//300
f 302//302 301//301 300//300
f 302//302 300//300 303//303
f 304//304 290//290 303//303
f 305//305 302//302 303//303
f 290//290 305//305 303//303
f 306//306 307//307 308//308
f 309//309 310//310 311//311
f 312//312 313//313 314//314
f 315//315 316//316 317//317
f 318//318 319//319 320//320
f 321//321 322//322 323//323
f 324//324 325//325 326//326
f 327//327 328//328 329//329
f 330//330 331//331 332//332
f 333//333 334//334 335//335
f 336//336 337//337 338//338
f 339//339 340//340 341//341
f 342//342 343//343 344//344
f 345//345 346//346 347//347
f 348//348 349//349 350//350
f 351//351 352//352 353//353
f 354//354 355//355 356//356
f 357//357 358//358 359//359
f 360//360 361//361 362//362
f 363//363 364//364 365//365
f 366//366 367//367 368//368
f 369//369 370//370 371//371
f 372//372 373//373 374//374
f 375//375 376//376 377//377
f 378//378 379//379 380//380
f 381//381 382//382 383//383
f 384//384 385//385 386//386
f 387//387 388//388 389//389
f 390//390 391//391 392//392
f 393//393 394//394 395//395
f 396//396 397//397 398//398
f 399//399 400//400 397//397
f 401//401 402//402 403//403
f 404//404 405//405 406//406
f 407//407 408//408 409//409
f 410//410 411//411 412//412
f 413//413 414//414 415//415
f 413//413 416//416 417//417
f 418//418 419//419 420//420
f 421//421 422//422 423//423
f 424//424 425//425 426//426
f 427//427 428//428 429//429
f 430//430 431//431 432//432
f 433//433 434//434 435//435
f 436//436 437//437 438//438
f 439//439 436//436 440//440
f 441//441 439//439 440//440
f 442//442 441//441 440//440
f 442//442 440//440 443//443
f 444//444 442//442 445//445
f 446//446 444//444 445//445
f 447//447 448//448 440//440
f 447//447 449//449 448//448
f 450//450 451//451 448//448
f 451//451 452//452 448//448
f 451//451 453//453 452//452
f 453//453 454//454 452//452
f 453//453 455//455 454//454
f 453//453 456//456 455//455
f 456//456 457//457 455//455
f 456//456 458//458 457//457
f 458//458 459//459 457//457
f 458//458 460//460 459//459
f 459//459 461//461 457//457
f 454//454 462//462 452//452
f 462//462 454//454 463//463
f 463//463 464//464 462//462
f 452//452 462//462 465//465
f 466//466 452//452 465//465
f 464//464 467//467 462//462
f 464//464 468//468 467//467
f 468//468 469//469 467//467
f 459//459 470//470 471//471
f 472//472 459//459 471//471
f 472//472 471//471 473//473
f 474//474 472//472 473//473
f 474//474 473//473 475//475
f 475//475 476//476 474//474
f 469//469 477//477 478//478
f 477//477 479//479 478//478
f 477//477 480//480 479//479
f 480//480 481//481 479//479
f 481//481 482//482 479//479
f 482//482 483//483 479//479
f 484//484 476//476 483//483
f 482//482 484//484 483//483
f 485//485 486//486 487//487
f 488//488 489//489 490//490
f 491//491 492//492 493//493
f 494//494 495//495 496//496
f 497//497 498//498 499//499
f 500//500 501//501 502//502
f 503//503 504//504 505//505
f 506//506 507//507 508//508
f 509//509 510//510 511//511
f 512//512 513//513 514//514
f 515//515 516//516 517//517
f 518//518 519//519 520//520
f 521//521 522//522 523//523
f 524//524 525//525 526//526
f 527//527 528//528 529//529
f 530//530 531//531 532//532
f 533//533 534//534 535//535
f 536//536 537//537 538//538
f 539//539 540//540 541//541
f 542//542 543//543 544//544
f 545//545 546//546 547//547
f 548//548 549//549 550//550
f 551//551 552//552 553//553
f 554//554 555//555 556//556
f 557//557 558//558 559//559
f 560//560 561//561 562//562
f 563//563 564//564 565//565
f 566//566 567//567 568//568
f 569//569 570//570 571//571
f 572//572 573//573 574//574
f 575//575 576//576 577//577
f 578//578 579//579 580//580
f 581//581 582//582 583//583
f 584//584 585//585 586//586
f 587//587 588//588 589//589
f 590//590 591//591 592//592
f 593//593 594//594 595//595
f 596//596 597//597 598//598
f 599//599 600//600 601//601
f 602//602 603//603 604//604
f 605//605 606//606 607//607
f 608//608 609//609 610//610
f 611//611 612//612 613//613
f 614//614 615//615 616//616
f 617//617 618//618 619//619
f 620//620 621//621 622//622
f 623//623 624//624 625//625
f 626//626 627//627 628//628
f 629//629 630//630 631//631
f 632//632 633//633 634//634
f 635//635 636//636 637//637
f 638//638 639//639 640//640
f 641//641 642//642 643//643
f 644//644 645//645 646//646
f 647//647 648//648 649//649
f 650//650 651//651 649//649
f 652//652 653//653 651//651
f 653//653 654//654 651//651
f 655//655 651//651 656//656
f 655//655 656//656 657//657
f 654//654 658//658 659//659
f 660//660 654//654 659//659
f 660//660 659//659 661//661
f 662//662 657//657 663//663
f 664//664 663//663 661//661
f 664//664 662//662 663//663
f 665//665 666//666 667//667
f 668//668 669//669 670//670
f 671//671 672//672 673//673
f 674//674 675//675 676//676
f 677//677 678//678 679//679
f 680//680 681//681 682//682
f 683//683 684//684 685//685
f 686//686 687//687 688//688
f 688//688 689//689 690//690
f 689//689 691//691 692//692
f 693//693 694//694 695//695
f 696//696 697//697 698//698
f 699//699 700//700 701//701
f 702//702 703//703 704//704
f 705//705 706//706 707//707
f 708//708 709//709 710//710
f 711//711 712//712 713//713
f 714//714 715//715 716//716
f 717//717 718//718 719//719
f 720//720 721//721 722//722
f 721//721 723//723 724//724
f 725//725 726//726 727//727
f 728//728 729//729 730//730
f 731//731 732//732 733//733
f 734//734 735//735 736//736
f 737//737 738//738 739//739
f 740//740 741//741 742//742
f 743//743 744//744 745//745
f 746//746 747//747 748//748
f 749//749 750//750 751//751
f 752//752 753//753 754//754
f 755//755 756//756 757//757
f 758//758 759//759 760//760
f 761//761 762//762 763//763
f 764//764 765//765 766//766
f 767//767 768//768 769//769
f 770//770 771//771 772//772
f 773//773 774//774 775//775
f 776//776 777//777 778//778
f 779//779 780//780 781//781
f 782//782 783//783 784//784
f 785//785 782//782 784//784
f 785//785 784//784 786//786
f 785//785 786//786 787//787
f 788//788 789//789 790//790
f 789//789 791//791 790//790
f 792//792 793//793 794//794
f 793//793 795//795 794//794
f 796//796 797//797 798//798
f 797//797 799//799 798//798
f 800//800 801//801 802//802
f 800//800 803//803 801//801
f 804//804 805//805 806//806
f 805//805 807//807 806//806
f 808//808 809//809 810//810
f 809//809 811//811 810//810
f 812//812 813//813 814//814
f 813//813 815//815 814//814
f 816//816 817//817 818//818
f 817//817 819//819 818//818
f 820//820 821//821 822//822
f 820//820 823//823 821//821
f 824//824 825//825 826//826
f 825//825 827//827 826//826
f 828//828 829//829 830//830
f 829//829 831//831 830//830
f 832//832 833//833 834//834
f 832//832 835//835 833//833
f 836//836 837//837 838//838
f 837//837 839//839 838//838
f 840//840 841//841 842//842
f 841//841 843//843 842//842
f 844//844 845//845 846//846
f 845//845 847//847 846//846
f 848//848 849//849 850//850
f 849//849 851//851 850//850
f 852//852 853//853 854//854
f 853//853 855//855 854//854
f 856//856 857//857 858//858
f 857//857 859//859 858//858
f 860//860 861//861 862//862
f 861//861 863//863 862//862
f 864//864 865//865 866//866
f 864//864 867//867 865//865
f 868//868 869//869 870//870
f 868//868 871//871 869//869
f 872//872 873//873 874//874
f 873//873 875//875 874//874
f 876//876 877//877 878//878
f 877//877 879//879 878//878
f 880//880 881//881 882//882
f 880//880 883//883 881//881
f 884//884 885//885 886//886
f 884//884 887//887 885//885
f 888//888 889//889 890//890
f 889//889 891//891 890//890
f 892//892 893//893 894//894
f 893//893 895//895 894//894
f 893//893 896//896 895//895
f 896//896 897//897 895//895
f 898//898 899//899 900//900
f 899//899 901//901 900//900
f 902//902 903//903 904//904
f 902//902 905//905 903//903
f 902//902 906//906 905//905
f 906//906 907//907 905//905
f 908//908 909//909 910//910
f 909//909 911//911 910//910
f 912//912 913//913 914//914
f 913//913 915//915 914//914
f 916//916 917//917 918//918
f 917//917 919//919 918//918
f 920//920 921//921 922//922
f 921//921 923//923 922//922
f 924//924 925//925 926//926
f 925//925 927//927 926//926
f 928//928 929//929 930//930
f 929//929 931//931 930//930
f 932//932 933//933 934//934
f 933//933 935//935 934//934
f 936//936 937//937 938//938
f 936//936 939//939 937//937
f 940//940 941//941 942//942
f 943//943 940//940 942//942
f 940//940 943//943 944//944
f 945//945 946//946 947//947
f 946//946 948//948 947//947
f 949//949 950//950 951//951
f 949//949 952//952 950//950
f 953//953 954//954 955//955
f 956//956 953//953 955//955
f 956//956 955//955 957//957
f 955//955 958//958 957//957
f 959//959 960//960 957//957
f 961//961 962//962 953//953
f 963//963 953//953 964//964
f 965//965 963//963 964//964
f 966//966 967//967 960//960
f 966//966 968//968 967//967
f 969//969 962//962 970//970
f 971//971 970//970 967//967
f 971//971 969//969 970//970
f 972//972 973//973 974//974
f 973//973 975//975 974//974
f 976//976 977//977 978//978
f 977//977 979//979 978//978
f 980//980 981//981 982//982
f 981//981 983//983 982//982
f 984//984 985//985 986//986
f 985//985 987//987 986//986
