# Generated from the Unity FBX import by robot-human-interface
o foot_rl.obj
v -0.121274993 -0.107625 0.00176722347
v -0.121274993 -0.120577328 0.0642735
v -0.114274994 -0.107625 0.00176722347
v -0.121274993 -0.120577328 0.0642735
v -0.114274994 -0.120937265 0.06506696
v -0.114274994 -0.107625 0.00176722347
v -0.120910637 -0.107625 -0.0106220553
v -0.121274993 -0.107625 0.00176722347
v -0.113088839 -0.107625 -0.0116554555
v -0.121274993 -0.107625 0.00176722347
v -0.114274994 -0.107625 0.00176722347
v -0.113088839 -0.107625 -0.0116554555
v -0.121274993 -0.172375 0.00176722347
v -0.120693445 -0.172375 -0.0113489553
v -0.114229091 -0.172594771 -0.008385939
v -0.121274993 -0.159062743 0.06506698
v -0.121274993 -0.172375 0.00176722347
v -0.114274994 -0.159422666 0.06427352
v -0.121274993 -0.172375 0.00176722347
v -0.114229091 -0.172594771 -0.008385939
v -0.114274994 -0.159422666 0.06427352
v -0.114274994 -0.159422666 0.06427352
v -0.114274994 -0.152622432 0.07306641
v -0.121274993 -0.159062743 0.06506698
v -0.114274994 -0.152622432 0.07306641
v -0.121274993 -0.1516591 0.0737391338
v -0.121274993 -0.159062743 0.06506698
v -0.114274994 -0.152622432 0.07306641
v -0.114274994 -0.140587479 0.0772223
v -0.121274993 -0.1516591 0.0737391338
v -0.114274994 -0.140587479 0.0772223
v -0.121274993 -0.1394125 0.0772223
v -0.121274993 -0.1516591 0.0737391338
v -0.114274994 -0.140587479 0.0772223
v -0.114274994 -0.1283409 0.07373914
v -0.121274993 -0.1394125 0.0772223
v -0.114274994 -0.1283409 0.07373914
v -0.121274993 -0.12737757 0.07306641
v -0.121274993 -0.1394125 0.0772223
v -0.114274994 -0.1283409 0.07373914
v -0.114274994 -0.120937265 0.06506696
v -0.121274993 -0.12737757 0.07306641
v -0.114274994 -0.120937265 0.06506696
v -0.121274993 -0.120577328 0.0642735
v -0.121274993 -0.12737757 0.07306641
v -0.121274993 -0.136783183 0.0510117635
v -0.121274993 -0.141396523 0.0500437133
v -0.114274994 -0.136783183 0.0510117635
v -0.121274993 -0.141396523 0.0500437133
v -0.114274994 -0.1420547 0.0502369776
v -0.114274994 -0.136783183 0.0510117635
v -0.121274993 -0.141396523 0.0500437133
v -0.121274993 -0.146013826 0.0548060462
v -0.114274994 -0.1420547 0.0502369776
v -0.121274993 -0.146013826 0.0548060462
v -0.114274994 -0.146111459 0.05548505
v -0.114274994 -0.1420547 0.0502369776
v -0.121274993 -0.146013826 0.0548060462
v -0.121274993 -0.143599957 0.060984455
v -0.114274994 -0.146111459 0.05548505
v -0.121274993 -0.143599957 0.060984455
v -0.114274994 -0.14302285 0.0613553338
v -0.114274994 -0.146111459 0.05548505
v -0.121274993 -0.143599957 0.060984455
v -0.121274993 -0.136977151 0.0613553375
v -0.114274994 -0.14302285 0.0613553338
v -0.121274993 -0.136977151 0.0613553375
v -0.114274994 -0.136400044 0.060984455
v -0.114274994 -0.14302285 0.0613553338
v -0.121274993 -0.136977151 0.0613553375
v -0.121274993 -0.133888528 0.0554850437
v -0.114274994 -0.136400044 0.060984455
v -0.121274993 -0.133888528 0.0554850437
v -0.114274994 -0.13398616 0.054806035
v -0.114274994 -0.136400044 0.060984455
v -0.121274993 -0.133888528 0.0554850437
v -0.121274993 -0.136783183 0.0510117635
v -0.114274994 -0.13398616 0.054806035
v -0.121274993 -0.136783183 0.0510117635
v -0.114274994 -0.136783183 0.0510117635
v -0.114274994 -0.13398616 0.054806035
v -0.2579462 -0.05123476 0.009709286
v -0.250946224 -0.0511105172 0.009675995
v -0.257102549 -0.05075 -0.0130336341
v -0.250946224 -0.0511105172 0.009675995
v -0.2505857 -0.05075 -0.009641528
v -0.257102549 -0.05075 -0.0130336341
v -0.2579462 -0.279639482 0.00967599452
v -0.2579462 -0.0550912134 0.0136566991
v -0.2579462 -0.05123476 0.009709286
v -0.2579462 -0.279639482 0.00967599452
v -0.2579462 -0.275692075 0.0135324644
v -0.2579462 -0.0550912134 0.0136566991
v -0.121274993 -0.107625 0.00176722347
v -0.121274993 -0.141396523 0.0500437133
v -0.121274993 -0.136783183 0.0510117635
v -0.121274993 -0.143599957 0.060984455
v -0.121274993 -0.146013826 0.0548060462
v -0.121274993 -0.1516591 0.0737391338
v -0.113088839 -0.107625 -0.0116554555
v -0.1156051 -0.107625 -0.0185178872
v -0.120910637 -0.107625 -0.0106220553
v -0.120693445 -0.172375 -0.0113489553
v -0.114744253 -0.172375 -0.0190930832
v -0.114229091 -0.172594771 -0.008385939
v -0.114744253 -0.172375 -0.0190930832
v -0.109740056 -0.172195479 -0.0136177717
v -0.114229091 -0.172594771 -0.008385939
v -0.114744253 -0.172375 -0.0190930832
v -0.103125922 -0.173353061 -0.0210713614
v -0.109740056 -0.172195479 -0.0136177717
v -0.114274994 -0.146111459 0.05548505
v -0.114274994 -0.14302285 0.0613553338
v -0.114274994 -0.152622432 0.07306641
v -0.114229091 -0.172594771 -0.008385939
v -0.114274994 -0.1420547 0.0502369776
v -0.114274994 -0.159422666 0.06427352
v -0.114274994 -0.152622432 0.07306641
v -0.114274994 -0.14302285 0.0613553338
v -0.114274994 -0.140587479 0.0772223
v -0.114274994 -0.136400044 0.060984455
v -0.114274994 -0.1283409 0.07373914
v -0.114274994 -0.13398616 0.054806035
v -0.114274994 -0.120937265 0.06506696
v -0.114274994 -0.107625 0.00176722347
v -0.114274994 -0.1420547 0.0502369776
v -0.114274994 -0.136783183 0.0510117635
v -0.114274994 -0.136400044 0.060984455
v -0.114274994 -0.13398616 0.054806035
v -0.114274994 -0.1283409 0.07373914
v -0.113088839 -0.107625 -0.0116554555
v -0.114274994 -0.107625 0.00176722347
v -0.114229091 -0.172594771 -0.008385939
v -0.250946224 -0.055057928 0.0135324644
v -0.250946224 -0.279515266 0.0097092865
v -0.250946224 -0.0511105172 0.009675995
v -0.250946224 -0.055057928 0.0135324644
v -0.250946224 -0.2756588 0.0136566991
v -0.250946224 -0.279515266 0.0097092865
v -0.2505857 -0.05075 -0.009641528
v -0.250946224 -0.0511105172 0.009675995
v -0.250946224 -0.279515266 0.0097092865
v -0.2504615 -0.279999971 -0.009674807
v -0.257102549 -0.05075 -0.0130336341
v -0.247406453 -0.05075 -0.0208436511
v -0.256642342 -0.279999971 -0.01405861
v -0.247406453 -0.05075 -0.0208436511
v -0.2470303 -0.279999971 -0.020845037
v -0.256642342 -0.279999971 -0.01405861
v -0.120910637 -0.107625 -0.0106220553
v -0.1156051 -0.107625 -0.0185178872
v -0.120693445 -0.172375 -0.0113489553
v -0.1156051 -0.107625 -0.0185178872
v -0.114744253 -0.172375 -0.0190930832
v -0.120693445 -0.172375 -0.0113489553
v -0.1156051 -0.107625 -0.0185178872
v -0.104639977 -0.107198022 -0.0211284123
v -0.114744253 -0.172375 -0.0190930832
v -0.104639977 -0.107198022 -0.0211284123
v -0.103125922 -0.173353061 -0.0210713614
v -0.114744253 -0.172375 -0.0190930832
v -0.103029981 -0.09464776 -0.0209827758
v -0.100245982 -0.102133282 -0.0209827758
v -0.102814361 -0.0945361257 -0.0139827756
v -0.100245982 -0.102133282 -0.0209827758
v -0.100433543 -0.102833271 -0.0139827756
v -0.102814361 -0.0945361257 -0.0139827756
v -0.100245982 -0.102133282 -0.0209827758
v -0.104639977 -0.107198022 -0.0211284123
v -0.100433543 -0.102833271 -0.0139827756
v -0.104639977 -0.107198022 -0.0211284123
v -0.105158694 -0.107367538 -0.0140719526
v -0.100433543 -0.102833271 -0.0139827756
v -0.206004009 -0.118155092 -0.0139827756
v -0.215031087 -0.12581408 -0.0139827756
v -0.205911413 -0.117985636 -0.0209827758
v -0.215031087 -0.12581408 -0.0139827756
v -0.215753928 -0.126906738 -0.0209827758
v -0.205911413 -0.117985636 -0.0209827758
v -0.215031087 -0.12581408 -0.0139827756
v -0.219495848 -0.139344931 -0.0139827756
v -0.215753928 -0.126906738 -0.0209827758
v -0.219495848 -0.139344931 -0.0139827756
v -0.219495848 -0.140655056 -0.0209827758
v -0.215753928 -0.126906738 -0.0209827758
v -0.219495848 -0.139344931 -0.0139827756
v -0.215753928 -0.153093264 -0.0139827756
v -0.219495848 -0.140655056 -0.0209827758
v -0.215753928 -0.153093264 -0.0139827756
v -0.215031087 -0.154185921 -0.0209827758
v -0.219495848 -0.140655056 -0.0209827758
v -0.215753928 -0.153093264 -0.0139827756
v -0.205911428 -0.16201435 -0.0139827756
v -0.215031087 -0.154185921 -0.0209827758
v -0.205911428 -0.16201435 -0.0139827756
v -0.206004038 -0.161844879 -0.0209827758
v -0.215031087 -0.154185921 -0.0209827758
v -0.114221595 -0.186345652 -0.0139827756
v -0.114319153 -0.18633312 -0.0209827758
v -0.205911428 -0.16201435 -0.0139827756
v -0.114319153 -0.18633312 -0.0209827758
v -0.206004038 -0.161844879 -0.0209827758
v -0.205911428 -0.16201435 -0.0139827756
v -0.103125922 -0.173353061 -0.0210713614
v -0.101941854 -0.174554259 -0.0139827756
v -0.109740056 -0.172195479 -0.0136177717
v -0.103125922 -0.173353061 -0.0210713614
v -0.100245982 -0.180883288 -0.0209827758
v -0.101941854 -0.174554259 -0.0139827756
v -0.100245982 -0.180883288 -0.0209827758
v -0.100433543 -0.181583285 -0.0139827756
v -0.101941854 -0.174554259 -0.0139827756
v -0.100245982 -0.180883288 -0.0209827758
v -0.10461621 -0.186014473 -0.0209827758
v -0.100433543 -0.181583285 -0.0139827756
v -0.10461621 -0.186014473 -0.0209827758
v -0.104582913 -0.185890242 -0.0139827756
v -0.100433543 -0.181583285 -0.0139827756
v -0.114229091 -0.172594771 -0.008385939
v -0.109740056 -0.172195479 -0.0136177717
v -0.113088839 -0.107625 -0.0116554555
v -0.109740056 -0.172195479 -0.0136177717
v -0.105158694 -0.107367538 -0.0140719526
v -0.113088839 -0.107625 -0.0116554555
v 0.02567539 -0.08999233 -0.0210675485
v 0.0206335466 -0.08533329 -0.0209827758
v 0.0245826263 -0.08960418 -0.0139827756
v 0.0206335466 -0.08533329 -0.0209827758
v 0.02044598 -0.08463329 -0.0139827756
v 0.0245826263 -0.08960418 -0.0139827756
v 0.0206335466 -0.08533329 -0.0209827758
v 0.0214128178 -0.0796249956 -0.0209827758
v 0.02044598 -0.08463329 -0.0139827756
v 0.0214128178 -0.0796249956 -0.0209827758
v 0.02322998 -0.07714777 -0.0139827756
v 0.02044598 -0.08463329 -0.0139827756
v 0.0214128178 -0.0796249956 -0.0209827758
v 0.02481622 -0.07648552 -0.0209827758
v 0.02322998 -0.07714777 -0.0139827756
v -0.109810822 -0.2891163 -0.0137253227
v -0.110837825 -0.2835 -0.0139827756
v -0.110322848 -0.2843763 -0.021109486
v -0.110837825 -0.2835 -0.0139827756
v -0.114241228 -0.28036052 -0.0139827756
v -0.110322848 -0.2843763 -0.021109486
v -0.114207923 -0.280484766 -0.0209827758
v -0.110322848 -0.2843763 -0.021109486
v -0.109810822 -0.2891163 -0.0137253227
v -0.110322848 -0.2843763 -0.021109486
v -0.1099 -0.2953301 -0.0185178816
v -0.105592072 -0.294 0.0135324644
v -0.109379165 -0.294 0.009909601
v -0.105558783 -0.300999969 0.0136566991
v -0.109379165 -0.294 0.009909601
v -0.109573141 -0.300999969 0.009427716
v -0.105558783 -0.300999969 0.0136566991
v -0.1099 -0.300635666 -0.0106220813
v -0.1099 -0.2953301 -0.0185178816
v 0.103860818 -0.300418466 -0.0113489591
v -0.1099 -0.2953301 -0.0185178816
v 0.103860818 -0.294469267 -0.0190930832
v 0.103860818 -0.300418466 -0.0113489591
v 0.02478292 -0.203390256 -0.0209827758
v 0.0206335466 -0.1990833 -0.0209827758
v 0.024816215 -0.203514487 -0.0139827756
v 0.0206335466 -0.1990833 -0.0209827758
v 0.02044598 -0.198383287 -0.0139827756
v 0.024816215 -0.203514487 -0.0139827756
v 0.0206335466 -0.1990833 -0.0209827758
v 0.0221418384 -0.192054257 -0.0209827758
v 0.02044598 -0.198383287 -0.0139827756
v 0.0221418384 -0.192054257 -0.0209827758
v 0.0226542726 -0.191541821 -0.0139827756
v 0.02044598 -0.198383287 -0.0139827756
v 0.0221418384 -0.192054257 -0.0209827758
v 0.028735185 -0.189767584 -0.02112747
v 0.0226542726 -0.191541821 -0.0139827756
v 0.028735185 -0.189767584 -0.02112747
v 0.0325324237 -0.189733461 -0.013891574
v 0.0226542726 -0.191541821 -0.0139827756
v -0.109810822 -0.2891163 -0.0137253227
v -0.1099 -0.293479174 -0.009875164
v 0.103681318 -0.289465 -0.013617781
v -0.1099 -0.293479174 -0.009875164
v 0.103860818 -0.293673158 -0.009393302
v 0.103681318 -0.289465 -0.013617781
v 0.0449750051 -0.174202621 0.06987295
v 0.03797499 -0.1667005 0.0815698
v 0.03797499 -0.174043342 0.070008494
v 0.0449750051 -0.174202621 0.06987295
v 0.0449750051 -0.1656485 0.08262558
v 0.0449750051 -0.1656485 0.08262558
v 0.03797499 -0.1529339 0.09063753
v 0.03797499 -0.1667005 0.0815698
v 0.0449750051 -0.1656485 0.08262558
v 0.0449750051 -0.151527449 0.09113087
v 0.03797499 -0.1529339 0.09063753
v 0.0449749976 -0.139999986 0.0927672163
v 0.0449750051 -0.127066135 0.0906375349
v 0.03797499 -0.136593983 0.0928173661
v 0.0449750051 -0.127066135 0.0906375349
v 0.03797499 -0.124020725 0.08911141
v 0.03797499 -0.136593983 0.0928173661
v 0.0449750051 -0.113299489 0.0815697759
v 0.03797499 -0.105797365 0.0698729157
v 0.03797499 -0.114351489 0.08262558
v 0.0449750051 -0.105956644 0.0700084344
v 0.03797499 -0.105797365 0.0698729157
v 0.03797499 -0.127594113 0.064295955
v 0.03797499 -0.1252546 0.0537775
v 0.0449750051 -0.127059415 0.06343239
v 0.03797499 -0.1252546 0.0537775
v 0.0449749976 -0.12529999 0.05601722
v 0.0449750051 -0.127059415 0.06343239
v 0.03797499 -0.1252546 0.0537775
v 0.0449750051 -0.127594128 0.0477384776
v 0.0449749976 -0.12529999 0.05601722
v 0.03797499 -0.1252546 0.0537775
v 0.03797499 -0.129136562 0.0461138934
v 0.0449750051 -0.127594128 0.0477384776
v 0.03797499 -0.135432348 0.0418193378
v 0.03797499 -0.146189526 0.0424476452
v 0.0449750051 -0.136409283 0.0415413752
v 0.03797499 -0.146189526 0.0424476452
v 0.0449750051 -0.147098735 0.0429003872
v 0.0449750051 -0.136409283 0.0415413752
v 0.03797499 -0.146189526 0.0424476452
v 0.03797499 -0.152498186 0.04827867
v 0.0449750051 -0.147098735 0.0429003872
v 0.03797499 -0.152498186 0.04827867
v 0.0449749976 -0.152498186 0.04827867
v 0.0449750051 -0.147098735 0.0429003872
v 0.03797499 -0.152498186 0.04827867
v 0.03797499 -0.154905885 0.05550938
v 0.0449749976 -0.152498186 0.04827867
v 0.03797499 -0.154905885 0.05550938
v 0.0449750051 -0.154905885 0.0565250851
v 0.0449749976 -0.152498186 0.04827867
v 0.03797499 -0.154905885 0.05550938
v 0.03797499 -0.152498186 0.06375577
v 0.0449750051 -0.154905885 0.0565250851
v 0.03797499 -0.152498186 0.06375577
v 0.0449749976 -0.152498186 0.06375577
v 0.0449750051 -0.154905885 0.0565250851
v 0.03797499 -0.152498186 0.06375577
v 0.03797499 -0.147098735 0.06913406
v 0.0449749976 -0.152498186 0.06375577
v 0.03797499 -0.147098735 0.06913406
v 0.0449750051 -0.146189526 0.0695868
v 0.0449749976 -0.152498186 0.06375577
v 0.03797499 -0.147098735 0.06913406
v 0.03797499 -0.136409253 0.07049307
v 0.0449750051 -0.146189526 0.0695868
v 0.03797499 -0.136409253 0.07049307
v 0.0449750051 -0.135432318 0.070215106
v 0.0449750051 -0.146189526 0.0695868
v 0.03797499 -0.136409253 0.07049307
v 0.03797499 -0.127594113 0.064295955
v 0.0449750051 -0.135432318 0.070215106
v 0.03797499 -0.127594113 0.064295955
v 0.0449750051 -0.127059415 0.06343239
v 0.0449750051 -0.135432318 0.070215106
v 0.0449749976 -0.143217385 0.08671693
v 0.0449750051 -0.144204617 0.08282176
v 0.03797499 -0.143217385 0.08671693
v 0.0449750051 -0.144204617 0.08282176
v 0.03797499 -0.143989369 0.08223035
v 0.03797499 -0.143217385 0.08671693
v 0.0449750051 -0.144204617 0.08282176
v 0.0449750051 -0.139552832 0.0796689
v 0.03797499 -0.143989369 0.08223035
v 0.0449750051 -0.139552832 0.0796689
v 0.03797499 -0.138933018 0.0797781944
v 0.03797499 -0.143989369 0.08223035
v 0.0449750051 -0.139552832 0.0796689
v 0.0449750051 -0.135640085 0.08370255
v 0.03797499 -0.138933018 0.0797781944
v 0.0449750051 -0.135640085 0.08370255
v 0.03797499 -0.135640085 0.0843319148
v 0.03797499 -0.138933018 0.0797781944
v 0.0449750051 -0.135640085 0.08370255
v 0.0449750051 -0.138933018 0.0882562548
v 0.03797499 -0.135640085 0.0843319148
v 0.0449750051 -0.138933018 0.0882562548
v 0.03797499 -0.139552817 0.08836555
v 0.03797499 -0.135640085 0.0843319148
v 0.0449750051 -0.138933018 0.0882562548
v 0.0449749976 -0.143217385 0.08671693
v 0.03797499 -0.139552817 0.08836555
v 0.0449749976 -0.143217385 0.08671693
v 0.03797499 -0.143217385 0.08671693
v 0.03797499 -0.139552817 0.08836555
v 0.0376481339 -0.0901249945 -0.009393274
v 0.03797499 -0.0901249945 0.00176722347
v 0.04457512 -0.0901249945 -0.0109769581
v 0.03797499 -0.0901249945 0.00176722347
v 0.0449749976 -0.0901249945 0.00176722347
v 0.04457512 -0.0901249945 -0.0109769581
v 0.03797499 -0.135640085 0.0843319148
v 0.03797499 -0.139552817 0.08836555
v 0.03797499 -0.136593983 0.0928173661
v 0.03797499 -0.135640085 0.0843319148
v 0.03797499 -0.124020725 0.08911141
v 0.03797499 -0.136409253 0.07049307
v 0.03797499 -0.114351489 0.08262558
v 0.03797499 -0.127594113 0.064295955
v 0.03797499 -0.105797365 0.0698729157
v 0.03797499 -0.1252546 0.0537775
v 0.03797499 -0.0901249945 0.00176722347
v 0.03797499 -0.129136562 0.0461138934
v 0.03797499 -0.147098735 0.06913406
v 0.03797499 -0.138933018 0.0797781944
v 0.03797499 -0.135432348 0.0418193378
v 0.03797499 -0.129136562 0.0461138934
v 0.0376481339 -0.0901249945 -0.009393274
v 0.0376993157 -0.189874977 -0.009517926
v 0.03797499 -0.146189526 0.0424476452
v 0.03797499 -0.152498186 0.04827867
v 0.03797499 -0.189874977 0.00176722347
v 0.03797499 -0.174043342 0.070008494
v 0.03797499 -0.154905885 0.05550938
v 0.03797499 -0.152498186 0.06375577
v 0.03797499 -0.1667005 0.0815698
v 0.03797499 -0.1529339 0.09063753
v 0.03797499 -0.139552817 0.08836555
v 0.03797499 -0.143217385 0.08671693
v 0.03797499 -0.143989369 0.08223035
v 0.03797499 -0.146189526 0.0424476452
v 0.0376993157 -0.189874977 -0.009517926
v 0.03797499 -0.189874977 0.00176722347
v 0.03797499 -0.135432348 0.0418193378
v 0.03797499 -0.0901249945 0.00176722347
v 0.0376481339 -0.0901249945 -0.009393274
v 0.03797499 -0.135640085 0.0843319148
v 0.03797499 -0.136409253 0.07049307
v 0.03797499 -0.138933018 0.0797781944
v 0.03797499 -0.189874977 0.00176722347
v 0.0376993157 -0.189874977 -0.009517926
v 0.0449749976 -0.189874977 0.00176722347
v 0.0376993157 -0.189874977 -0.009517926
v 0.0447008573 -0.189874977 -0.0104010431
v 0.0449749976 -0.189874977 0.00176722347
v 0.04457512 -0.0901249945 -0.0109769581
v 0.0449749976 -0.0901249945 0.00176722347
v 0.0449750051 -0.136409283 0.0415413752
v 0.0449750051 -0.147098735 0.0429003872
v 0.0449749976 -0.189874977 0.00176722347
v 0.0447008573 -0.189874977 -0.0104010431
v 0.0449750051 -0.135432318 0.070215106
v 0.0449750051 -0.135640085 0.08370255
v 0.0449750051 -0.139552832 0.0796689
v 0.0449750051 -0.135432318 0.070215106
v 0.0449750051 -0.127066135 0.0906375349
v 0.0449750051 -0.135640085 0.08370255
v 0.0449750051 -0.151527449 0.09113087
v 0.0449749976 -0.143217385 0.08671693
v 0.0449750051 -0.138933018 0.0882562548
v 0.0449750051 -0.144204617 0.08282176
v 0.0449749976 -0.143217385 0.08671693
v 0.0449749976 -0.139999986 0.0927672163
v 0.0449750051 -0.138933018 0.0882562548
v 0.0449750051 -0.127066135 0.0906375349
v 0.0449750051 -0.135640085 0.08370255
v 0.0449750051 -0.146189526 0.0695868
v 0.0449750051 -0.1656485 0.08262558
v 0.0449749976 -0.152498186 0.06375577
v 0.0449750051 -0.174202621 0.06987295
v 0.0449750051 -0.154905885 0.0565250851
v 0.0449749976 -0.152498186 0.04827867
v 0.0449749976 -0.189874977 0.00176722347
v 0.0449750051 -0.147098735 0.0429003872
v 0.0449750051 -0.135432318 0.070215106
v 0.0449750051 -0.139552832 0.0796689
v 0.0449750051 -0.113299489 0.0815697759
v 0.0449750051 -0.127059415 0.06343239
v 0.0449750051 -0.105956644 0.0700084344
v 0.0449749976 -0.12529999 0.05601722
v 0.0449750051 -0.127594128 0.0477384776
v 0.0449749976 -0.0901249945 0.00176722347
v 0.0449750051 -0.136409283 0.0415413752
v 0.0447008573 -0.189874977 -0.0104010431
v 0.04457512 -0.0901249945 -0.0109769581
v 0.02567539 -0.08999233 -0.0210675485
v 0.033633776 -0.0901249945 -0.0136222532
v 0.03844426 -0.0901249945 -0.0190930851
v 0.0325324237 -0.189733461 -0.013891574
v 0.0376993157 -0.189874977 -0.009517926
v 0.033633776 -0.0901249945 -0.0136222532
v 0.0376993157 -0.189874977 -0.009517926
v 0.0376481339 -0.0901249945 -0.009393274
v 0.033633776 -0.0901249945 -0.0136222532
v 0.028735185 -0.189767584 -0.02112747
v 0.0393051021 -0.189874977 -0.01851789
v 0.0325324237 -0.189733461 -0.013891574
v 0.02567539 -0.08999233 -0.0210675485
v 0.03844426 -0.0901249945 -0.0190930851
v 0.028735185 -0.189767584 -0.02112747
v 0.03844426 -0.0901249945 -0.0190930851
v 0.0393051021 -0.189874977 -0.01851789
v 0.028735185 -0.189767584 -0.02112747
v 0.03844426 -0.0901249945 -0.0190930851
v 0.04457512 -0.0901249945 -0.0109769581
v 0.0393051021 -0.189874977 -0.01851789
v 0.04457512 -0.0901249945 -0.0109769581
v 0.0447008573 -0.189874977 -0.0104010431
v 0.0393051021 -0.189874977 -0.01851789
v 0.02567539 -0.08999233 -0.0210675485
v 0.0245826263 -0.08960418 -0.0139827756
v 0.033633776 -0.0901249945 -0.0136222532
v 0.198863119 -0.279515266 0.009709288
v 0.19186312 -0.279639482 0.009675997
v 0.197726622 -0.279999971 -0.01344316
v 0.19186312 -0.279639482 0.009675997
v 0.1913423 -0.279999971 -0.009875111
v 0.197726622 -0.279999971 -0.01344316
v 0.198863119 -0.279515266 0.009709288
v 0.198863119 -0.055057928 0.0135324644
v 0.198863119 -0.2756588 0.0136566991
v 0.198463216 -0.05075 -0.0109769376
v 0.198863119 -0.0511105172 0.00967599452
v 0.197726622 -0.279999971 -0.01344316
v 0.198863119 -0.279515266 0.009709288
v 0.198863119 -0.0511105172 0.00967599452
v 0.198863119 -0.055057928 0.0135324644
v 0.198463216 -0.05075 -0.0109769376
v 0.194762573 -0.05075 -0.01688227
v 0.191536263 -0.05075 -0.00939321052
v 0.19186312 -0.275692075 0.0135324644
v 0.19186312 -0.0550912134 0.0136566991
v 0.19186312 -0.279639482 0.009675997
v 0.197726622 -0.279999971 -0.01344316
v 0.194762573 -0.05075 -0.01688227
v 0.198463216 -0.05075 -0.0109769376
v 0.197726622 -0.279999971 -0.01344316
v 0.188323319 -0.279999971 -0.0208436511
v 0.194762573 -0.05075 -0.01688227
v 0.188323319 -0.279999971 -0.0208436511
v 0.187909827 -0.05075 -0.0208602753
v 0.194762573 -0.05075 -0.01688227
v 0.191536263 -0.05075 -0.00939321052
v 0.18718107 -0.05075 -0.0138561325
v 0.1913423 -0.279999971 -0.009875111
v 0.18718107 -0.05075 -0.0138561325
v 0.18688798 -0.279999971 -0.0138721447
v 0.1913423 -0.279999971 -0.009875111
v 0.188323319 -0.279999971 -0.0208436511
v 0.18688798 -0.279999971 -0.0138721447
v 0.10820204 -0.28036052 -0.0209827758
v 0.18688798 -0.279999971 -0.0138721447
v 0.106615819 -0.281022757 -0.0139827756
v 0.10820204 -0.28036052 -0.0209827758
v 0.104277946 -0.2845405 -0.02106171
v 0.106615819 -0.281022757 -0.0139827756
v 0.103681318 -0.289465 -0.013617781
v 0.104277946 -0.2845405 -0.02106171
v 0.10820204 -0.28036052 -0.0209827758
v 0.106615819 -0.281022757 -0.0139827756
v 0.1437454 -0.175343022 -0.0139827756
v 0.15783295 -0.161775723 -0.0139827756
v 0.144036561 -0.17542024 -0.0209827758
v 0.15783295 -0.161775723 -0.0139827756
v 0.1586625 -0.160418257 -0.0209827758
v 0.144036561 -0.17542024 -0.0209827758
v 0.163853332 -0.145220473 -0.0139827756
v 0.163853332 -0.134779528 -0.0209827758
v 0.163009971 -0.14876087 -0.0209827758
v 0.163853332 -0.145220473 -0.0139827756
v 0.16226913 -0.127675831 -0.0139827756
v 0.163853332 -0.134779528 -0.0209827758
v 0.16226913 -0.127675831 -0.0139827756
v 0.160161167 -0.122898318 -0.0209827758
v 0.163853332 -0.134779528 -0.0209827758
v 0.16226913 -0.127675831 -0.0139827756
v 0.153380558 -0.112466715 -0.0139827756
v 0.160161167 -0.122898318 -0.0209827758
v 0.153380558 -0.112466715 -0.0139827756
v 0.152275413 -0.111322351 -0.0209827758
v 0.160161167 -0.122898318 -0.0209827758
v 0.153380558 -0.112466715 -0.0139827756
v 0.13997598 -0.103002682 -0.0139827756
v 0.152275413 -0.111322351 -0.0209827758
v 0.13997598 -0.103002682 -0.0139827756
v 0.140116945 -0.1031747 -0.0209827758
v 0.152275413 -0.111322351 -0.0209827758
v 0.0379219465 -0.07615399 -0.0139827756
v 0.0380190164 -0.0761664 -0.0209827758
v 0.13997598 -0.103002682 -0.0139827756
v 0.0380190164 -0.0761664 -0.0209827758
v 0.140116945 -0.1031747 -0.0209827758
v 0.13997598 -0.103002682 -0.0139827756
v 0.0380190164 -0.0761664 -0.0209827758
v 0.0379219465 -0.07615399 -0.0139827756
v 0.02481622 -0.07648552 -0.0209827758
v 0.0379219465 -0.07615399 -0.0139827756
v 0.02322998 -0.07714777 -0.0139827756
v 0.02481622 -0.07648552 -0.0209827758
v 0.103860818 -0.294469267 -0.0190930832
v 0.104277946 -0.2845405 -0.02106171
v 0.103681318 -0.289465 -0.013617781
v 0.10334 -0.300999969 0.009909599
v 0.103860818 -0.300418466 -0.0113489591
v 0.103533968 -0.294 0.009427712
v 0.103860818 -0.300418466 -0.0113489591
v 0.103860818 -0.293673158 -0.009393302
v 0.103533968 -0.294 0.009427712
v 0.103533968 -0.294 0.009427712
v 0.09951963 -0.294 0.0136566982
v 0.10334 -0.300999969 0.009909599
v 0.09951963 -0.294 0.0136566982
v 0.09955292 -0.300999969 0.0135324616
v 0.10334 -0.300999969 0.009909599
v -0.1099 -0.0375166349 -0.010984689
v -0.110151514 -0.04604757 -0.0141123487
v 0.103860818 -0.0379361548 -0.0116554461
v -0.110151514 -0.04604757 -0.0141123487
v 0.104114488 -0.04585019 -0.0140415523
v 0.103860818 -0.0379361548 -0.0116554461
v 0.103860818 -0.0379361548 -0.0116554461
v 0.103860818 -0.0354199037 -0.01851789
v 0.103860818 -0.0301143453 -0.0106220627
v 0.103860818 -0.0301143453 -0.0106220627
v 0.103860818 -0.0354199037 -0.01851789
v -0.1099 -0.0303315446 -0.0113489628
v 0.103860818 -0.0354199037 -0.01851789
v -0.1099 -0.03628075 -0.0190930869
v -0.1099 -0.0303315446 -0.0113489628
v -0.1099 -0.0303315446 -0.0113489628
v -0.1099 -0.03628075 -0.0190930869
v -0.1099 -0.0375166349 -0.010984689
v 0.10334 -0.03675 0.009909599
v 0.103860818 -0.0379361548 -0.0116554461
v 0.103533968 -0.0297499951 0.009427712
v 0.103860818 -0.0379361548 -0.0116554461
v 0.103860818 -0.0301143453 -0.0106220627
v 0.103533968 -0.0297499951 0.009427712
v 0.103533968 -0.0297499951 0.009427712
v 0.09951963 -0.0297499951 0.0136566982
v 0.10334 -0.03675 0.009909599
v 0.09951963 -0.0297499951 0.0136566982
v 0.09955292 -0.03675 0.0135324616
v 0.10334 -0.03675 0.009909599
v -0.109379165 -0.0297499951 0.009909601
v -0.1099 -0.0303315446 -0.0113489628
v -0.109573141 -0.03675 0.009427716
v -0.1099 -0.0303315446 -0.0113489628
v -0.1099 -0.0375166349 -0.010984689
v -0.109573141 -0.03675 0.009427716
v -0.105592072 -0.0297499951 0.0135324644
v -0.109379165 -0.0297499951 0.009909601
v -0.105558783 -0.03675 0.0136566991
v -0.109379165 -0.0297499951 0.009909601
v -0.109573141 -0.03675 0.009427716
v -0.105558783 -0.03675 0.0136566991
v -0.110314153 -0.04619922 -0.0210416354
v -0.114241213 -0.0503894761 -0.0209827758
v -0.110151514 -0.04604757 -0.0141123487
v -0.114241213 -0.0503894761 -0.0209827758
v -0.114207923 -0.05026524 -0.0139827756
v -0.110151514 -0.04604757 -0.0141123487
v 0.104114488 -0.04585019 -0.0140415523
v 0.10820204 -0.0503894761 -0.0139827756
v 0.104277961 -0.04635799 -0.0210833456
v 0.10820204 -0.0503894761 -0.0139827756
v 0.108168758 -0.0502652377 -0.0209827758
v 0.104277961 -0.04635799 -0.0210833456
v -0.105158694 -0.107367538 -0.0140719526
v -0.109740056 -0.172195479 -0.0136177717
v -0.101941854 -0.174554259 -0.0139827756
v 0.0325324237 -0.189733461 -0.013891574
v 0.033633776 -0.0901249945 -0.0136222532
v 0.0245826263 -0.08960418 -0.0139827756
v -0.101941854 -0.174554259 -0.0139827756
v 0.0226542726 -0.191541821 -0.0139827756
v -0.100433543 -0.181583285 -0.0139827756
v 0.02044598 -0.198383287 -0.0139827756
v -0.104582913 -0.185890242 -0.0139827756
v 0.024816215 -0.203514487 -0.0139827756
v -0.114241228 -0.28036052 -0.0139827756
v -0.110837825 -0.2835 -0.0139827756
v -0.114221595 -0.186345652 -0.0139827756
v -0.246286556 -0.279999971 -0.01384078
v -0.205911428 -0.16201435 -0.0139827756
v -0.215753928 -0.153093264 -0.0139827756
v -0.219495848 -0.139344931 -0.0139827756
v -0.245971113 -0.05075 -0.0138721438
v 0.0325324237 -0.189733461 -0.013891574
v 0.0245826263 -0.08960418 -0.0139827756
v -0.105158694 -0.107367538 -0.0140719526
v -0.100433543 -0.102833271 -0.0139827756
v 0.02044598 -0.08463329 -0.0139827756
v -0.102814361 -0.0945361257 -0.0139827756
v 0.02322998 -0.07714777 -0.0139827756
v -0.110151514 -0.04604757 -0.0141123487
v 0.104114488 -0.04585019 -0.0140415523
v -0.219495848 -0.139344931 -0.0139827756
v -0.215031087 -0.12581408 -0.0139827756
v -0.206004009 -0.118155092 -0.0139827756
v -0.114319213 -0.09366688 -0.0139827756
v -0.114207923 -0.05026524 -0.0139827756
v 0.0379219465 -0.07615399 -0.0139827756
v 0.10820204 -0.0503894761 -0.0139827756
v 0.13997598 -0.103002682 -0.0139827756
v 0.18718107 -0.05075 -0.0138561325
v 0.153380558 -0.112466715 -0.0139827756
v 0.16226913 -0.127675831 -0.0139827756
v 0.163853332 -0.145220473 -0.0139827756
v 0.18688798 -0.279999971 -0.0138721447
v 0.104114488 -0.04585019 -0.0140415523
v 0.02322998 -0.07714777 -0.0139827756
v 0.163853332 -0.145220473 -0.0139827756
v 0.15783295 -0.161775723 -0.0139827756
v 0.1437454 -0.175343022 -0.0139827756
v 0.106615819 -0.281022757 -0.0139827756
v 0.0380189419 -0.203833625 -0.0139827756
v 0.024816215 -0.203514487 -0.0139827756
v -0.109810822 -0.2891163 -0.0137253227
v 0.103681318 -0.289465 -0.013617781
v -0.250946224 -0.279515266 0.0097092865
v -0.2579462 -0.279639482 0.00967599452
v -0.2504615 -0.279999971 -0.009674807
v -0.256642342 -0.279999971 -0.01405861
v -0.250946224 -0.279515266 0.0097092865
v -0.250946224 -0.2756588 0.0136566991
v -0.2579462 -0.279639482 0.00967599452
v -0.2579462 -0.275692075 0.0135324644
v -0.250946224 -0.055057928 0.0135324644
v -0.2579462 -0.0550912134 0.0136566991
v -0.250946224 -0.2756588 0.0136566991
v -0.2579462 -0.275692075 0.0135324644
v -0.250946224 -0.055057928 0.0135324644
v -0.250946224 -0.0511105172 0.009675995
v -0.2579462 -0.0550912134 0.0136566991
v -0.2579462 -0.05123476 0.009709286
v -0.257102549 -0.05075 -0.0130336341
v -0.2579462 -0.279639482 0.00967599452
v -0.2579462 -0.05123476 0.009709286
v -0.256642342 -0.279999971 -0.01405861
v -0.121274993 -0.107625 0.00176722347
v -0.121274993 -0.136783183 0.0510117635
v -0.121274993 -0.133888528 0.0554850437
v -0.121274993 -0.120577328 0.0642735
v -0.121274993 -0.12737757 0.07306641
v -0.121274993 -0.136977151 0.0613553375
v -0.121274993 -0.136977151 0.0613553375
v -0.121274993 -0.1394125 0.0772223
v -0.121274993 -0.143599957 0.060984455
v -0.121274993 -0.1516591 0.0737391338
v -0.121274993 -0.146013826 0.0548060462
v -0.121274993 -0.159062743 0.06506698
v -0.121274993 -0.172375 0.00176722347
v -0.121274993 -0.141396523 0.0500437133
v -0.121274993 -0.141396523 0.0500437133
v -0.120910637 -0.107625 -0.0106220553
v -0.120693445 -0.172375 -0.0113489553
v -0.113088839 -0.107625 -0.0116554555
v -0.105158694 -0.107367538 -0.0140719526
v -0.1156051 -0.107625 -0.0185178872
v -0.104639977 -0.107198022 -0.0211284123
v -0.256642342 -0.279999971 -0.01405861
v -0.246286556 -0.279999971 -0.01384078
v -0.2504615 -0.279999971 -0.009674807
v -0.2470303 -0.279999971 -0.020845037
v -0.2505857 -0.05075 -0.009641528
v -0.245971113 -0.05075 -0.0138721438
v -0.257102549 -0.05075 -0.0130336341
v -0.247406453 -0.05075 -0.0208436511
v -0.114319213 -0.09366688 -0.0139827756
v -0.114221618 -0.0936543345 -0.0209827758
v -0.102814361 -0.0945361257 -0.0139827756
v -0.103029981 -0.09464776 -0.0209827758
v -0.114221618 -0.0936543345 -0.0209827758
v -0.114319213 -0.09366688 -0.0139827756
v -0.205911413 -0.117985636 -0.0209827758
v -0.206004009 -0.118155092 -0.0139827756
v -0.114319153 -0.18633312 -0.0209827758
v -0.114221595 -0.186345652 -0.0139827756
v -0.10461621 -0.186014473 -0.0209827758
v -0.104582913 -0.185890242 -0.0139827756
v -0.246286556 -0.279999971 -0.01384078
v -0.2470303 -0.279999971 -0.020845037
v -0.114241228 -0.28036052 -0.0139827756
v -0.114207923 -0.280484766 -0.0209827758
v -0.2504615 -0.279999971 -0.009674807
v -0.246286556 -0.279999971 -0.01384078
v -0.2505857 -0.05075 -0.009641528
v -0.245971113 -0.05075 -0.0138721438
v 0.108168758 -0.0502652377 -0.0209827758
v 0.10820204 -0.0503894761 -0.0139827756
v 0.187909827 -0.05075 -0.0208602753
v 0.18718107 -0.05075 -0.0138561325
v -0.1099 -0.293479174 -0.009875164
v -0.1099 -0.2953301 -0.0185178816
v -0.1099 -0.300635666 -0.0106220813
v -0.109810822 -0.2891163 -0.0137253227
v -0.109379165 -0.294 0.009909601
v -0.1099 -0.293479174 -0.009875164
v -0.109573141 -0.300999969 0.009427716
v -0.1099 -0.300635666 -0.0106220813
v -0.109573141 -0.300999969 0.009427716
v 0.09955292 -0.300999969 0.0135324616
v -0.105558783 -0.300999969 0.0136566991
v 0.10334 -0.300999969 0.009909599
v -0.1099 -0.300635666 -0.0106220813
v 0.103860818 -0.300418466 -0.0113489591
v -0.1099 -0.2953301 -0.0185178816
v -0.110322848 -0.2843763 -0.021109486
v 0.103860818 -0.294469267 -0.0190930832
v 0.104277946 -0.2845405 -0.02106171
v -0.1099 -0.293479174 -0.009875164
v -0.109379165 -0.294 0.009909601
v 0.103860818 -0.293673158 -0.009393302
v 0.103533968 -0.294 0.009427712
v -0.105592072 -0.294 0.0135324644
v 0.09951963 -0.294 0.0136566982
v -0.105592072 -0.294 0.0135324644
v -0.105558783 -0.300999969 0.0136566991
v 0.09951963 -0.294 0.0136566982
v 0.09955292 -0.300999969 0.0135324616
v 0.03797499 -0.174043342 0.070008494
v 0.03797499 -0.189874977 0.00176722347
v 0.0449750051 -0.174202621 0.06987295
v 0.0449749976 -0.189874977 0.00176722347
v 0.0449750051 -0.151527449 0.09113087
v 0.03797499 -0.136593983 0.0928173661
v 0.03797499 -0.1529339 0.09063753
v 0.0449749976 -0.139999986 0.0927672163
v 0.0449750051 -0.127066135 0.0906375349
v 0.03797499 -0.114351489 0.08262558
v 0.03797499 -0.124020725 0.08911141
v 0.0449750051 -0.113299489 0.0815697759
v 0.03797499 -0.0901249945 0.00176722347
v 0.03797499 -0.105797365 0.0698729157
v 0.0449749976 -0.0901249945 0.00176722347
v 0.0449750051 -0.105956644 0.0700084344
v 0.03797499 -0.129136562 0.0461138934
v 0.03797499 -0.135432348 0.0418193378
v 0.0449750051 -0.127594128 0.0477384776
v 0.0449750051 -0.136409283 0.0415413752
v 0.03797499 -0.143989369 0.08223035
v 0.03797499 -0.147098735 0.06913406
v 0.03797499 -0.1529339 0.09063753
v 0.03797499 -0.138933018 0.0797781944
v 0.0449750051 -0.151527449 0.09113087
v 0.0449750051 -0.146189526 0.0695868
v 0.0449750051 -0.144204617 0.08282176
v 0.0449750051 -0.139552832 0.0796689
v 0.033633776 -0.0901249945 -0.0136222532
v 0.0376481339 -0.0901249945 -0.009393274
v 0.03844426 -0.0901249945 -0.0190930851
v 0.04457512 -0.0901249945 -0.0109769581
v 0.0393051021 -0.189874977 -0.01851789
v 0.0376993157 -0.189874977 -0.009517926
v 0.0325324237 -0.189733461 -0.013891574
v 0.0447008573 -0.189874977 -0.0104010431
v 0.19186312 -0.05123476 0.009709286
v 0.198863119 -0.0511105172 0.00967599452
v 0.191536263 -0.05075 -0.00939321052
v 0.198463216 -0.05075 -0.0109769376
v 0.19186312 -0.05123476 0.009709286
v 0.19186312 -0.0550912134 0.0136566991
v 0.198863119 -0.0511105172 0.00967599452
v 0.198863119 -0.055057928 0.0135324644
v 0.19186312 -0.275692075 0.0135324644
v 0.198863119 -0.2756588 0.0136566991
v 0.19186312 -0.0550912134 0.0136566991
v 0.198863119 -0.055057928 0.0135324644
v 0.19186312 -0.275692075 0.0135324644
v 0.19186312 -0.279639482 0.009675997
v 0.198863119 -0.2756588 0.0136566991
v 0.198863119 -0.279515266 0.009709288
v 0.194762573 -0.05075 -0.01688227
v 0.18718107 -0.05075 -0.0138561325
v 0.191536263 -0.05075 -0.00939321052
v 0.187909827 -0.05075 -0.0208602753
v 0.19186312 -0.0550912134 0.0136566991
v 0.19186312 -0.05123476 0.009709286
v 0.19186312 -0.279639482 0.009675997
v 0.191536263 -0.05075 -0.00939321052
v 0.1913423 -0.279999971 -0.009875111
v 0.1913423 -0.279999971 -0.009875111
v 0.18688798 -0.279999971 -0.0138721447
v 0.197726622 -0.279999971 -0.01344316
v 0.188323319 -0.279999971 -0.0208436511
v 0.0379219428 -0.203846008 -0.0209827758
v 0.0380189419 -0.203833625 -0.0139827756
v 0.144036561 -0.17542024 -0.0209827758
v 0.1437454 -0.175343022 -0.0139827756
v 0.15783295 -0.161775723 -0.0139827756
v 0.163853332 -0.145220473 -0.0139827756
v 0.1586625 -0.160418257 -0.0209827758
v 0.163009971 -0.14876087 -0.0209827758
v 0.103860818 -0.300418466 -0.0113489591
v 0.103860818 -0.294469267 -0.0190930832
v 0.103860818 -0.293673158 -0.009393302
v 0.103681318 -0.289465 -0.013617781
v 0.0380189419 -0.203833625 -0.0139827756
v 0.0379219428 -0.203846008 -0.0209827758
v 0.024816215 -0.203514487 -0.0139827756
v 0.02478292 -0.203390256 -0.0209827758
v -0.114207923 -0.05026524 -0.0139827756
v -0.114241213 -0.0503894761 -0.0209827758
v -0.245971113 -0.05075 -0.0138721438
v -0.247406453 -0.05075 -0.0208436511
v 0.103860818 -0.0379361548 -0.0116554461
v 0.104114488 -0.04585019 -0.0140415523
v 0.103860818 -0.0354199037 -0.01851789
v 0.104277961 -0.04635799 -0.0210833456
v 0.103860818 -0.0354199037 -0.01851789
v 0.104277961 -0.04635799 -0.0210833456
v -0.1099 -0.03628075 -0.0190930869
v -0.110314153 -0.04619922 -0.0210416354
v -0.1099 -0.03628075 -0.0190930869
v -0.110151514 -0.04604757 -0.0141123487
v -0.1099 -0.0375166349 -0.010984689
v -0.110314153 -0.04619922 -0.0210416354
v -0.1099 -0.0375166349 -0.010984689
v 0.103860818 -0.0379361548 -0.0116554461
v 0.10334 -0.03675 0.009909599
v -0.109573141 -0.03675 0.009427716
v 0.09955292 -0.03675 0.0135324616
v -0.105558783 -0.03675 0.0136566991
v -0.105592072 -0.0297499951 0.0135324644
v -0.105558783 -0.03675 0.0136566991
v 0.09951963 -0.0297499951 0.0136566982
v 0.09955292 -0.03675 0.0135324616
v -0.105592072 -0.0297499951 0.0135324644
v 0.09951963 -0.0297499951 0.0136566982
v 0.103533968 -0.0297499951 0.009427712
v -0.109379165 -0.0297499951 0.009909601
v 0.103860818 -0.0301143453 -0.0106220627
v -0.1099 -0.0303315446 -0.0113489628
v -0.110314153 -0.04619922 -0.0210416354
v -0.103029981 -0.09464776 -0.0209827758
v -0.114241213 -0.0503894761 -0.0209827758
v -0.114221618 -0.0936543345 -0.0209827758
v -0.114221618 -0.0936543345 -0.0209827758
v -0.247406453 -0.05075 -0.0208436511
v -0.114241213 -0.0503894761 -0.0209827758
v -0.205911413 -0.117985636 -0.0209827758
v -0.215753928 -0.126906738 -0.0209827758
v -0.219495848 -0.140655056 -0.0209827758
v -0.2470303 -0.279999971 -0.020845037
v -0.219495848 -0.140655056 -0.0209827758
v -0.215031087 -0.154185921 -0.0209827758
v -0.206004038 -0.161844879 -0.0209827758
v -0.114319153 -0.18633312 -0.0209827758
v -0.114207923 -0.280484766 -0.0209827758
v -0.10461621 -0.186014473 -0.0209827758
v 0.02478292 -0.203390256 -0.0209827758
v -0.110322848 -0.2843763 -0.021109486
v 0.104277946 -0.2845405 -0.02106171
v 0.10820204 -0.28036052 -0.0209827758
v 0.0206335466 -0.1990833 -0.0209827758
v 0.0379219428 -0.203846008 -0.0209827758
v -0.100245982 -0.180883288 -0.0209827758
v 0.144036561 -0.17542024 -0.0209827758
v 0.0221418384 -0.192054257 -0.0209827758
v 0.188323319 -0.279999971 -0.0208436511
v 0.1586625 -0.160418257 -0.0209827758
v 0.163009971 -0.14876087 -0.0209827758
v 0.163853332 -0.134779528 -0.0209827758
v 0.187909827 -0.05075 -0.0208602753
v 0.160161167 -0.122898318 -0.0209827758
v 0.152275413 -0.111322351 -0.0209827758
v 0.140116945 -0.1031747 -0.0209827758
v 0.108168758 -0.0502652377 -0.0209827758
v 0.0380190164 -0.0761664 -0.0209827758
v 0.104277961 -0.04635799 -0.0210833456
v 0.02481622 -0.07648552 -0.0209827758
v -0.110314153 -0.04619922 -0.0210416354
v 0.0214128178 -0.0796249956 -0.0209827758
v -0.103029981 -0.09464776 -0.0209827758
v 0.0206335466 -0.08533329 -0.0209827758
v -0.100245982 -0.102133282 -0.0209827758
v 0.02567539 -0.08999233 -0.0210675485
v -0.104639977 -0.107198022 -0.0211284123
v -0.103125922 -0.173353061 -0.0210713614
v 0.028735185 -0.189767584 -0.02112747
v -0.114319213 -0.09366688 -0.0139827756
v -0.102814361 -0.0945361257 -0.0139827756
v -0.114207923 -0.05026524 -0.0139827756
v -0.110151514 -0.04604757 -0.0141123487
vn 0 0.9791982 0.202906013
vn 0 0.9791982 0.202906013
vn 0 0.9791982 0.202906013
vn 0.02698125 0.9782372 0.2057281
vn 0.02698125 0.9782372 0.2057281
vn 0.02698125 0.9782372 0.2057281
vn 0 1 0
vn 0 1 0
vn 0 1 0
vn 0 1 7.460192E-07
vn 0 1 7.460192E-07
vn 0 1 7.460192E-07
vn -0.0333027132 -0.999444246 -0.00147706713
vn -0.0333027132 -0.999444246 -0.00147706713
vn -0.0333027132 -0.999444246 -0.00147706713
vn -0.0269798059 -0.9782372 0.205728069
vn -0.0269798059 -0.9782372 0.205728069
vn -0.0269798059 -0.9782372 0.205728069
vn 0.2209521 -0.9596186 0.1741044
vn 0.2209521 -0.9596186 0.1741044
vn 0.2209521 -0.9596186 0.1741044
vn 0.0161441881 -0.874394 0.4849479
vn 0.007975432 -0.689976454 0.723787844
vn 0.0252676122 -0.874468 0.4844246
vn -0.0342768952 -0.6528469 0.756714046
vn -0.025493864 -0.653576851 0.756430745
vn -0.0214256141 -0.849386334 0.527336538
vn 0.02919665 -0.465201 0.8847235
vn 0.0202292353 -0.181146652 0.983248
vn 0.0403708778 -0.4657718 0.8839835
vn -0.0403728932 -0.124239244 0.9914306
vn -0.02919867 -0.1251307 0.991710544
vn -0.0202313643 -0.414429724 0.909856439
vn 0.0291986763 0.125130147 0.9917106
vn 0.02023138 0.414429218 0.9098567
vn 0.04037287 0.124238715 0.9914307
vn -0.04037292 0.4657723 0.883983135
vn -0.0291987546 0.465201616 0.884723067
vn -0.0202314332 0.181147292 0.9832479
vn 0.0254925974 0.6535774 0.756430268
vn 0.021424396 0.849386752 0.5273359
vn 0.0342756733 0.6528474 0.7567136
vn -0.0252674427 0.874467432 0.4844257
vn -0.0161439423 0.874393463 0.484948933
vn -0.0079753 0.68997556 0.7237888
vn 0 -0.472789019 0.8811757
vn 0 0.07869883 0.9968984
vn 0.03313138 -0.470875859 0.8815772
vn -0.067336 0.138130277 0.9881224
vn -0.0392955281 0.13934952 0.98946327
vn -0.03929554 -0.418159753 0.9075232
vn 0.04627842 0.4919439 0.8693961
vn 0.0462784022 0.8841898 0.464829832
vn 0.101382263 0.493830055 0.8636281
vn -0.101373725 0.925100863 0.3659396
vn -0.0462789 0.9305407 0.363252461
vn -0.0462782681 0.5859327 0.809037268
vn 0.04628111 0.9951915 -0.08632473
vn 0.0462811664 0.7901315 -0.611187637
vn 0.10138531 0.9907282 -0.09043618
vn -0.101384178 0.7171345 -0.689521134
vn -0.0462801047 0.7169499 -0.69558686
vn -0.0462800935 0.979330361 -0.196901351
vn 0.04627936 0.334894121 -0.9411186
vn 0.04627935 -0.227723 -0.972625554
vn 0.101382472 0.329300046 -0.9387668
vn -0.101384588 -0.3292995 -0.9387667
vn -0.0462814756 -0.3348933 -0.9411188
vn -0.04628147 0.227723688 -0.9726253
vn 0.0462799519 -0.716951132 -0.695585549
vn 0.0462799221 -0.9793307 -0.1968997
vn 0.101384088 -0.7171357 -0.6895198
vn -0.1013834 -0.990728 -0.0904399753
vn -0.04627914 -0.9951913 -0.08632818
vn -0.0462791473 -0.7901294 -0.611190438
vn 0.0392961428 -0.9579209 0.2843297
vn 0.0392955951 -0.651800156 0.757372
vn 0.06733161 -0.956195056 0.284881622
vn -0.0331309848 -0.606299341 0.7945461
vn 0 -0.6051395 0.7961195
vn 0 -0.939502358 0.3425425
vn -0.0176436026 0.999631047 0.0206523016
vn -0.0176436026 0.999631047 0.0206523016
vn -0.0176436026 0.999631047 0.0206523016
vn -0.009618806 0.999783 0.018479282
vn -0.009618806 0.999783 0.018479282
vn -0.009618806 0.999783 0.018479282
vn -1 0 0
vn -1 0 0
vn -1 0 0
vn -1 0 0
vn -1 0 0
vn -1 0 0
vn -1 -1.28073486E-06 0
vn -1 -1.28073486E-06 0
vn -1 -1.28073486E-06 0
vn -1 0 0
vn -1 0 0
vn -1 0 0
vn 0 1 0
vn 0 1 0
vn 0 1 0
vn -0.0251318328 -0.9994978 -0.01930511
vn -0.0251318328 -0.9994978 -0.01930511
vn -0.0251318328 -0.9994978 -0.01930511
vn 0.06143879 -0.997835636 -0.02343757
vn 0.06143879 -0.997835636 -0.02343757
vn 0.06143879 -0.997835636 -0.02343757
vn -0.0675562546 -0.993248343 0.09430706
vn -0.0675562546 -0.993248343 0.09430706
vn -0.0675562546 -0.993248343 0.09430706
vn 0.999999762 0.0003721324 0.0005642964
vn 1 0 0
vn 1 0 0
vn 0.999999762 0.0003721324 0.0005642964
vn 0.999999762 0.0006059365 0.0004678305
vn 0.999999762 0.0003721324 0.0005642964
vn 1 0 0
vn 1 2.584097E-07 0
vn 1 2.584097E-07 0
vn 1 0 0
vn 1 2.53592134E-07 0
vn 1 4.941566E-07 0
vn 1 4.941566E-07 0
vn 1 0 0
vn 1 0 0
vn 1 0 0
vn 1 0 0
vn 1 0 0
vn 1 0 0
vn 0.9960333 -0.0130513432 0.08801896
vn 0.9960333 -0.0130513432 0.08801896
vn 0.9960333 -0.0130513432 0.08801896
vn 1 0 0
vn 1 0 0
vn 1 0 0
vn 1 0 0
vn 1 0 0
vn 1 0 0
vn 0.9998259 2.71084787E-06 0.0186601114
vn 0.9998259 2.71084787E-06 0.0186601114
vn 0.9996877 0.0005382414 0.0249870736
vn 0.9996877 0.0005382414 0.0249870736
vn -0.76717633 0.00160256063 -0.6414343
vn -0.463328749 -0.00120039238 -0.8861857
vn -0.7671745 0.002816216 -0.6414323
vn -0.4063086 -0.00200332119 -0.9137337
vn -0.406306922 -0.0007391224 -0.9137364
vn -0.725036442 0.0024623503 -0.6887061
vn -0.922881 0.00194557931 -0.3850803
vn -0.7053372 -0.00306149735 -0.708865345
vn -0.922876239 0.004287642 -0.385072827
vn -0.6589078 -0.0053311754 -0.752204835
vn -0.6589231 -0.00305344746 -0.7522042
vn -0.8965777 0.00143258646 -0.4428841
vn -0.4170887 0.00103170681 -0.9088652
vn -0.03768853 -0.00126126688 -0.999288738
vn -0.417125 0.00685603544 -0.9088233
vn 0.0273092985 -0.00493424945 -0.999614835
vn 0.0272959452 -0.007070192 -0.9996024
vn -0.356776774 0.0102167726 -0.934133768
vn -0.8145854 -0.5790906 0.0332386643
vn -0.995023251 -0.0939357653 0.03323866
vn -0.8162466 -0.566946268 0.110965893
vn -0.991849542 -0.0263778716 -0.124654382
vn -0.9985265 -0.0172654968 -0.0514459
vn -0.855759263 -0.514810145 -0.0514459
vn -0.8990565 0.43618086 0.03799627
vn -0.559928954 0.8270764 0.04923654
vn -0.8951554 0.4373672 0.08606312
vn -0.482945949 0.8723404 -0.0760626048
vn -0.481373847 0.8760407 -0.0288442057
vn -0.85482043 0.5176812 -0.0358921252
vn 0.529014349 -0.8485564 -0.009793903
vn 0.751056254 -0.6601656 -0.009793909
vn 0.531415761 -0.846112132 -0.041129183
vn 0.7688519 -0.6352611 0.07287066
vn 0.7715842 -0.6344787 0.04576784
vn 0.5558281 -0.830036461 0.0457678363
vn 0.892762 -0.4479029 -0.0485693738
vn 0.984007955 -0.171374738 -0.04856938
vn 0.8923672 -0.4442119 -0.07972854
vn 0.9893371 -0.121882357 0.0797293559
vn 0.991703 -0.11902184 0.048570253
vn 0.9152298 -0.399994284 0.04857026
vn 0.991703 0.11902196 -0.04857027
vn 0.915229738 0.3999944 -0.0485702828
vn 0.9893371 0.121882491 -0.07972938
vn 0.892367244 0.444211841 0.079728514
vn 0.892762065 0.447902858 0.04856937
vn 0.984008 0.1713747 0.0485693738
vn 0.771584332 0.6344787 -0.0457658619
vn 0.555828154 0.8300365 -0.0457658544
vn 0.768851936 0.635261238 -0.07286864
vn 0.5314169 0.8461113 0.0411315523
vn 0.529015839 0.848555446 0.009796194
vn 0.7510573 0.660164356 0.00979618449
vn 0.256487846 0.9665457 -0.00184655911
vn 0.256487846 0.9665457 -0.00184655911
vn 0.256487846 0.9665457 -0.00184655911
vn 0.257994115 0.96594 0.0199742466
vn 0.257994115 0.96594 0.0199742466
vn 0.257994115 0.96594 0.0199742466
vn -0.5252073 -0.8376459 -0.150022253
vn -0.5300125 -0.842462242 -0.09666552
vn -0.0350551456 -0.992175043 -0.119832583
vn -0.806006551 -0.584253252 0.09487666
vn -0.9908997 -0.100811906 0.08918951
vn -0.8036269 -0.5789452 0.137863368
vn -0.994120657 0.04585227 -0.09809047
vn -0.9976801 0.0506190546 -0.045520246
vn -0.8890799 -0.455483019 -0.0455202647
vn -0.902449369 0.428655684 0.042889066
vn -0.566823959 0.822721839 0.042889066
vn -0.8983536 0.430373877 0.08797252
vn -0.519168258 0.8526214 -0.0591703467
vn -0.5160299 0.856527567 -0.008588631
vn -0.8751603 0.48375684 -0.008588634
vn 0.900468 0.0338032134 0.433606684
vn 0.5639687 0.00387240131 0.8257871
vn 0.9010045 0.0158852227 0.4335189
vn 0.034434665 -0.009558811 0.9993612
vn 0.0344775356 -0.02148578 0.9991745
vn 0.5293833 -0.00541842869 0.8483655
vn 0.464686245 0.883054733 0.06542951
vn 0.8448195 0.5317843 0.0590381064
vn 0.465168655 0.8796058 0.0995579362
vn 0.9039543 0.419660419 -0.08216879
vn 0.9073231 0.418345749 -0.0418522656
vn 0.576221466 0.816221356 -0.0418522842
vn 0.9912905 0.125885382 0.03867848
vn 0.92127645 -0.386980265 0.0386784859
vn 0.9900262 0.124628626 0.06569551
vn 0.807577848 -0.57625556 -0.125489056
vn 0.8086782 -0.5768934 -0.115037717
vn 0.989115953 -0.0917382 -0.115037754
vn 0.8428618 -0.5320061 0.08095413
vn 0.462393 -0.882971764 0.0809541643
vn 0.8394942 -0.5432851 0.009531893
vn -0.995173454 0.07870386 -0.0586131439
vn -0.9021583 -0.42995894 -0.0352956541
vn -0.9969624 0.0591509342 0.0506659
vn -0.8446067 -0.533895 0.03994593
vn -0.464138061 -0.884861648 0.03994597
vn -0.8428771 -0.538073659 -0.00592005253
vn -0.500602 -0.865672648 0.00290593226
vn -0.8662148 -0.499451637 0.0148302317
vn -0.9982817 -0.0261270348 0.05245026
vn -0.9982817 -0.0261270348 0.05245026
vn -0.9982817 -0.0261270348 0.05245026
vn -0.480658352 0.0119081885 0.8768271
vn -0.8538332 -0.0181390978 0.5202306
vn -0.480888218 0.0244077928 0.876442134
vn -0.8784945 -0.0255678128 0.477067858
vn -0.8785268 -0.0144706182 0.477473766
vn -0.5236474 0.0009172913 0.8519346
vn -0.000582747569 -0.92288357 -0.385078669
vn 0.0009810614 -0.7052691 -0.7089391
vn -0.00130613812 -0.922883153 -0.385078
vn 0.0016216035 -0.658918 -0.752213061
vn 0.000918401 -0.658919454 -0.752212942
vn -0.000487505458 -0.8966221 -0.44279626
vn 0.516028345 0.8565285 0.008582179
vn 0.8751599 0.483757615 0.008582173
vn 0.519168437 0.8526218 0.0591635071
vn 0.8983531 0.430376172 -0.0879665539
vn 0.9024492 0.4286567 -0.04288341
vn 0.5668227 0.8227229 -0.0428834036
vn 0.99768 0.0506212264 0.04552107
vn 0.889080942 -0.455481 0.04552109
vn 0.9941204 0.0458544828 0.09809149
vn 0.838007331 -0.5367696 -0.09809252
vn 0.838706732 -0.5426774 -0.04552203
vn 0.997707248 -0.05008029 -0.045522023
vn 0.561505258 -0.8265937 0.0381417274
vn 0.07256397 -0.9961657 0.04887166
vn 0.556714535 -0.8257619 0.0904781
vn -0.0795052946 -0.990225852 -0.114593275
vn -0.08055914 -0.9927503 -0.08920234
vn 0.4285812 -0.899543 -0.08450153
vn -0.00328667485 0.445093483 0.8954781
vn 0.00464503746 0.8331556 0.553019166
vn 0.002265184 0.445072144 0.895491838
vn -0.0024565754 0.866967261 0.498359054
vn -0.008703807 0.8668838 0.498434246
vn 0.00687227 0.501742959 0.86498946
vn -0.0187492464 -0.8986252 0.438316315
vn 0.006167028 -0.779248536 0.626684666
vn -0.010867266 -0.898911834 0.4379948
vn 0.0255967248 -0.887008965 0.461042166
vn 0.0251184069 -0.763137162 0.645748258
vn -0.0353316441 -0.639771044 0.767753065
vn -0.0261554979 -0.45382297 0.8907079
vn -0.0276674647 -0.639293849 0.7684646
vn 0.0261576176 -0.607635736 0.793785
vn 0.0276693869 -0.4173195 0.908338547
vn 0.035333544 -0.41647166 0.9084618
vn 0.111572348 0.052855216 0.9923497
vn 0.0192867145 0.2511754 0.9677494
vn 0.00549165159 0.23955901 0.970866263
vn -0.00548939453 0.206413925 0.978449345
vn -0.111569971 0.383886248 0.916615248
vn -0.0192845315 0.194598079 0.9806935
vn -0.0318185166 0.7625077 0.6461963
vn -0.0255975146 0.887009442 0.461041182
vn -0.0251191463 0.763137758 0.6457474
vn 0.0109013319 0.8989115 0.437994629
vn 0.0187512543 0.898625433 0.438315779
vn 0.046911452 -0.918536365 -0.3925434
vn 0.0469114557 -0.998326838 -0.0338052772
vn 0.08765301 -0.9176315 -0.387646049
vn 0.0130636832 -0.9983369 -0.0561489
vn 0.06625588 -0.996665239 -0.0476288237
vn 0.06625556 -0.9118216 -0.405205637
vn -0.0146818161 -0.905201256 0.424729526
vn -0.08975605 -0.894247234 0.438481241
vn -0.08975569 -0.992387831 0.0843229
vn 0.08975669 -0.9562598 0.2784079
vn 0.08975666 -0.790192 0.606251061
vn 0.01468234 -0.9550906 0.295950085
vn 0.0469106436 -0.126189217 0.9908964
vn 0.04691066 0.240690276 0.9694677
vn 0.08765226 -0.121726178 0.9886859
vn -0.0876525342 0.301324069 0.9494845
vn -0.046910923 0.306117177 0.9508373
vn -0.0469109267 -0.05845289 0.9971874
vn 0.0399418063 0.5317122 0.84598273
vn 0.03994179 0.8015925 0.596535
vn 0.06189284 0.5320742 0.8444326
vn -0.0261756275 0.822559237 0.56807667
vn 1.61367055E-07 0.823887 0.566754162
vn -1.60959814E-07 0.5635119 0.826108
vn 0 0.874574244 0.484891653
vn 0 0.990680039 0.136209726
vn 0.0261758752 0.875166237 0.483113766
vn -0.0618929267 0.993071258 0.09989371
vn -0.03994177 0.994297564 0.09887873
vn -0.0399415269 0.891298354 0.451654583
vn 0.0399413742 0.9942975 -0.09887949
vn 0.03994141 0.891298056 -0.4516553
vn 0.0618924238 0.993071258 -0.09989448
vn -0.0261756424 0.8751662 -0.483113825
vn 1.61366884E-07 0.8745742 -0.484891742
vn -1.60960013E-07 0.990680039 -0.136209816
vn 0 0.8238872 -0.566753864
vn 0 0.5635122 -0.82610774
vn 0.02617568 0.822559536 -0.568076253
vn -0.0618920252 0.532072663 -0.844433546
vn -0.039941147 0.531710565 -0.8459838
vn -0.0399408564 0.8015915 -0.596536458
vn 0.046910692 0.3061167 -0.9508375
vn 0.04691069 -0.05845348 -0.9971873
vn 0.08765252 0.3013234 -0.9494847
vn -0.08765245 -0.121725827 -0.988685966
vn -0.0469106548 -0.126188934 -0.990896463
vn -0.0469106548 0.240690559 -0.9694676
vn 0.0469110422 -0.414354056 -0.908906
vn 0.0469110236 -0.7149998 -0.697549045
vn 0.08765242 -0.4169849 -0.904677153
vn -0.08765358 -0.756030142 -0.6486411
vn -0.04691215 -0.760817468 -0.6472682
vn -0.0469121337 -0.475253969 -0.87859714
vn 5.857911E-07 0.826848149 -0.562425256
vn -5.682389E-07 0.9949181 0.100687772
vn -0.03595093 0.8273134 -0.560588956
vn 0.07203611 0.981604457 0.176814914
vn 0.0418978557 0.983156145 0.177900568
vn 0.041897852 0.867155135 -0.496272743
vn -0.0494383648 0.8095847 0.5849175
vn -0.0494374 0.243342042 0.968679845
vn -0.109809421 0.8033418 0.585306644
vn 0.109817676 0.105173096 0.9883718
vn 0.0494387746 0.101714581 0.9935844
vn 0.0494396277 0.7171977 0.6951138
vn -0.04943887 -0.435406417 0.8988754
vn -0.0494387746 -0.911707938 0.407853484
vn -0.109818071 -0.436873853 0.8927941
vn 0.109817892 -0.955091834 0.2752083
vn 0.0494385958 -0.960826039 0.272707283
vn 0.049438443 -0.5599707 0.8270361
vn -0.04943754 -0.960825861 -0.272707939
vn -0.0494373851 -0.5599699 -0.8270367
vn -0.109816581 -0.9550917 -0.275209337
vn 0.109816879 -0.436872423 -0.8927949
vn 0.04943784 -0.4354052 -0.8988761
vn 0.0494377762 -0.9117074 -0.407854885
vn -0.0418976955 -0.004475862 -0.9991119
vn -0.0418973938 0.639275432 -0.7678357
vn -0.07203575 -0.00367578841 -0.9973953
vn 0.03594647 0.695693851 -0.717438459
vn 0 0.697421432 -0.7166613
vn 0 0.0736479461 -0.9972843
vn 0 1 0
vn 0 1 0
vn 0 1 0
vn 0 1 5.238246E-07
vn 0 1 5.238246E-07
vn 0 1 5.238246E-07
vn -1 1.59196634E-06 0
vn -1 1.59196634E-06 0
vn -1 -4.530085E-07 0
vn -1 5.9482386E-07 0
vn -1 0 0
vn -1 -7.67184133E-07 0
vn -1 0 0
vn -1 -3.85695728E-07 0
vn -1 0 0
vn -1 0 0
vn -1 0 0
vn -1 1.98377762E-07 0
vn -1 0 0
vn -1 9.101823E-07 0
vn -1 3.13810972E-07 0
vn -1 3.13810972E-07 0
vn -0.999982357 -0.0005202938 0.005921751
vn -0.9999872 0.000294504 0.00505656749
vn -1 0 0
vn -1 0 0
vn -1 0 0
vn -1 6.336208E-07 0
vn -1 -9.698832E-07 0
vn -1 0 0
vn -1 0 0
vn -1 3.524532E-07 0
vn -1 3.524532E-07 0
vn -1 0 0
vn -1 0 0
vn -0.999443352 -0.0227352325 0.0244144183
vn -0.999443352 -0.0227352325 0.0244144183
vn -0.999443352 -0.0227352325 0.0244144183
vn -0.999236941 0.025868725 0.0292645767
vn -0.999236941 0.025868725 0.0292645767
vn -0.999236941 0.025868725 0.0292645767
vn -1 -2.22165318E-06 0
vn -1 -2.22165318E-06 0
vn -1 -2.22165318E-06 0
vn 0 -1 0
vn 0 -1 0
vn 0 -1 0
vn 0 -1 1.36735466E-07
vn 0 -1 1.36735466E-07
vn 0 -1 1.36735466E-07
vn 0.9991454 -0.0269393474 -0.03135029
vn 0.9991454 -0.0269393474 -0.03135029
vn 0.9991454 -0.0269393474 -0.03135029
vn 0.999511957 0.021654034 -0.0225179736
vn 0.999511957 0.021654034 -0.0225179736
vn 0.999511957 0.021654034 -0.0225179736
vn 1 8.71651139E-07 0
vn 1 8.71651139E-07 0
vn 1 8.71651139E-07 0
vn 1 7.98248266E-07 0
vn 1 7.98248266E-07 0
vn 1 7.98248266E-07 0
vn 1 -2.673148E-07 0
vn 1 -7.369979E-07 -2.65202175E-06
vn 1 -7.369979E-07 -2.65202175E-06
vn 1 0 1.33105118E-06
vn 1 0 1.33105118E-06
vn 1 -8.333967E-07 1.41282976E-06
vn 1 0 0
vn 1 0 0
vn 1 0 0
vn 1 0 -6.637069E-07
vn 1 0 -1.73510259E-07
vn 1 0 7.50405832E-07
vn 1 4.11575627E-07 -1.373516E-07
vn 1 -1.471915E-06 -1.01439809E-06
vn 1 -1.65357926E-06 5.51835171E-07
vn 1 -1.65357926E-06 5.51835171E-07
vn 0.9999889 -0.0005929969 -0.00466705067
vn 1 0 0
vn 1 0 0
vn 1 -5.23569554E-07 0
vn 1 5.561426E-07 -8.38296671E-07
vn 1 0 0
vn 1 0 1.128121E-06
vn 1 0 0
vn 1 0 0
vn 1 0 0
vn 0.999977946 0.00122261769 -0.00653636642
vn 0.999977946 0.00122261769 -0.00653636642
vn 0.00914603751 0.999925852 0.00804111
vn 0.00914603751 0.999925852 0.00804111
vn 0.00914603751 0.999925852 0.00804111
vn -0.4264869 -0.0005043832 0.9044936
vn -0.82148397 0.0103159333 0.5701383
vn -0.426432669 0.008424747 0.9044801
vn -0.8787142 -0.005362821 0.477318138
vn -0.8787411 -0.00119047193 0.477297336
vn -0.522376835 -0.00119046855 0.852713943
vn -0.0130104022 -0.9998488 0.0115408041
vn -0.0130104022 -0.9998488 0.0115408041
vn -0.0130104022 -0.9998488 0.0115408041
vn -0.04284464 0.00190989254 -0.999079943
vn 0.3426337 -0.00120867067 -0.9394683
vn -0.04285991 0.00294614723 -0.9990767
vn 0.424458563 -0.004214934 -0.9054376
vn 0.4244602 -0.00282499287 -0.905442238
vn 0.0457457379 0.002909627 -0.9989489
vn 0.665004253 0.00206060125 -0.7468367
vn 0.9001644 -0.00143797987 -0.435547918
vn 0.664997339 0.00373424334 -0.7468364
vn 0.924779832 -0.00312333973 -0.380489916
vn 0.924783647 -0.00137984916 -0.3804909
vn 0.7088142 0.00273970049 -0.7053899
vn 0.0591936447 0.997208953 -0.0455022678
vn 0.0591936447 0.997208953 -0.0455022678
vn 0.0591936447 0.997208953 -0.0455022678
vn 0.0176441576 -0.999642968 0.02006574
vn 0.0176441576 -0.999642968 0.02006574
vn 0.0176441576 -0.999642968 0.02006574
vn 0.0101520773 -0.9997835 0.0181628913
vn 0.0101520773 -0.9997835 0.0181628913
vn 0.0101520773 -0.9997835 0.0181628913
vn 0.9998126 -2.69400221E-06 -0.0193594
vn 1 0 0
vn 1 0 0
vn 0.9998126 -2.69400221E-06 -0.0193594
vn 0.9998126 -2.69400221E-06 -0.0193594
vn 0.9987966 -0.002682161 -0.0489725135
vn 1 2.12239357E-07 0
vn 1 2.12239357E-07 0
vn 1 2.12239357E-07 0
vn 0 1 0
vn 0 1 0
vn 0 1 0
vn -1 0 0
vn -1 0 0
vn -1 0 0
vn 0.727505744 -0.0005669575 -0.686101437
vn 0.727495551 0.000377089484 -0.686112344
vn 0.934668541 0.00460885931 -0.355490565
vn 0.759866655 -0.001182405 -0.650077939
vn 0.453256756 -0.00255867513 -0.8913763
vn 0.759867668 -0.00131424842 -0.650076449
vn 0.323665321 0.00103850593 -0.9461711
vn 0.32366544 0.0006096891 -0.9461714
vn 0.661118269 -0.0003610925 -0.750281632
vn -0.8720641 -0.0008332039 0.4893909
vn -0.5105479 -0.0008331906 0.8598489
vn -0.8720592 -0.00251866 0.48939383
vn -0.4524909 0.00253109774 0.8917654
vn -0.45248735 0.0007745668 0.8917705
vn -0.83774215 0.0007745799 0.54606545
vn 0.00449796952 -0.9999895 0.0009259509
vn 0.00449796952 -0.9999895 0.0009259509
vn 0.00449796952 -0.9999895 0.0009259509
vn 0.0128128752 -0.9957401 -0.0913098
vn 0.0128128752 -0.9957401 -0.0913098
vn 0.0128128752 -0.9957401 -0.0913098
vn 0.8153602 -0.563361943 -0.133458272
vn 0.8161088 -0.5634559 -0.128389508
vn 0.9859165 -0.0749357641 -0.149510309
vn 0.8769416 -0.470116466 0.0998195559
vn 0.522695661 -0.847465158 0.09269377
vn 0.8745195 -0.484660268 0.0178889241
vn -0.6101646 0.791431069 -0.03655123
vn -0.7678913 0.6395365 -0.0365514234
vn -0.612492144 0.7876368 -0.06694551
vn -0.783744335 0.6161739 0.07793961
vn -0.787257731 0.614581168 0.0501530245
vn -0.634364 0.7714058 0.05015302
vn -0.9986602 -0.03622434 0.0369534343
vn -0.9947989 -0.0497035235 0.0889086947
vn -0.981611431 0.168920815 0.08890862
vn -0.991019 0.0204718877 -0.132144764
vn -0.9713225 -0.1976623 -0.1321447
vn -0.9938491 0.0177554134 -0.10931012
vn -0.915199757 -0.397515267 0.0662653148
vn -0.9132989 -0.398487568 0.08421898
vn -0.97829473 -0.189332023 0.084218964
vn -0.910393834 -0.405214041 -0.08357422
vn -0.7998814 -0.594310641 -0.08357423
vn -0.909841955 -0.405103654 -0.08988155
vn -0.7592205 -0.6488861 0.0503099449
vn -0.7592259 -0.6497063 0.0381799638
vn -0.882535 -0.46869427 0.03817998
vn -0.6622032 -0.7481353 -0.0421966463
vn -0.4833598 -0.874404252 -0.04219665
vn -0.6603861 -0.7484326 -0.06114671
vn -0.464185148 -0.885177851 0.0315014757
vn -0.462383479 -0.88663286 0.009148736
vn -0.6442873 -0.764728844 0.009148686
vn -0.254425138 -0.9670908 -0.001811791
vn -0.254425138 -0.9670908 -0.001811791
vn -0.254425138 -0.9670908 -0.001811791
vn -0.255692452 -0.966579139 0.0186043233
vn -0.255692452 -0.966579139 0.0186043233
vn -0.255692452 -0.966579139 0.0186043233
vn 0.0241634939 -0.9997058 0.00210886658
vn 0.0241634939 -0.9997058 0.00210886658
vn 0.0241634939 -0.9997058 0.00210886658
vn 0.0672763 -0.994613647 -0.07885204
vn 0.0672763 -0.994613647 -0.07885204
vn 0.0672763 -0.994613647 -0.07885204
vn 0.99774003 -0.0299955849 0.0601258576
vn 0.99774003 -0.0299955849 0.0601258576
vn 0.99774003 -0.0299955849 0.0601258576
vn 0.9993778 -0.02605676 0.0237715449
vn 0.9993778 -0.02605676 0.0237715449
vn 0.9993778 -0.02605676 0.0237715449
vn 0.999838233 -0.00500647444 0.0172768589
vn 0.999838233 -0.00500647444 0.0172768589
vn 0.999838233 -0.00500647444 0.0172768589
vn 0.878528655 0.0144695519 0.4774705
vn 0.5236507 -0.0009181779 0.8519326
vn 0.8784964 0.0255665686 0.477064371
vn 0.480891615 -0.0244093351 0.8764402
vn 0.4806612 -0.0119096544 0.8768255
vn 0.853826165 0.01826405 0.520237744
vn -0.004968554 -0.5754509 0.8178212
vn 0.009354625 -0.08964703 0.995929658
vn 0.006383945 -0.5755033 0.8177746
vn -0.00450267736 -0.0310766976 0.999506831
vn -0.007987357 -0.0311565883 0.999482632
vn 0.007889928 -0.5265106 0.8501319
vn 1 0 0
vn 1 0 0
vn 1 0 0
vn 0.0005828023 0.922884 -0.385077715
vn -0.0009810369 0.7052699 -0.7089383
vn 0.00130622182 0.9228835 -0.38507697
vn -0.00162161607 0.6589172 -0.7522138
vn -0.0009184048 0.6589185 -0.7522138
vn 0.000487507117 0.896621644 -0.442797273
vn -1 0 0
vn -1 0 0
vn -1 0 0
vn 0.999336839 -0.0259323083 0.02556172
vn 0.999336839 -0.0259323083 0.02556172
vn 0.999336839 -0.0259323083 0.02556172
vn 0.9998642 -0.00215745741 0.01633927
vn 0.9998642 -0.00215745741 0.01633927
vn 0.9998642 -0.00215745741 0.01633927
vn 0.87852937 0.0144695705 0.4774691
vn 0.523652136 -0.000918054837 0.8519317
vn 0.8784971 0.0255665164 0.4770631
vn 0.480890125 -0.0244092476 0.876441061
vn 0.480659783 -0.0119096311 0.8768263
vn 0.8538253 0.01826404 0.520239234
vn -0.9993777 0.0260579959 0.0237715617
vn -0.9993777 0.0260579959 0.0237715617
vn -0.9993777 0.0260579959 0.0237715617
vn -0.999871969 0.0008101909 0.0159801655
vn -0.999871969 0.0008101909 0.0159801655
vn -0.999871969 0.0008101909 0.0159801655
vn -0.48065567 0.0119081279 0.8768286
vn -0.853825569 -0.0182233322 0.5202402
vn -0.480885655 0.0244076867 0.876443565
vn -0.8784958 -0.0255677849 0.477065355
vn -0.878528237 -0.0144706545 0.4774712
vn -0.52365 0.0009171777 0.851933062
vn -0.8817439 0.471704543 0.004737774
vn -0.5278011 0.8493678 -0.0005672083
vn -0.8781956 0.475337684 0.05316636
vn -0.5200286 0.8521172 -0.05887816
vn -0.516935766 0.855904758 -0.0142978719
vn -0.875660539 0.482918829 -0.00283924863
vn 0.890824 0.453520268 -0.0274223369
vn 0.5444665 0.8381565 -0.0324028023
vn 0.888167262 0.454652876 -0.06670577
vn 0.503698349 0.8624396 0.04985991
vn 0.501717269 0.8650218 0.004125105
vn 0.86689955 0.498298228 0.0135643734
vn 0.0478458367 0.00361659424 0.9988482
vn 0.0478458367 0.00361659424 0.9988482
vn 0.0478458367 0.00361659424 0.9988482
vn -0.0399299078 -0.00226012943 0.9991999
vn -0.0399299078 -0.00226012943 0.9991999
vn -0.0399299078 -0.00226012943 0.9991999
vn -0.0008633774 0.001285945 0.9999988
vn -0.009264503 0.000175255293 0.9999571
vn 0 0 1
vn 0 0 1
vn 0 0 1
vn 1.50610035E-07 0 1
vn 1.50610035E-07 0 1
vn 0 0 1
vn 0 0 1
vn 0.0010753551 -2.24442275E-07 0.9999994
vn 0.000292787678 0.001103317 0.9999994
vn 0.0008327135 0.0009185894 0.9999993
vn 0.00218165643 0.00059390557 0.9999975
vn 0.00461523 0.0001304607 0.9999894
vn -0.009264503 0.000175255293 0.9999571
vn 0 0 1
vn 0.00233840314 -0.02209932 0.999753058
vn 0 0 1
vn 0 0 1
vn -0.000361119164 0.00261757453 0.999996543
vn -0.0003329325 0.00273840036 0.9999962
vn -0.0003329325 0.00273840036 0.9999962
vn -0.0003329325 0.00273840036 0.9999962
vn 0.001985772 -0.000655289448 0.999997854
vn 0.001985772 -0.000655289448 0.999997854
vn 0.0009264466 -0.001091961 0.999999
vn 0.0003784356 -0.00141691207 0.9999989
vn 0.000839642365 -2.15266982E-06 0.999999642
vn -0.00356860436 0.009734235 0.999946237
vn -0.00356860436 0.009734235 0.999946237
vn 0 0 1
vn -0.0016079304 -0.0009710596 0.9999982
vn -0.00104476628 -0.00147980393 0.999998331
vn -0.001812647 -0.00105931226 0.999997854
vn -0.00397523772 -0.0003589359 0.999992
vn -0.00517279 -6.32347146E-05 0.999986649
vn -0.0001536966 0.002275811 0.9999974
vn -0.0001536966 0.002275811 0.9999974
vn -0.00153576885 0.000558398431 0.9999987
vn -0.00153576885 0.000558398431 0.9999987
vn -0.000728644838 0.000756677066 0.999999464
vn -0.00138439308 0.000486392964 0.9999989
vn 0 0 1
vn 0 0 1
vn -0.0005205892 0.04569794 0.9989552
vn -0.0004324353 0.0433440655 0.9990601
vn 0.0176166017 -0.999521136 0.0254396051
vn 0.0176166017 -0.999521136 0.0254396051
vn 0.0176166017 -0.999521136 0.0254396051
vn -0.010367481 -0.9998394 0.0146160657
vn 0.0117642516 -0.8717292 0.489846677
vn -0.0221320279 -0.5115581 0.858963668
vn 0.02598612 -0.871256232 0.4901401
vn -0.0117674973 -0.4898497 0.8717275
vn 0.01774236 0.00056307565 0.9998424
vn 0.01774236 0.00056307565 0.9998424
vn 0.01774236 0.00056307565 0.9998424
vn -0.01774232 -0.000563079433 0.9998424
vn 0.0117662828 0.489843339 0.8717311
vn -0.0221301261 0.8589615 0.511561751
vn 0.0259881634 0.4901368 0.871258
vn -0.011766444 0.87173146 0.4898426
vn -0.999312639 5.41685267E-06 -0.0370700732
vn -0.999312639 5.41685267E-06 -0.0370700732
vn -0.999312639 5.41685267E-06 -0.0370700732
vn -0.9984944 -0.00175933819 -0.05482618
vn -1 0 0
vn -1 1.71185917E-07 0
vn -1 0 0
vn -1 0 0
vn -1 0 0
vn -1 0 0
vn -1 -2.58409955E-07 0
vn -1 -2.58409955E-07 0
vn -1 0 0
vn -1 0 0
vn -1 0 0
vn -1 0 0
vn -1 0 0
vn -1 2.01837133E-06 0
vn -1 0 0
vn -0.9990145 -0.00285379076 -0.04429458
vn -0.9990145 -0.00285379076 -0.04429458
vn -0.029188456 0.9995166 0.0107032368
vn -0.029188456 0.9995166 0.0107032368
vn -0.029188456 0.9995166 0.0107032368
vn -0.0337844938 0.9991974 0.0215193685
vn 0 -1 0
vn 0 -1 0
vn 0 -1 0
vn 0 -1 0
vn 0 1 0
vn 0 1 0
vn 0 1 0
vn 0 1 0
vn -0.07533971 -0.9971539 -0.00283746258
vn -0.07533971 -0.9971539 -0.00283746258
vn -0.07533971 -0.9971539 -0.00283746258
vn -0.08840223 -0.9959111 0.0186060425
vn 0.256487876 -0.9665457 0.00184430776
vn 0.256487876 -0.9665457 0.00184430776
vn 0.256487876 -0.9665457 0.00184430776
vn 0.257994115 -0.965940058 -0.0199702512
vn -0.0328223 0.99945873 0.00224444782
vn -0.0328223 0.99945873 0.00224444782
vn -0.0328223 0.99945873 0.00224444782
vn -0.04718907 0.998732746 -0.017498197
vn -0.00272991857 -0.999996245 0.000290992844
vn -0.00272991857 -0.999996245 0.000290992844
vn -0.00272991857 -0.999996245 0.000290992844
vn -0.00363073219 -0.9998362 0.0177325867
vn 0.8654855 0.000270532357 0.5009339
vn 0.499079317 0.000270541641 0.8665563
vn 0.865479231 0.00233721826 0.5009393
vn 0.461978346 -0.0008008615 0.8868909
vn 0.006050907 0.9998247 0.017717002
vn 0.006050907 0.9998247 0.017717002
vn 0.006050907 0.9998247 0.017717002
vn 0.00456397468 0.9999895 0.000475004344
vn -1 0 0
vn -1 0 0
vn -1 0 0
vn -0.9998455 0.0171868876 -0.00368095026
vn -0.99930197 0.02583255 0.02698624
vn -0.99930197 0.02583255 0.02698624
vn -0.99930197 0.02583255 0.02698624
vn -0.999866247 -0.00169658766 0.016269125
vn 0 -1 0
vn 0 -1 0
vn 0 -1 0
vn 0 -1 2.4175506E-07
vn 4.11218825E-05 -0.999834955 -0.0181681626
vn 0.0009228066 -0.9996263 -0.0273226574
vn 0.0013827543 -0.41570428 -0.9094988
vn -0.00122041628 -0.0360228233 -0.99935025
vn -0.00210168958 -0.4157255 -0.9094877
vn 0.00284037483 0.000597536564 -0.9999958
vn 0.0008478317 0.999654 0.02629029
vn 0.0008478317 0.999654 0.02629029
vn 0.0008478317 0.999654 0.02629029
vn 3.92999646E-05 0.9998492 0.0173658244
vn 0 1 0
vn 0 1 -3.876612E-06
vn -0.0006055928 0.0177421253 0.9998424
vn -0.0006055928 0.0177421253 0.9998424
vn -0.0006055928 0.0177421253 0.9998424
vn 0.0006056201 -0.0177425649 0.9998424
vn -0.0177853927 -0.9739748 0.225957379
vn -0.0177853927 -0.9739748 0.225957379
vn -0.0177853927 -0.9739748 0.225957379
vn 0 -0.974530041 0.224256992
vn -0.03533293 -0.242302045 0.9695573
vn -0.0261570141 -0.0213899054 0.999429
vn -0.0276687928 -0.241563 0.9699906
vn -0.0277619213 -0.0335050076 0.999052942
vn 0.0175579563 0.467998415 0.8835549
vn 0.07756686 0.644079 0.76101613
vn 0.02776287 0.464571863 0.8851001
vn 0.0276709516 0.6392938 0.768464565
vn 0 0.97453 0.224257484
vn 0 0.97453 0.224257484
vn 0 0.97453 0.224257484
vn 0.017787056 0.973974943 0.2259567
vn -0.0662552044 -0.704458654 0.7066458
vn -0.06625523 -0.4008608 0.913740039
vn -0.0130633712 -0.699954 0.7140685
vn -0.0469122 -0.414351881 0.9089069
vn -1 2.60913521E-06 0
vn -1 2.60913521E-06 0
vn -1 2.60913521E-06 0
vn -1 -1.5820483E-06 0
vn 1 1.64817686E-06 0
vn 1 1.64817686E-06 0
vn 1 1.64817686E-06 0
vn 1 -2.066957E-06 0
vn 0 1 -2.761479E-07
vn 0 1 -2.761479E-07
vn 0 1 -2.761479E-07
vn 0 1 0
vn -0.0237920415 -0.999707937 -0.00424178271
vn -0.0237920415 -0.999707937 -0.00424178271
vn -0.0237920415 -0.999707937 -0.00424178271
vn 0 -1 0
vn -0.01761765 0.999515355 0.025665747
vn -0.01761765 0.999515355 0.025665747
vn -0.01761765 0.999515355 0.025665747
vn 0.00397285447 0.9998411 0.0173767712
vn -0.0117663061 0.871731043 0.489843458
vn 0.0221301876 0.5115616 0.858961642
vn -0.0259881839 0.871257961 0.490136921
vn 0.011766186 0.489843279 0.871731162
vn -0.0177423265 -0.0005630784 0.9998424
vn -0.0177423265 -0.0005630784 0.9998424
vn -0.0177423265 -0.0005630784 0.9998424
vn 0.0177423339 0.0005630783 0.9998424
vn -0.0117673436 -0.489849776 0.871727467
vn 0.0221286844 -0.858965456 0.5115552
vn -0.0259891991 -0.4901431 0.8712545
vn 0.0117641846 -0.871731 0.4898435
vn 0 1 0
vn 0 1 0
vn 0 1 0
vn 0 1 0
vn -1 0 0
vn -1 0 0
vn -1 0 0
vn -0.9998536 -2.570082E-06 0.0171088055
vn -0.9996455 0.0007897869 0.0266158972
vn 0 -1 0
vn 0 -1 0
vn 0 -1 0
vn 0 -1 0
vn -0.258754343 0.96594137 0.00187456538
vn -0.258754343 0.96594137 0.00187456538
vn -0.258754343 0.96594137 0.00187456538
vn -0.260133 0.9653342 -0.02146581
vn -0.89576143 0.442274 -0.0447793938
vn -0.9706137 0.236439988 -0.0447793975
vn -0.8955863 0.439887553 -0.0665139258
vn -0.967702 0.244011238 -0.063335754
vn 1 -2.92652248E-06 0
vn 1 -2.92652248E-06 0
vn 1 -2.92652248E-06 0
vn 0.9992192 0.03937881 -0.00323242322
vn 0.0241651088 0.999705732 -0.0021068526
vn 0.0241651088 0.999705732 -0.0021068526
vn 0.0241651088 0.999705732 -0.0021068526
vn 0.0346616842 0.99924463 0.0175717771
vn -0.00369328656 0.9998361 -0.0177271757
vn -0.00369328656 0.9998361 -0.0177271757
vn -0.00369328656 0.9998361 -0.0177271757
vn -0.00270673749 0.9999962 0.000558003143
vn 0.9995278 0.0288486 0.0105777187
vn 0.9995278 0.0288486 0.0105777187
vn 0.9995278 0.0288486 0.0105777187
vn 0.999231339 0.03322812 0.020800991
vn -0.00134528184 0.413936168 -0.9103049
vn 0.0012125927 0.03408051 -0.9994184
vn 0.00210608961 0.413957 -0.910294
vn -0.00279999664 -0.002348557 -0.9999933
vn -0.9996013 0.0279132761 0.004254344
vn -0.9996013 0.0279132761 0.004254344
vn -0.9996013 0.0279132761 0.004254344
vn -0.9990489 0.0372707359 0.0226324834
vn -8.49461649E-05 -0.9992954 0.03753244
vn -0.00178740209 -0.9984915 0.0548775531
vn -8.49461649E-05 -0.9992954 0.03753244
vn -8.49461649E-05 -0.9992954 0.03753244
vn 0 -1 -1.72294E-06
vn 0 -1 -1.72294E-06
vn -0.0006055992 0.0177421886 0.9998424
vn -0.0006055992 0.0177421886 0.9998424
vn -0.0006055992 0.0177421886 0.9998424
vn 0.0006056159 -0.017742442 0.9998424
vn 0 1 0
vn 0 1 -2.96130054E-07
vn 0 1 0
vn 0 1 0
vn -4.11243127E-05 0.9998349 -0.0181702822
vn -0.00092278613 0.9996263 -0.0273233373
vn -0.0117976731 -0.00298864767 -0.999926
vn -0.0117976731 -0.00298864767 -0.999926
vn -0.0117976731 -0.00298864767 -0.999926
vn 0 0 -1
vn -0.00104472588 -4.73474017E-07 -0.999999464
vn -0.00104472588 -4.73474017E-07 -0.999999464
vn -0.00104472588 -4.73474017E-07 -0.999999464
vn -0.000471803447 0.00177800318 -0.999998331
vn -0.00120272161 0.00132693327 -0.99999845
vn -0.00265580742 0.000722896133 -0.9999962
vn -0.004991495 -2.14738816E-06 -0.999987543
vn -0.00187350716 -0.000618244463 -0.9999981
vn -0.00187350716 -0.000618244463 -0.9999981
vn -0.000764027 -0.000900467043 -0.9999993
vn -0.000284918933 -0.00106680545 -0.9999994
vn -0.00103704236 -1.22543372E-06 -0.999999464
vn 4.092023E-07 0 -1
vn 0 0 -1
vn -0.0116204433 0.02094972 -0.999713
vn 0.000223554118 0.00119166693 -0.9999993
vn 0.009335522 0.0101177674 -0.9999052
vn 0 0 -1
vn 0 0 -1
vn 0 0 -1
vn 0 0 -1
vn 0 0 -1
vn 0.00173908961 -0.000593854755 -0.999998331
vn 0.0009513126 -0.0009274548 -0.999999166
vn 0.00187342055 -0.0006987134 -0.999998
vn 0.004186599 -0.000252534664 -0.9999912
vn 0.005311976 -6.29339847E-05 -0.999985933
vn 0.00244127586 0.0007587731 -0.9999968
vn 0.00159293821 0.00108519709 -0.999998152
vn 0.000971914 0.00145052408 -0.99999845
vn 0.00154188043 0.0009310249 -0.9999984
vn 8.623556E-05 -0.00356540061 -0.9999937
vn -0.000196449124 -0.00281997141 -0.999996
vn -0.000196449124 -0.00281997141 -0.999996
vn -0.000196449124 -0.00281997141 -0.999996
vn 0.0003503997 -0.000379894569 -0.9999999
vn 0.000144030579 -0.00119323551 -0.9999993
vn 0 0 -1
vn 0 0 -1
vn -0.002197937 0.0158143081 -0.999872565
vn -0.003758301 0.032000944 -0.9994808
vn -0.00111247937 -0.0121885184 -0.999925137
vn -0.0219153557 -7.16487848E-05 -0.999759853
vn 0 0 1
vn 0 0 1
vn 0 0 1
vn 0.02519108 0.00648314366 0.9996616
f 1//1 2//2 3//3
f 4//4 5//5 6//6
f 7//7 8//8 9//9
f 10//10 11//11 12//12
f 13//13 14//14 15//15
f 16//16 17//17 18//18
f 19//19 20//20 21//21
f 22//22 23//23 24//24
f 25//25 26//26 27//27
f 28//28 29//29 30//30
f 31//31 32//32 33//33
f 34//34 35//35 36//36
f 37//37 38//38 39//39
f 40//40 41//41 42//42
f 43//43 44//44 45//45
f 46//46 47//47 48//48
f 49//49 50//50 51//51
f 52//52 53//53 54//54
f 55//55 56//56 57//57
f 58//58 59//59 60//60
f 61//61 62//62 63//63
f 64//64 65//65 66//66
f 67//67 68//68 69//69
f 70//70 71//71 72//72
f 73//73 74//74 75//75
f 76//76 77//77 78//78
f 79//79 80//80 81//81
f 82//82 83//83 84//84
f 85//85 86//86 87//87
f 88//88 89//89 90//90
f 91//91 92//92 93//93
f 94//94 95//95 96//96
f 97//97 98//98 99//99
f 100//100 101//101 102//102
f 103//103 104//104 105//105
f 106//106 107//107 108//108
f 109//109 110//110 111//111
f 112//112 113//113 114//114
f 115//115 116//116 112//112
f 117//117 115//115 112//112
f 117//117 112//112 118//118
f 119//119 120//120 118//118
f 119//119 121//121 120//120
f 121//121 122//122 120//120
f 123//123 124//124 122//122
f 123//123 125//125 124//124
f 126//126 115//115 125//125
f 123//123 127//127 125//125
f 127//127 126//126 125//125
f 128//128 129//129 130//130
f 131//131 132//132 133//133
f 134//134 135//135 136//136
f 137//137 138//138 139//139
f 139//139 140//140 141//141
f 140//140 142//142 143//143
f 144//144 145//145 146//146
f 147//147 148//148 149//149
f 150//150 151//151 152//152
f 153//153 154//154 155//155
f 156//156 157//157 158//158
f 159//159 160//160 161//161
f 162//162 163//163 164//164
f 165//165 166//166 167//167
f 168//168 169//169 170//170
f 171//171 172//172 173//173
f 174//174 175//175 176//176
f 177//177 178//178 179//179
f 180//180 181//181 182//182
f 183//183 184//184 185//185
f 186//186 187//187 188//188
f 189//189 190//190 191//191
f 192//192 193//193 194//194
f 195//195 196//196 197//197
f 198//198 199//199 200//200
f 201//201 202//202 203//203
f 204//204 205//205 206//206
f 207//207 208//208 209//209
f 210//210 211//211 212//212
f 213//213 214//214 215//215
f 216//216 217//217 218//218
f 219//219 220//220 221//221
f 222//222 223//223 224//224
f 225//225 226//226 227//227
f 228//228 229//229 230//230
f 231//231 232//232 233//233
f 234//234 235//235 236//236
f 237//237 238//238 239//239
f 240//240 241//241 242//242
f 243//243 244//244 245//245
f 244//244 246//246 247//247
f 248//248 249//249 250//250
f 251//251 252//252 253//253
f 254//254 255//255 256//256
f 257//257 258//258 259//259
f 260//260 261//261 262//262
f 263//263 264//264 265//265
f 266//266 267//267 268//268
f 269//269 270//270 271//271
f 272//272 273//273 274//274
f 275//275 276//276 277//277
f 278//278 279//279 280//280
f 281//281 282//282 283//283
f 284//284 285//285 286//286
f 287//287 288//288 289//289
f 290//290 291//291 288//288
f 292//292 293//293 294//294
f 295//295 296//296 297//297
f 298//298 299//299 300//300
f 301//301 302//302 303//303
f 304//304 305//305 306//306
f 304//304 307//307 308//308
f 309//309 310//310 311//311
f 312//312 313//313 314//314
f 315//315 316//316 317//317
f 318//318 319//319 320//320
f 321//321 322//322 323//323
f 324//324 325//325 326//326
f 327//327 328//328 329//329
f 330//330 331//331 332//332
f 333//333 334//334 335//335
f 336//336 337//337 338//338
f 339//339 340//340 341//341
f 342//342 343//343 344//344
f 345//345 346//346 347//347
f 348//348 349//349 350//350
f 351//351 352//352 353//353
f 354//354 355//355 356//356
f 357//357 358//358 359//359
f 360//360 361//361 362//362
f 363//363 364//364 365//365
f 366//366 367//367 368//368
f 369//369 370//370 371//371
f 372//372 373//373 374//374
f 375//375 376//376 377//377
f 378//378 379//379 380//380
f 381//381 382//382 383//383
f 384//384 385//385 386//386
f 387//387 388//388 389//389
f 390//390 391//391 392//392
f 393//393 394//394 395//395
f 396//396 397//397 398//398
f 399//399 400//400 401//401
f 402//402 401//401 403//403
f 404//404 402//402 403//403
f 404//404 403//403 405//405
f 406//406 404//404 405//405
f 406//406 405//405 407//407
f 407//407 408//408 406//406
f 407//407 409//409 408//408
f 409//409 410//410 408//408
f 404//404 411//411 412//412
f 409//409 413//413 414//414
f 413//413 415//415 416//416
f 417//417 413//413 416//416
f 418//418 417//417 419//419
f 418//418 419//419 420//420
f 421//421 418//418 420//420
f 422//422 421//421 420//420
f 422//422 420//420 423//423
f 411//411 422//422 423//423
f 424//424 411//411 423//423
f 425//425 424//424 401//401
f 425//425 426//426 424//424
f 426//426 427//427 424//424
f 428//428 429//429 430//430
f 431//431 432//432 433//433
f 434//434 435//435 436//436
f 437//437 438//438 439//439
f 440//440 441//441 442//442
f 443//443 444//444 445//445
f 446//446 447//447 448//448
f 449//449 450//450 451//451
f 452//452 453//453 454//454
f 455//455 456//456 457//457
f 455//455 458//458 459//459
f 460//460 455//455 461//461
f 462//462 460//460 461//461
f 462//462 461//461 463//463
f 464//464 455//455 465//465
f 466//466 464//464 465//465
f 466//466 465//465 467//467
f 468//468 466//466 467//467
f 469//469 468//468 467//467
f 469//469 467//467 470//470
f 471//471 469//469 470//470
f 464//464 472//472 473//473
f 462//462 472//472 474//474
f 472//472 475//475 474//474
f 475//475 476//476 474//474
f 476//476 475//475 477//477
f 476//476 477//477 478//478
f 479//479 476//476 478//478
f 479//479 478//478 480//480
f 480//480 471//471 481//481
f 482//482 480//480 481//481
f 483//483 484//484 485//485
f 486//486 487//487 488//488
f 489//489 490//490 491//491
f 492//492 493//493 494//494
f 495//495 496//496 497//497
f 498//498 499//499 500//500
f 501//501 502//502 503//503
f 504//504 505//505 506//506
f 507//507 508//508 509//509
f 510//510 511//511 512//512
f 513//513 514//514 515//515
f 516//516 517//517 518//518
f 516//516 519//519 520//520
f 519//519 516//516 521//521
f 522//522 523//523 524//524
f 525//525 526//526 527//527
f 528//528 529//529 530//530
f 531//531 532//532 533//533
f 534//534 535//535 536//536
f 537//537 538//538 539//539
f 540//540 541//541 542//542
f 543//543 544//544 545//545
f 546//546 547//547 548//548
f 549//549 550//550 551//551
f 552//552 553//553 554//554
f 555//555 556//556 557//557
f 558//558 559//559 560//560
f 561//561 562//562 563//563
f 564//564 565//565 566//566
f 567//567 568//568 569//569
f 570//570 571//571 572//572
f 573//573 574//574 575//575
f 576//576 577//577 578//578
f 579//579 580//580 581//581
f 582//582 583//583 584//584
f 585//585 586//586 587//587
f 588//588 589//589 590//590
f 591//591 592//592 593//593
f 594//594 595//595 596//596
f 597//597 598//598 599//599
f 600//600 601//601 602//602
f 603//603 604//604 605//605
f 606//606 607//607 608//608
f 609//609 610//610 611//611
f 612//612 613//613 614//614
f 615//615 616//616 617//617
f 618//618 619//619 620//620
f 621//621 622//622 623//623
f 624//624 625//625 626//626
f 627//627 628//628 629//629
f 630//630 631//631 632//632
f 633//633 634//634 635//635
f 636//636 637//637 638//638
f 639//639 640//640 641//641
f 642//642 643//643 644//644
f 645//645 646//646 647//647
f 648//648 649//649 650//650
f 651//651 652//652 653//653
f 654//654 655//655 656//656
f 657//657 658//658 659//659
f 660//660 661//661 662//662
f 663//663 664//664 665//665
f 666//666 667//667 668//668
f 669//669 670//670 671//671
f 672//672 673//673 671//671
f 673//673 672//672 674//674
f 674//674 675//675 673//673
f 674//674 676//676 675//675
f 676//676 677//677 675//675
f 677//677 676//676 678//678
f 677//677 678//678 679//679
f 676//676 680//680 678//678
f 680//680 681//681 678//678
f 680//680 682//682 681//681
f 682//682 683//683 681//681
f 683//683 684//684 681//681
f 684//684 685//685 681//681
f 673//673 686//686 687//687
f 688//688 672//672 687//687
f 689//689 688//688 687//687
f 689//689 687//687 690//690
f 691//691 689//689 690//690
f 691//691 690//690 692//692
f 693//693 691//691 692//692
f 694//694 693//693 692//692
f 695//695 696//696 685//685
f 696//696 697//697 685//685
f 697//697 698//698 685//685
f 698//698 699//699 685//685
f 700//700 701//701 694//694
f 700//700 702//702 701//701
f 702//702 703//703 701//701
f 702//702 704//704 703//703
f 704//704 705//705 703//703
f 705//705 706//706 703//703
f 706//706 707//707 703//703
f 700//700 708//708 709//709
f 710//710 711//711 707//707
f 711//711 712//712 707//707
f 712//712 713//713 707//707
f 712//712 714//714 713//713
f 714//714 715//715 713//713
f 715//715 679//679 713//713
f 679//679 716//716 713//713
f 716//716 717//717 713//713
f 718//718 719//719 720//720
f 719//719 721//721 720//720
f 722//722 723//723 724//724
f 723//723 725//725 724//724
f 726//726 727//727 728//728
f 727//727 729//729 728//728
f 730//730 731//731 732//732
f 731//731 733//733 732//732
f 734//734 735//735 736//736
f 735//735 734//734 737//737
f 738//738 739//739 740//740
f 741//741 738//738 740//740
f 741//741 740//740 742//742
f 740//740 743//743 742//742
f 744//744 745//745 742//742
f 744//744 746//746 745//745
f 746//746 747//747 745//745
f 748//748 749//749 747//747
f 748//748 750//750 749//749
f 748//748 751//751 750//750
f 752//752 738//738 750//750
f 750//750 738//738 753//753
f 754//754 750//750 753//753
f 755//755 756//756 757//757
f 756//756 758//758 757//757
f 759//759 760//760 761//761
f 759//759 762//762 760//760
f 763//763 764//764 765//765
f 764//764 766//766 765//765
f 767//767 768//768 769//769
f 768//768 770//770 769//769
f 771//771 772//772 773//773
f 772//772 774//774 773//773
f 775//775 776//776 777//777
f 776//776 778//778 777//777
f 779//779 780//780 781//781
f 780//780 782//782 781//781
f 783//783 784//784 785//785
f 784//784 786//786 785//785
f 787//787 788//788 789//789
f 788//788 790//790 789//789
f 791//791 792//792 793//793
f 791//791 794//794 792//792
f 795//795 796//796 797//797
f 796//796 798//798 797//797
f 799//799 800//800 801//801
f 799//799 802//802 800//800
f 799//799 803//803 802//802
f 803//803 804//804 802//802
f 805//805 806//806 807//807
f 806//806 808//808 807//807
f 809//809 810//810 811//811
f 810//810 812//812 811//811
f 810//810 813//813 812//812
f 813//813 814//814 812//812
f 815//815 816//816 817//817
f 816//816 818//818 817//817
f 819//819 820//820 821//821
f 820//820 822//822 821//821
f 823//823 824//824 825//825
f 823//823 826//826 824//824
f 827//827 828//828 829//829
f 827//827 830//830 828//828
f 831//831 832//832 833//833
f 832//832 834//834 833//833
f 835//835 836//836 837//837
f 836//836 838//838 837//837
f 839//839 840//840 841//841
f 840//840 839//839 842//842
f 843//843 844//844 845//845
f 844//844 846//846 845//845
f 847//847 848//848 849//849
f 848//848 850//850 849//849
f 851//851 852//852 853//853
f 851//851 854//854 852//852
f 855//855 856//856 857//857
f 856//856 858//858 857//857
f 859//859 860//860 861//861
f 860//860 862//862 861//861
f 863//863 864//864 865//865
f 864//864 866//866 865//865
f 867//867 868//868 869//869
f 868//868 870//870 869//869
f 871//871 872//872 873//873
f 871//871 874//874 872//872
f 875//875 876//876 877//877
f 876//876 878//878 877//877
f 878//878 879//879 877//877
f 880//880 881//881 882//882
f 881//881 883//883 882//882
f 884//884 885//885 886//886
f 885//885 887//887 886//886
f 888//888 889//889 890//890
f 889//889 891//891 890//890
f 892//892 893//893 894//894
f 893//893 895//895 894//894
f 896//896 897//897 898//898
f 897//897 899//899 898//898
f 900//900 901//901 902//902
f 901//901 903//903 902//902
f 904//904 905//905 906//906
f 905//905 907//907 906//906
f 908//908 909//909 910//910
f 909//909 911//911 910//910
f 912//912 913//913 914//914
f 912//912 915//915 913//913
f 916//916 917//917 918//918
f 919//919 916//916 918//918
f 919//919 918//918 920//920
f 919//919 920//920 921//921
f 922//922 923//923 924//924
f 923//923 925//925 924//924
f 926//926 927//927 928//928
f 926//926 928//928 929//929
f 928//928 930//930 929//929
f 930//930 931//931 929//929
f 932//932 933//933 934//934
f 933//933 935//935 934//934
f 936//936 937//937 938//938
f 936//936 939//939 937//937
f 939//939 940//940 937//937
f 940//940 941//941 937//937
f 941//941 942//942 937//937
f 943//943 944//944 942//942
f 944//944 945//945 942//942
f 945//945 946//946 942//942
f 946//946 947//947 942//942
f 946//946 948//948 947//947
f 948//948 949//949 947//947
f 947//947 949//949 950//950
f 949//949 951//951 950//950
f 949//949 952//952 951//951
f 948//948 953//953 949//949
f 952//952 949//949 954//954
f 948//948 955//955 953//953
f 954//954 956//956 952//952
f 955//955 957//957 953//953
f 956//956 958//958 952//952
f 956//956 959//959 958//958
f 959//959 960//960 958//958
f 960//960 961//961 958//958
f 961//961 962//962 958//958
f 961//961 963//963 962//962
f 963//963 964//964 962//962
f 964//964 965//965 962//962
f 965//965 966//966 962//962
f 965//965 967//967 966//966
f 967//967 968//968 966//966
f 968//968 967//967 969//969
f 970//970 968//968 969//969
f 969//969 971//971 970//970
f 971//971 972//972 970//970
f 971//971 973//973 972//972
f 973//973 974//974 972//972
f 973//973 975//975 974//974
f 975//975 976//976 974//974
f 977//977 976//976 975//975
f 977//977 975//975 957//957
f 955//955 977//977 957//957
f 975//975 978//978 957//957
f 979//979 980//980 981//981
f 980//980 982//982 981//981
